SplineFontDB: 3.0
FontName: Istok-Italic
FullName: Istok Italic
FamilyName: Istok
Weight: Italic
Copyright: (C) 2008-2014 Andrey V. Panov (panov@canopus.iacp.dvo.ru), with Reserved Font Name Istok.
UComments: "2008-10-29: Created."
Version: 1.0.3
ItalicAngle: -13
UnderlinePosition: -204
UnderlineWidth: 102
Ascent: 1548
Descent: 500
InvalidEm: 0
LayerCount: 2
Layer: 0 0 "+BBcEMAQ0BD0EOAQ5 +BD8EOwQwBD0A" 1
Layer: 1 0 "+BB8ENQRABDUENAQ9BDgEOQAA +BD8EOwQwBD0A" 0
XUID: [1021 513 629268104 9940963]
FSType: 0
OS2Version: 0
OS2_WeightWidthSlopeOnly: 0
OS2_UseTypoMetrics: 1
CreationTime: 1225286394
ModificationTime: 1473324332
PfmFamily: 33
TTFWeight: 500
TTFWidth: 5
LineGap: 0
VLineGap: 0
Panose: 2 15 6 3 3 4 3 9 2 4
OS2TypoAscent: 1548
OS2TypoAOffset: 0
OS2TypoDescent: -500
OS2TypoDOffset: 0
OS2TypoLinegap: 410
OS2WinAscent: 1950
OS2WinAOffset: 0
OS2WinDescent: 508
OS2WinDOffset: 0
HheadAscent: 1950
HheadAOffset: 0
HheadDescent: -508
HheadDOffset: 0
OS2FamilyClass: 2048
OS2Vendor: 'PfEd'
Lookup: 258 0 0 "LGC kerning" { "LGC kerning subtable"  } ['kern' ('latn' <'dflt' > 'grek' <'dflt' > 'cyrl' <'dflt' > ) ]
MarkAttachClasses: 1
DEI: 91125
LangName: 1033 "" "" "" "" "" "" "" "" "Andrey V. Panov" "Andrey V. Panov" "" "http://code.google.com/p/istok" "http://code.google.com/u/andrej.panov/" "GNU General Public License with font exception" "http://www.gnu.org/licenses/gpl.html http://www.gnu.org/licenses/gpl-faq.html#FontException"
LangName: 1049 "" "+BBgEQQRCBD4EOgAA" "" "" "" "" "" "" "" "+BBAA. +BBIA. +BB8EMAQ9BD4EMgAA"
Encoding: UnicodeBmp
UnicodeInterp: none
NameList: Adobe Glyph List
DisplaySize: -48
AntiAlias: 1
FitToEm: 1
WinInfo: 8192 16 13
BeginPrivate: 8
BlueValues 47 [-30 0 1050 1067 1422 1423 1434 1464 1476 1493]
OtherBlues 41 [-417 -400 -370 -370 -350 -350 1136 1150]
BlueScale 9 0.0282857
StdHW 5 [130]
StdVW 5 [176]
StemSnapH 25 [120 130 132 156 164 172]
StemSnapV 29 [176 186 192 205 154 166 120]
ForceBold 5 false
EndPrivate
Grid
-2048 1150 m 5
 4096 1150 l 1029

StartChar: dotlessi
Encoding: 305 305 0
Width: 460
Flags: W
HStem: 0 21G<52 168> 1030 20G<294 410>
VStem: 32 398
LayerCount: 2
Back
SplineSet
267 -1 m 2
 244 0 l 1
 178 0 l 1
 153.333333333 4 141 20.3333333333 141 49 c 2
 141 988 l 2
 141 1008 145.166666667 1021.83333333 153.5 1029.5 c 128
 161.833333333 1037.16666667 175 1041 193 1041 c 2
 215 1040 l 1
 254 1040 l 1
 272 1041 l 2
 302 1041 317 1024.33333333 317 991 c 2
 317 70 l 1
 318 50 l 2
 318 28 312.333333333 13.3333333333 301 6 c 1
 300.333333333 6 297.166666667 4.83333333333 291.5 2.5 c 128
 285.833333333 0.166677333333 277.666666667 -0.999989333333 267 -1 c 2
EndSplineSet
Fore
SplineSet
67 0 m 2
 37 0 25.3333333333 15 32 45 c 2
 254 1005 l 2
 260.666666667 1035 279 1050 309 1050 c 2
 395 1050 l 2
 425 1050 436.666666667 1035 430 1005 c 2
 208 45 l 2
 201.333333333 15 183 0 153 0 c 2
 67 0 l 2
EndSplineSet
Validated: 524289
EndChar

StartChar: afii10079
Encoding: 1085 1085 1
Width: 1120
Flags: W
HStem: 0 21G<52 168 712 828> 482 132<340 793> 1030 20G<294 410 954 1070>
LayerCount: 2
Back
SplineSet
293 618 m 1
 851 618 l 1
 851 488 l 1
 293 488 l 1
 293 618 l 1
815 1040 m 1
 846 1041 l 2
 850.666666667 1041 858.666666667 1040.66666667 870 1040 c 0
 897.333333333 1040 911 1023 911 989 c 2
 911 66 l 2
 911 50.6666666667 910.333333333 39.6666666667 909 33 c 2
 909 29.5555333333 907.833333333 25.6944333333 905.5 21.4167 c 128
 903.166666667 17.1389 900.333333333 13.5 897 10.5 c 0
 889.222 3.49998789893 876.222 -1.21010666667e-05 858 0 c 2
 809 0 l 2
 782.333333333 0 764.333333333 2.83333333333 755 8.5 c 128
 745.666666667 14.1666666667 741 28.3333333333 741 51 c 2
 741 504 l 1
 313 504 l 1
 313 53 l 2
 313 29.6666666667 308.833333333 15 300.5 9 c 128
 292.166666667 3.00000063578 274 6.35782666667e-07 246 0 c 2
 194 0 l 2
 182.666666667 0 173.333333333 1.5 166 4.5 c 128
 158.666666667 7.5 154.166666667 10.3333333333 152.5 13 c 128
 150.833333333 15.6666666667 150 18 150 20 c 1
 146.666666667 25.3333333333 145 29.6666666667 145 33 c 1
 143.666666667 39.6666666667 143 50.6666666667 143 66 c 2
 143 989 l 2
 143 1023 156.666666667 1040 184 1040 c 1
 188 1040.66666667 193.666666667 1041 201 1041 c 2
 238 1040 l 1
 268 1041 l 2
 281.333333333 1041 291.5 1038.16666667 298.5 1032.5 c 128
 305.5 1026.83333333 309.666666667 1020.66666667 311 1014 c 128
 312.333333333 1007.33333333 313 998.666666667 313 988 c 2
 313 641 l 1
 741 641 l 1
 741 992 l 2
 741 1024.66666667 756 1041 786 1041 c 2
 815 1040 l 1
EndSplineSet
Fore
SplineSet
67 0 m 2
 37 0 25.3333333333 15 32 45 c 2
 254 1005 l 2
 260.666666667 1035 279 1050 309 1050 c 2
 395 1050 l 2
 425 1050 436.666666667 1035 430 1005 c 2
 340 614 l 1
 824 614 l 1
 914 1005 l 2
 920.666666667 1035 939 1050 969 1050 c 2
 1055 1050 l 2
 1085 1050 1096.66666667 1035 1090 1005 c 2
 868 45 l 2
 861.333333333 15 843 0 813 0 c 2
 727 0 l 2
 697 0 685.333333333 15 692 45 c 2
 793 482 l 1
 309 482 l 1
 208 45 l 2
 201.333333333 15 183 0 153 0 c 2
 67 0 l 2
EndSplineSet
Validated: 524289
EndChar

StartChar: o
Encoding: 111 111 2
Width: 1148
Flags: W
HStem: -17 130<343.818 661.414> 937 130<486.586 804.182>
VStem: 68 186<207.174 658.593> 894 186<391.407 842.826>
LayerCount: 2
Back
SplineSet
85 525 m 256
 112.624666667 681.666666667 176.959 811.166666667 278.003 913.5 c 128
 379.047 1015.83333333 509.569 1067 669.569 1067 c 256
 829.569 1067 942.046 1015.83333333 1007 913.5 c 128
 1071.96 811.166666667 1090.62666667 681.666666667 1063 525 c 256
 1035.37333333 368.333333333 971.039 238.833333333 869.997 136.5 c 128
 768.953 34.1666666667 638.431 -17 478.431 -17 c 256
 318.431 -17 205.953 34.1666666667 140.997 136.5 c 128
 76.0413333333 238.833333333 57.3756666667 368.333333333 85 525 c 256
271 525 m 256
 246.314666667 385 255.702 281.333333333 299.162 214 c 128
 342.623333333 146.666666667 410.020666667 113 501.354 113 c 256
 592.687333333 113 671.956666667 146.666666667 739.162 214 c 128
 806.368666667 281.333333333 852.314666667 385 877 525 c 256
 901.685333333 665 892.298 768.666666667 848.838 836 c 128
 805.376666667 903.333333333 737.979333333 937 646.646 937 c 256
 555.312666667 937 476.043333333 903.333333333 408.838 836 c 128
 341.631333333 768.666666667 295.685333333 665 271 525 c 256
EndSplineSet
Fore
SplineSet
68 402 m 0
 68 578 122.5 732.833333333 231.5 866.5 c 0
 340.5 1000.16666667 483.333333333 1067 660 1067 c 256
 816 1067 925 1022.16666667 987 932.5 c 0
 1049 842.833333333 1080 748 1080 648 c 0
 1080 472 1025.5 317.166666667 916.5 183.5 c 0
 807.5 49.8333333333 664.666666667 -17 488 -17 c 256
 332 -17 223 27.8333333333 161 117.5 c 0
 99 207.166666667 68 302 68 402 c 0
254 387 m 0
 254 303.666666667 273.5 237.166666667 312.5 187.5 c 0
 351.5 137.833333333 414.333333333 113 501 113 c 256
 605 113 696.5 160.166666667 775.5 254.5 c 0
 854.5 348.833333333 894 485 894 663 c 0
 894 746.333333333 874.5 812.833333333 835.5 862.5 c 0
 796.5 912.166666667 733.666666667 937 647 937 c 256
 543 937 451.5 889.833333333 372.5 795.5 c 0
 293.5 701.166666667 254 565 254 387 c 0
EndSplineSet
Validated: 524289
EndChar

StartChar: afii10088
Encoding: 1094 1094 5
Width: 1132
Flags: HMW
HStem: -350 21G<809.5 923.5> -17 130<304.084 545.406> 0 132<870 948> 1030 20G<284.5 415.5 946.5 1077.5>
DStem2: -61.3016 -350 115.617 -350 0.224951 0.97437<598.05 1446.75> 601.174 -350 777.094 -350 0.224951 0.97437<611.106 1446.64> 789.611 -350 943.611 -350 0.224951 0.97437<24.5948 359.113>
LayerCount: 2
Back
SplineSet
67 0 m 2
 37 0 25.4629 15 32.3887 45 c 2
 254.022 1005 l 2
 260.948 1035 279.411 1050 309.411 1050 c 2
 395.411 1050 l 2
 425.411 1050 436.948 1035 430.022 1005 c 2
 228.475 132 l 1
 700.475 132 l 1
 902.022 1005 l 2
 908.948666667 1035 927.412 1050 957.412 1050 c 2
 1043.41 1050 l 2
 1073.41 1050 1084.94666667 1035 1078.02 1005 c 2
 876.475 132 l 1
 997.475 132 l 2
 1027.47166667 132 1039.01 117 1032.09 87 c 2
 941.585 -305 l 2
 934.659 -335 917.862666667 -350 891.196 -350 c 2
 817.196 -350 l 2
 790.529333333 -350 780.659 -335 787.585 -305 c 2
 858 0 l 1
 67 0 l 2
EndSplineSet
Fore
SplineSet
104 366 m 2
 252 1005 l 2
 258.666666667 1035 277 1050 307 1050 c 2
 393 1050 l 2
 423 1050 434.666666667 1035 428 1005 c 2
 292 414 l 2
 262 282.666666667 263 199.666666667 295 165 c 128
 327 130.333333333 378 113 448 113 c 256
 546 113 622.666666667 151.833333333 678 229.5 c 128
 733.333333333 307.166666667 772.666666667 396 796 496 c 2
 914 1005 l 2
 920.666666667 1035 939 1050 969 1050 c 2
 1055 1050 l 2
 1085 1050 1096.66666667 1035 1090 1005 c 2
 917 256 l 2
 908.333333333 218.666666667 904 188.666666667 904 166 c 128
 904 143.333333333 918.666666667 132 948 132 c 2
 1009 132 l 2
 1039 132 1050.66666667 117 1044 87 c 2
 954 -305 l 2
 947.333333333 -335 930.333333333 -350 903 -350 c 2
 829 -350 l 2
 803 -350 793.333333333 -335 800 -305 c 2
 870 0 l 1
 848 0 l 2
 802 0 769.5 13 750.5 39 c 128
 731.5 65 722 107 722 165 c 1
 718 165 l 1
 678.666666667 116.333333333 627.166666667 73.8333333333 563.5 37.5 c 128
 499.833333333 1.16666666667 429.666666667 -17 353 -17 c 256
 246.333333333 -17 171.333333333 17.1666666667 128 85.5 c 128
 84.6666666667 153.833333333 76.6666666667 247.333333333 104 366 c 2
EndSplineSet
Validated: 8912929
EndChar

StartChar: afii10077
Encoding: 1083 1083 7
Width: 1136
Flags: W
HStem: -17 136<-51.4219 142.957> 0 21G<728 844> 918 132<631.686 910>
LayerCount: 2
Back
SplineSet
-60 -8 m 256
 -72 -2.66666666667 -75.3333333333 7.33333333333 -70 22 c 2
 -41 105 l 2
 -36.3333333333 118.333333333 -26.6666666667 123 -12 119 c 256
 2.66666666667 115 16.6666666667 113 30 113 c 256
 98 113 158.5 158.833333333 211.5 250.5 c 128
 264.5 342.166666667 319.666666667 512.666666667 377 762 c 2
 433 1005 l 2
 439.666666667 1035 464 1050 506 1050 c 2
 1071 1050 l 2
 1101 1050 1112.66666667 1035 1106 1005 c 2
 884 45 l 2
 877.333333333 15 859 0 829 0 c 2
 743 0 l 2
 713 0 701.333333333 15 708 45 c 2
 910 918 l 1
 567 918 l 1
 519 711 l 2
 455.666666667 437 389.333333333 247.166666667 320 141.5 c 128
 250.666666667 35.8333333333 151.333333333 -17 22 -17 c 256
 -20 -17 -47.3333333333 -14 -60 -8 c 256
EndSplineSet
Fore
SplineSet
-60 -8 m 256xa0
 -72 -2.66666666667 -75.3333333333 7.33333333333 -70 22 c 2
 -41 105 l 2
 -36.3333333333 118.333333333 -26.6666666667 123 -12 119 c 256xa0
 2.66666666667 115 16.6666666667 113 30 113 c 256
 102 113 165 164.166666667 219 266.5 c 0
 273 368.833333333 318 500 354 660 c 2
 375 754 l 2
 395 843.333333333 438.166666667 915 504.5 969 c 0
 570.833333333 1023 685.666666667 1050 849 1050 c 2
 1071 1050 l 2
 1101 1050 1112.66666667 1035 1106 1005 c 2
 884 45 l 2
 877.333333333 15 859 0 829 0 c 2
 743 0 l 2x60
 713 0 701.333333333 15 708 45 c 2
 910 918 l 1
 874 918 l 2
 758 918 673.833333333 901.333333333 621.5 868 c 0
 569.166666667 834.666666667 533.333333333 775.666666667 514 691 c 2
 495 607 l 2
 449.666666667 406.333333333 391.833333333 252.166666667 321.5 144.5 c 0
 251.166666667 36.8333333333 151.333333333 -17 22 -17 c 256
 -20 -17 -47.3333333333 -14 -60 -8 c 256xa0
EndSplineSet
Validated: 8912897
EndChar

StartChar: p
Encoding: 112 112 8
Width: 1119
Flags: W
HStem: -400 21G<-40 76> -17 130<322.176 639.842> 937 130<553.609 793.984> 1030 20G<294 405.333>
VStem: 865 186<417.919 858.035>
LayerCount: 2
Back
SplineSet
116 -355 m 2
 430 1005 l 1026
-25.3477 -400 m 2
 -55.3477 -400 -66.8844666667 -385 -59.958 -355 c 2
 254.022 1005 l 2
 260.948 1035 279.411 1050 309.411 1050 c 2
 393.411 1050 l 2
 417.161 1050 426.698 1035 422.022 1005 c 2
 409.553 925 l 1
 411.553 925 l 1
 458.377666667 969 507.714333333 1003.66666667 559.563 1029 c 128
 611.411666667 1054.33333333 675.669333333 1067 752.336 1067 c 256
 885.669333333 1067 974.420666667 1012.5 1018.59 903.5 c 128
 1062.75666667 794.5 1068.29666667 668.333333333 1035.21 525 c 256
 1002.116 381.666666667 938.32 255.5 843.822 146.5 c 128
 749.324 37.5 635.408333333 -17 502.075 -17 c 256
 425.408333333 -17 366.999666667 -4.33333333333 326.849 21 c 128
 286.697 46.3333333333 253.366666667 81 226.858 125 c 1
 224.858 125 l 1
 221.574666667 105 217.547 84.6666666667 212.775 64 c 2
 116.042 -355 l 2
 109.115333333 -385 90.6521 -400 60.6523 -400 c 2
 -25.3477 -400 l 2
292.656 410 m 2
 269.568666667 310 276.202333333 235.5 312.557 186.5 c 128
 348.911 137.5 403.088 113 475.088 113 c 256
 576.421333333 113 657.027666667 151 716.907 227 c 128
 776.787 303 820.886666667 402.333333333 849.206 525 c 256
 877.526 647.666666667 879.292333333 747 854.505 823 c 128
 829.717 899 766.656333333 937 665.323 937 c 256
 593.323 937 527.833333333 912.5 468.854 863.5 c 128
 409.875333333 814.5 368.842666667 740 345.756 640 c 2
 292.656 410 l 2
EndSplineSet
Fore
SplineSet
-25 -400 m 2xe8
 -55 -400 -66.6666666667 -385 -60 -355 c 2
 254 1005 l 2
 260.666666667 1035 279 1050 309 1050 c 2
 393 1050 l 2xd8
 417.666666667 1050 427.333333333 1035 422 1005 c 2
 400 885 l 1
 402 885 l 1
 431.333333333 937.666666667 477 981.166666667 539 1015.5 c 0
 601 1049.83333333 658.666666667 1067 712 1067 c 256
 838.666666667 1067 926.833333333 1028.16666667 976.5 950.5 c 0
 1026.16666667 872.833333333 1051 779.666666667 1051 671 c 0
 1051 501 997.333333333 343.833333333 890 199.5 c 0
 782.666666667 55.1666666667 656.333333333 -17 511 -17 c 256
 437 -17 379.333333333 -5.83333333333 338 16.5 c 0
 296.666666667 38.8333333333 259 72.6666666667 225 118 c 1
 223 118 l 1
 220.333333333 99.3333333333 216.333333333 79 211 57 c 2
 116 -355 l 2
 109.333333333 -385 91 -400 61 -400 c 2
 -25 -400 l 2xe8
265 290 m 17
 271.666666667 223.333333333 293.333333333 177.166666667 330 151.5 c 0
 366.666666667 125.833333333 422.333333333 113 497 113 c 256
 598.333333333 113 685 169.5 757 282.5 c 0
 829 395.5 865 527.333333333 865 678 c 0
 865 747.333333333 850 807.833333333 820 859.5 c 0
 790 911.166666667 737.333333333 937 662 937 c 256xe8
 596.666666667 937 530.166666667 897.833333333 462.5 819.5 c 0
 394.833333333 741.166666667 350.666666667 658 330 570 c 2
 265 290 l 17
EndSplineSet
Validated: 8912897
EndChar

StartChar: afii10086
Encoding: 1092 1092 12
Width: 1638
Flags: W
HStem: -400 21G<549 665> -17 130<320.68 528.625 903.949 1164.96> 937 130<475.043 736.051 1111.38 1319.32> 1420 20G<973 1089>
VStem: 70 186<178.106 644.015> 646 168<-38.75 125> 1384 186<405.985 871.894>
LayerCount: 2
Back
SplineSet
86.2061 525 m 256
 120.528033333 673.666666667 187.130333333 801.166666667 286.013 907.5 c 128
 384.895 1013.83333333 487.669333333 1067 594.336 1067 c 256
 664.336 1067 715.027333333 1054.83333333 746.41 1030.5 c 128
 777.792 1006.16666667 803.839666667 971 824.553 925 c 1
 826.553 925 l 1
 829.837 945 833.787666667 965 838.405 985 c 2
 933.062 1395 l 2
 939.987333333 1425 958.45 1440 988.45 1440 c 2
 1074.45 1440 l 2
 1104.45 1440 1115.98666667 1425 1109.06 1395 c 2
 1014.41 985 l 2
 1009.79 965 1004.50433333 945 998.553 925 c 1
 1000.55 925 l 1
 1042.50333333 971 1084.79 1006.16666667 1127.41 1030.5 c 128
 1170.03 1054.83333333 1226.34 1067 1296.34 1067 c 256
 1403.00666667 1067 1481.23 1013.83333333 1531.01 907.5 c 128
 1580.79666667 801.166666667 1588.53 673.666666667 1554.21 525 c 256
 1519.88333333 376.333333333 1453.28 248.833333333 1354.4 142.5 c 128
 1255.52 36.1666666667 1152.74666667 -17 1046.08 -17 c 256
 976.076666667 -17 925.384 -4.83333333333 894.002 19.5 c 128
 862.62 43.8333333333 836.572 79 815.858 125 c 1
 813.858 125 l 1
 810.574666667 105 806.624333333 85 802.007 65 c 2
 705.042 -355 l 2
 698.115333333 -385 679.652 -400 649.652 -400 c 2
 563.652 -400 l 2
 533.652 -400 522.115333333 -385 529.042 -355 c 2
 626.007 65 l 2
 630.624333333 85 635.908 105 641.858 125 c 1
 639.858 125 l 1
 597.905333333 79 555.62 43.8333333333 513.002 19.5 c 128
 470.384 -4.83333333333 414.075 -17 344.075 -17 c 256
 237.408333333 -17 159.182666667 36.1666666667 109.398 142.5 c 128
 59.6144666667 248.833333333 51.8838333333 376.333333333 86.2061 525 c 256
272.206 525 m 256
 244.501333333 405 242.389 306.333333333 265.869 229 c 128
 289.348333333 151.666666667 344.421333333 113 431.088 113 c 256
 484.421333333 113 537.744333333 137.5 591.057 186.5 c 128
 644.369 235.5 682.184 308.333333333 704.502 405 c 10
 759.91 645 l 18
 782.227333333 741.666666667 778.042 814.5 747.354 863.5 c 128
 716.666666667 912.5 674.656333333 937 621.323 937 c 256
 534.656333333 937 461.729666667 898.333333333 402.543 821 c 128
 343.355666667 743.666666667 299.91 645 272.206 525 c 256
880.502 405 m 18
 858.184 308.333333333 862.369 235.5 893.057 186.5 c 128
 923.744333333 137.5 965.755333333 113 1019.09 113 c 256
 1105.75666667 113 1178.68333333 151.666666667 1237.87 229 c 128
 1297.05666667 306.333333333 1340.50333333 405 1368.21 525 c 256
 1395.91 645 1398.02 743.666666667 1374.54 821 c 128
 1351.06 898.333333333 1295.98666667 937 1209.32 937 c 256
 1155.98666667 937 1102.66333333 912.5 1049.35 863.5 c 128
 996.040666667 814.5 958.227333333 741.666666667 935.91 645 c 10
 880.502 405 l 18
EndSplineSet
Fore
SplineSet
70 415 m 256
 70 567.666666667 124.333333333 714.5 233 855.5 c 0
 341.666666667 996.5 463 1067 597 1067 c 256
 659 1067 707 1055.16666667 741 1031.5 c 0
 775 1007.83333333 802.666666667 972.333333333 824 925 c 1
 826 925 l 1
 829.333333333 944.333333333 833.333333333 964.333333333 838 985 c 2
 933 1395 l 2
 939.666666667 1425 958 1440 988 1440 c 2
 1074 1440 l 2
 1104 1440 1115.66666667 1425 1109 1395 c 2
 1010 965 l 2
 1006.66666667 949 1001.33333333 929 994 905 c 1
 996 905 l 1
 1028 957.666666667 1068 997.833333333 1116 1025.5 c 0
 1164 1053.16666667 1215 1067 1269 1067 c 256
 1368.33333333 1067 1443.33333333 1028.83333333 1494 952.5 c 0
 1544.66666667 876.166666667 1570 770.333333333 1570 635 c 256
 1570 482.333333333 1515.66666667 335.5 1407 194.5 c 0
 1298.33333333 53.5 1177 -17 1043 -17 c 256
 981 -17 933 -5.16666666667 899 18.5 c 0
 865 42.1666666667 837.333333333 77.6666666667 816 125 c 1
 814 125 l 1
 810.666666667 103.666666667 806.666666667 83.6666666667 802 65 c 2
 705 -355 l 2
 698.333333333 -385 680 -400 650 -400 c 2
 564 -400 l 2
 534 -400 522.333333333 -385 529 -355 c 2
 630 85 l 2
 633.333333333 100.333333333 638.666666667 120.333333333 646 145 c 1
 644 145 l 1
 612 92.3333333333 572 52.1666666667 524 24.5 c 0
 476 -3.16666666667 425 -17 371 -17 c 256
 271.666666667 -17 196.666666667 21.1666666667 146 97.5 c 0
 95.3333333333 173.833333333 70 279.666666667 70 415 c 256
256 405 m 256
 256 285 273.333333333 206.333333333 308 169 c 0
 342.666666667 131.666666667 378.666666667 113 416 113 c 256
 476.666666667 113 536.5 147 595.5 215 c 0
 654.5 283 694.333333333 362 715 452 c 10
 785 755 l 17
 785 809 770.5 852.833333333 741.5 886.5 c 0
 712.5 920.166666667 676 937 632 937 c 256
 514.666666667 937 422.666666667 878.833333333 356 762.5 c 0
 289.333333333 646.166666667 256 527 256 405 c 256
855 295 m 17
 855 241 869.5 197.166666667 898.5 163.5 c 0
 927.5 129.833333333 964 113 1008 113 c 256
 1125.33333333 113 1217.33333333 171.166666667 1284 287.5 c 0
 1350.66666667 403.833333333 1384 523 1384 645 c 256
 1384 765 1366.66666667 843.666666667 1332 881 c 0
 1297.33333333 918.333333333 1261.33333333 937 1224 937 c 256
 1163.33333333 937 1103.5 903 1044.5 835 c 0
 985.5 767 945.666666667 688 925 598 c 10
 855 295 l 17
EndSplineSet
Validated: 524289
EndChar

StartChar: afii10094
Encoding: 1100 1100 13
Width: 1017
VWidth: 1000
Flags: W
HStem: -17 130<320.452 618.426> 550 130<388.321 661.91> 1030 20G<294 410>
VStem: 716 186<209.095 494.529>
LayerCount: 2
Back
SplineSet
67 0 m 2
 37 0 25.3333333333 15 32 45 c 2
 254 1005 l 2
 260.666666667 1035 279 1050 309 1050 c 2
 395 1050 l 2
 425 1050 436.666666667 1035 430 1005 c 2
 341 618 l 1
 543 618 l 2
 689 618 785.333333333 592 832 540 c 128
 878.666666667 488 902 427 902 357 c 256
 902 260.333333333 867.333333333 176.666666667 798 106 c 128
 728.666666667 35.3333333333 609.333333333 0 440 0 c 2
 67 0 l 2
228 131 m 1
 424 131 l 2
 508 131 577.666666667 148.5 633 183.5 c 128
 688.333333333 218.5 716 274 716 350 c 256
 716 414 691.666666667 453 643 467 c 128
 594.333333333 481 535.666666667 488 467 488 c 2
 311 488 l 1
 228 131 l 1
EndSplineSet
Fore
SplineSet
124 444 m 6
 254 1005 l 2
 260.666666667 1035 279 1050 309 1050 c 2
 395 1050 l 2
 425 1050 436.666666667 1035 430 1005 c 2
 348 649 l 6
 341.333333333 623 335.333333333 602.666666667 330 588 c 5
 332 588 l 5
 362.666666667 621.333333333 397.666666667 645 437 659 c 4
 476.333333333 673 526 680 586 680 c 260
 694 680 773.666666667 649 825 587 c 4
 876.333333333 525 902 447.333333333 902 354 c 260
 902 256.666666667 863.666666667 170.5 787 95.5 c 4
 710.333333333 20.5 585.333333333 -17 412 -17 c 260
 294.666666667 -17 209.166666667 24.5 155.5 107.5 c 4
 101.833333333 190.5 91.3333333333 302.666666667 124 444 c 6
284 370 m 4
 264.666666667 286 270.833333333 222.166666667 302.5 178.5 c 4
 334.166666667 134.833333333 383 113 449 113 c 260
 532.333333333 113 597.666666667 134.833333333 645 178.5 c 4
 692.333333333 222.166666667 716 284.666666667 716 366 c 260
 716 416.666666667 701 460 671 496 c 4
 641 532 594.666666667 550 532 550 c 260
 464 550 408.5 532 365.5 496 c 4
 322.5 460 295.333333333 418 284 370 c 4
EndSplineSet
Validated: 524321
EndChar

StartChar: x
Encoding: 120 120 14
Width: 968
Flags: W
HStem: 0 21G<-65.6667 80.3333 670 782.333> 1030 20G<220 328 844.333 988>
LayerCount: 2
Back
SplineSet
109 0 m 25
 1040.41 1050 l 1049
-105 0 m 25
 826.412 1050 l 1049
360.411 1050 m 25
 833 0 l 1049
180.411 1050 m 25
 653 0 l 1049
EndSplineSet
Fore
SplineSet
-44 0 m 2
 -87.3333333333 0 -91.3333333333 19.6666666667 -56 59 c 2
 396 565 l 1
 203 991 l 2
 185 1030.33333333 198 1050 242 1050 c 2
 316 1050 l 2
 340 1050 355.666666667 1041.33333333 363 1024 c 2
 511 676 l 1
 798 1024 l 2
 812 1041.33333333 831.666666667 1050 857 1050 c 2
 966 1050 l 2
 1010 1050 1014.33333333 1030.33333333 979 991 c 2
 579 542 l 1
 800 59 l 2
 818 19.6666666667 804.666666667 0 760 0 c 2
 682 0 l 2
 658 0 642.333333333 8.66666666667 635 26 c 2
 465 431 l 1
 127 26 l 2
 112.333333333 8.66666666667 92.6666666667 0 68 0 c 2
 -44 0 l 2
EndSplineSet
Validated: 524321
EndChar

StartChar: c
Encoding: 99 99 15
Width: 1026
Flags: W
HStem: -17 130<343.818 657.693> 937 130<483.003 798.679>
VStem: 68 186<209.593 659.897>
LayerCount: 2
Back
SplineSet
68 402 m 0
 68 578 122.5 732.833333333 231.5 866.5 c 128
 340.5 1000.16666667 483.333333333 1067 660 1067 c 256
 816 1067 925 1022.16666667 987 932.5 c 128
 1049 842.833333333 1080 748 1080 648 c 0
 1080 472 1025.5 317.166666667 916.5 183.5 c 128
 807.5 49.8333333333 664.666666667 -17 488 -17 c 256
 332 -17 223 27.8333333333 161 117.5 c 128
 99 207.166666667 68 302 68 402 c 0
254 387 m 0
 254 303.666666667 273.5 237.166666667 312.5 187.5 c 128
 351.5 137.833333333 414.333333333 113 501 113 c 256
 605 113 696.5 160.166666667 775.5 254.5 c 128
 854.5 348.833333333 894 485 894 663 c 0
 894 746.333333333 874.5 812.833333333 835.5 862.5 c 128
 796.5 912.166666667 733.666666667 937 647 937 c 256
 543 937 451.5 889.833333333 372.5 795.5 c 128
 293.5 701.166666667 254 565 254 387 c 0
EndSplineSet
Fore
SplineSet
68 402 m 256
 68 578.666666667 122.5 733.666666667 231.5 867 c 0
 340.5 1000.33333333 483.333333333 1067 660 1067 c 256
 768 1067 845 1048.16666667 891 1010.5 c 0
 937 972.833333333 970.333333333 931.333333333 991 886 c 256
 1001.66666667 862 997 844.666666667 977 834 c 282
 911 799 l 274
 888.333333333 787 870.666666667 795.333333333 858 824 c 256
 848.666666667 845.333333333 827.333333333 869.5 794 896.5 c 0
 760.666666667 923.5 711.666666667 937 647 937 c 256
 543 937 451.5 890.333333333 372.5 797 c 0
 293.5 703.666666667 254 567 254 387 c 256
 254 305.666666667 273.5 239.666666667 312.5 189 c 0
 351.5 138.333333333 414.333333333 113 501 113 c 256
 569.666666667 113 626 130.833333333 670 166.5 c 0
 714 202.166666667 745.333333333 234 764 262 c 256
 779.333333333 285.333333333 797 290 817 276 c 266
 880 230 l 282
 899.333333333 216 901 197.666666667 885 175 c 256
 865.666666667 148.333333333 823.333333333 109.666666667 758 59 c 0
 692.666666667 8.33333333333 602.666666667 -17 488 -17 c 256
 332 -17 223 27.5 161 116.5 c 0
 99 205.5 68 300.666666667 68 402 c 256
EndSplineSet
Validated: 524289
EndChar

StartChar: afii10068
Encoding: 1075 1075 16
Width: 904
Flags: W
HStem: -17 130<228.5 549.746> 937 130<314.036 615.197>
VStem: 20 186<136.297 346.864> 649 176<695.734 902.629>
LayerCount: 2
Fore
SplineSet
20 226 m 256
 20 272.666666667 27.3333333333 310.333333333 42 339 c 0
 56.6666666667 367.666666667 79.6666666667 400 111 436 c 0
 142.333333333 472 188 503 248 529 c 256
 291.333333333 547.666666667 338.666666667 566.666666667 390 586 c 0
 441.333333333 605.333333333 488 626 530 648 c 256
 570 668.666666667 597 686.833333333 611 702.5 c 0
 625 718.166666667 634.833333333 735.333333333 640.5 754 c 0
 646.166666667 772.666666667 649 790 649 806 c 256
 649 826 645.5 844 638.5 860 c 0
 631.5 876 617.333333333 892.833333333 596 910.5 c 0
 574.666666667 928.166666667 542.333333333 937 499 937 c 256
 451.666666667 937 406.666666667 929.166666667 364 913.5 c 0
 321.333333333 897.833333333 286 879.333333333 258 858 c 256
 236 841.333333333 218.666666667 840 206 854 c 258
 166 900 l 258
 152.666666667 915.333333333 158.666666667 934 184 956 c 256
 220 986.666666667 268 1012.83333333 328 1034.5 c 0
 388 1056.16666667 451.666666667 1067 519 1067 c 256
 598.333333333 1067 658.333333333 1053.83333333 699 1027.5 c 0
 739.666666667 1001.16666667 770.833333333 970.166666667 792.5 934.5 c 0
 814.166666667 898.833333333 825 861 825 821 c 256
 825 764.333333333 818.166666667 720 804.5 688 c 0
 790.833333333 656 767.666666667 625.333333333 735 596 c 0
 702.333333333 566.666666667 658.333333333 539.333333333 603 514 c 256
 559.666666667 494 517.5 477 476.5 463 c 0
 435.5 449 388 428.333333333 334 401 c 256
 292.666666667 380.333333333 264.333333333 361.666666667 249 345 c 0
 233.666666667 328.333333333 222.666666667 311.166666667 216 293.5 c 0
 209.333333333 275.833333333 206 255.333333333 206 232 c 256
 206 208.666666667 210.666666667 188.166666667 220 170.5 c 0
 229.333333333 152.833333333 244 138.833333333 264 128.5 c 0
 284 118.166666667 320 113 372 113 c 256
 412 113 460 123.166666667 516 143.5 c 0
 572 163.833333333 624 193.666666667 672 233 c 256
 692 249.666666667 709.333333333 250.666666667 724 236 c 258
 770 190 l 258
 788 172 787.333333333 154.333333333 768 137 c 256
 704 77.6666666667 638.666666667 37.1666666667 572 15.5 c 0
 505.333333333 -6.16666666667 431.333333333 -17 350 -17 c 256
 256.666666667 -17 188.666666667 -4.5 146 20.5 c 0
 103.333333333 45.5 71.6666666667 74.3333333333 51 107 c 0
 30.3333333333 139.666666667 20 179.333333333 20 226 c 256
EndSplineSet
Validated: 524289
EndChar

StartChar: n
Encoding: 110 110 18
Width: 1128
Flags: W
HStem: 0 21G<52 168 722 838> 937 130<576.779 828.184> 1030 20G<294 408>
LayerCount: 2
Back
SplineSet
67 0 m 2
 37 0 25.3333333333 15 32 45 c 2
 254 1005 l 2
 260.666666667 1035 279 1050 309 1050 c 2
 393 1050 l 2
 423 1050 434.666666667 1035 428 1005 c 2
 410 925 l 1
 414 925 l 1
 468 973 521.333333333 1008.66666667 574 1032 c 128
 626.666666667 1055.33333333 693 1067 773 1067 c 256
 886.333333333 1067 963.666666667 1032.83333333 1005 964.5 c 128
 1046.33333333 896.166666667 1053.33333333 802.666666667 1026 684 c 2
 878 45 l 2
 871.333333333 15 853 0 823 0 c 2
 737 0 l 2
 707 0 695.333333333 15 702 45 c 2
 839 636 l 2
 869 766.666666667 868 849.5 836 884.5 c 128
 804 919.5 751.333333333 937 678 937 c 256
 598 937 528.166666667 911.166666667 468.5 859.5 c 128
 408.833333333 807.833333333 364.333333333 719.333333333 335 594 c 2
 208 45 l 2
 201.333333333 15 183 0 153 0 c 2
 67 0 l 2
EndSplineSet
Fore
SplineSet
67 0 m 2xc0
 37 0 25.3333333333 15 32 45 c 2
 254 1005 l 2
 260.666666667 1035 279 1050 309 1050 c 2
 393 1050 l 2xa0
 423 1050 434.666666667 1035 428 1005 c 2
 401 885 l 1
 405 885 l 1
 444.333333333 933.666666667 495.5 976.166666667 558.5 1012.5 c 0
 621.5 1048.83333333 693 1067 773 1067 c 256
 886.333333333 1067 963.666666667 1032.83333333 1005 964.5 c 0
 1046.33333333 896.166666667 1053.33333333 802.666666667 1026 684 c 2
 878 45 l 2
 871.333333333 15 853 0 823 0 c 2
 737 0 l 2
 707 0 695.333333333 15 702 45 c 2
 839 636 l 2
 869 766.666666667 868 849.5 836 884.5 c 0
 804 919.5 751.333333333 937 678 937 c 256
 598 937 525.166666667 898.166666667 459.5 820.5 c 0
 393.833333333 742.833333333 349.333333333 654 326 554 c 2
 208 45 l 2
 201.333333333 15 183 0 153 0 c 2
 67 0 l 2xc0
EndSplineSet
Validated: 8912929
EndChar

StartChar: afii10090
Encoding: 1096 1096 19
Width: 1678
Flags: W
HStem: -17 130<290.125 502.409 900.183 1108.18> 0 21G<1272 1386> 1030 20G<292 408 902 1018 1512 1628>
LayerCount: 2
Fore
SplineSet
104 366 m 2xa0
 252 1005 l 2
 258.666666667 1035 277 1050 307 1050 c 2
 393 1050 l 2
 423 1050 434.666666667 1035 428 1005 c 2
 293 424 l 2
 263 294 258.666666667 209.666666667 280 171 c 0
 301.333333333 132.333333333 348.666666667 113 422 113 c 256
 482 113 545.166666667 153.166666667 611.5 233.5 c 0
 677.833333333 313.833333333 722 401.333333333 744 496 c 2
 862 1005 l 2
 868.666666667 1035 887 1050 917 1050 c 2
 1003 1050 l 2
 1033 1050 1044.66666667 1035 1038 1005 c 2
 903 424 l 2
 873 294 868.666666667 209.666666667 890 171 c 0
 911.333333333 132.333333333 958.666666667 113 1032 113 c 256xa0
 1092 113 1154.83333333 151.833333333 1220.5 229.5 c 0
 1286.16666667 307.166666667 1330.66666667 396 1354 496 c 2
 1472 1005 l 2
 1478.66666667 1035 1497 1050 1527 1050 c 2
 1613 1050 l 2
 1643 1050 1654.66666667 1035 1648 1005 c 2
 1426 45 l 2
 1419.33333333 15 1401 0 1371 0 c 2
 1287 0 l 2x60
 1257 0 1245.33333333 15 1252 45 c 2
 1279 165 l 1
 1275 165 l 1
 1235.66666667 117 1186.16666667 74.6666666667 1126.5 38 c 0
 1066.83333333 1.33333333333 1007 -17 947 -17 c 256
 873.666666667 -17 816.166666667 6.16666666667 774.5 52.5 c 0
 732.833333333 98.8333333333 712 153.666666667 712 217 c 1
 708 217 l 1
 666 162.333333333 612.833333333 109.666666667 548.5 59 c 0
 484.166666667 8.33333333333 413.666666667 -17 337 -17 c 256
 243.666666667 -17 174.666666667 17.1666666667 130 85.5 c 0
 85.3333333333 153.833333333 76.6666666667 247.333333333 104 366 c 2xa0
EndSplineSet
Validated: 8912929
EndChar

StartChar: afii10091
Encoding: 1097 1097 20
Width: 1690
Flags: HMW
HStem: -350 21G<1367.5 1481.5> -17 130<290.125 502.409 900.183 1108.18> 0 132<1428 1506> 1030 20G<284.5 415.5 894.5 1025.5 1504.5 1635.5>
DStem2: -61.3016 -350 114.308 -350 0.224951 0.97437<585.092 1446.75> 549.174 -350 724.308 -350 0.224951 0.97437<639.604 1446.64> 1159.17 -350 1335.09 -350 0.224951 0.97437<638.678 1446.64> 1347.61 -350 1501.61 -350 0.224951 0.97437<24.5948 359.113>
LayerCount: 2
Back
SplineSet
104 366 m 2
 252 1005 l 2
 258.666666667 1035 277 1050 307 1050 c 2
 393 1050 l 2
 423 1050 434.666666667 1035 428 1005 c 2
 293 424 l 2
 263 294 258.666666667 209.666666667 280 171 c 128
 301.333333333 132.333333333 348.666666667 113 422 113 c 256
 482 113 545.166666667 153.166666667 611.5 233.5 c 128
 677.833333333 313.833333333 722 401.333333333 744 496 c 2
 862 1005 l 2
 868.666666667 1035 887 1050 917 1050 c 2
 1003 1050 l 2
 1033 1050 1044.66666667 1035 1038 1005 c 2
 903 424 l 2
 873 294 868.666666667 209.666666667 890 171 c 128
 911.333333333 132.333333333 958.666666667 113 1032 113 c 256
 1092 113 1154.83333333 151.833333333 1220.5 229.5 c 128
 1286.16666667 307.166666667 1330.66666667 396 1354 496 c 2
 1472 1005 l 2
 1478.66666667 1035 1497 1050 1527 1050 c 2
 1613 1050 l 2
 1643 1050 1654.66666667 1035 1648 1005 c 2
 1426 45 l 2
 1419.33333333 15 1401 0 1371 0 c 2
 1287 0 l 2
 1257 0 1245.33333333 15 1252 45 c 2
 1279 165 l 1
 1275 165 l 1
 1235.66666667 117 1186.16666667 74.6666666667 1126.5 38 c 128
 1066.83333333 1.33333333333 1007 -17 947 -17 c 256
 873.666666667 -17 816.166666667 6.16666666667 774.5 52.5 c 128
 732.833333333 98.8333333333 712 153.666666667 712 217 c 1
 708 217 l 1
 666 162.333333333 612.833333333 109.666666667 548.5 59 c 128
 484.166666667 8.33333333333 413.666666667 -17 337 -17 c 256
 243.666666667 -17 174.666666667 17.1666666667 130 85.5 c 128
 85.3333333333 153.833333333 76.6666666667 247.333333333 104 366 c 2
EndSplineSet
Fore
SplineSet
104 366 m 2
 252 1005 l 2
 258.666666667 1035 277 1050 307 1050 c 2
 393 1050 l 2
 423 1050 434.666666667 1035 428 1005 c 2
 293 424 l 2
 263 294 258.666666667 209.666666667 280 171 c 128
 301.333333333 132.333333333 348.666666667 113 422 113 c 256
 482 113 545.166666667 153.166666667 611.5 233.5 c 128
 677.833333333 313.833333333 722 401.333333333 744 496 c 2
 862 1005 l 2
 868.666666667 1035 887 1050 917 1050 c 2
 1003 1050 l 2
 1033 1050 1044.66666667 1035 1038 1005 c 2
 903 424 l 2
 873 294 868.666666667 209.666666667 890 171 c 128
 911.333333333 132.333333333 958.666666667 113 1032 113 c 256
 1092 113 1154.83333333 151.833333333 1220.5 229.5 c 128
 1286.16666667 307.166666667 1330.66666667 396 1354 496 c 2
 1472 1005 l 2
 1478.66666667 1035 1497 1050 1527 1050 c 2
 1613 1050 l 2
 1643 1050 1654.66666667 1035 1648 1005 c 2
 1475 256 l 2
 1466.33333333 218.666666667 1462 188.666666667 1462 166 c 128
 1462 143.333333333 1476.66666667 132 1506 132 c 2
 1567 132 l 2
 1597 132 1608.66666667 117 1602 87 c 2
 1512 -305 l 2
 1505.33333333 -335 1488.33333333 -350 1461 -350 c 2
 1387 -350 l 2
 1361 -350 1351.33333333 -335 1358 -305 c 2
 1428 0 l 1
 1406 0 l 2
 1360 0 1327.5 13 1308.5 39 c 128
 1289.5 65 1280 107 1280 165 c 1
 1275 165 l 1
 1235.66666667 117 1186.16666667 74.6666666667 1126.5 38 c 128
 1066.83333333 1.33333333333 1007 -17 947 -17 c 256
 873.666666667 -17 816.166666667 6.16666666667 774.5 52.5 c 128
 732.833333333 98.8333333333 712 153.666666667 712 217 c 1
 708 217 l 1
 666 162.333333333 612.833333333 109.666666667 548.5 59 c 128
 484.166666667 8.33333333333 413.666666667 -17 337 -17 c 256
 243.666666667 -17 174.666666667 17.1666666667 130 85.5 c 128
 85.3333333333 153.833333333 76.6666666667 247.333333333 104 366 c 2
EndSplineSet
Validated: 8912929
EndChar

StartChar: afii10069
Encoding: 1076 1076 21
Width: 1155
Flags: W
HStem: -17 130<340.041 651.611> 937 130<497.655 810.969> 1363 130<509.298 836.094>
VStem: 68 186<199.482 648.828> 945 176<947 1233.09>
LayerCount: 2
Back
SplineSet
68 402 m 0
 68 578 122.5 732.833333333 231.5 866.5 c 128
 340.5 1000.16666667 483.333333333 1067 660 1067 c 256
 816 1067 925 1022.16666667 987 932.5 c 128
 1049 842.833333333 1080 748 1080 648 c 0
 1080 472 1025.5 317.166666667 916.5 183.5 c 128
 807.5 49.8333333333 664.666666667 -17 488 -17 c 256
 332 -17 223 27.8333333333 161 117.5 c 128
 99 207.166666667 68 302 68 402 c 0
254 387 m 0
 254 303.666666667 273.5 237.166666667 312.5 187.5 c 128
 351.5 137.833333333 414.333333333 113 501 113 c 256
 605 113 696.5 160.166666667 775.5 254.5 c 128
 854.5 348.833333333 894 485 894 663 c 0
 894 746.333333333 874.5 812.833333333 835.5 862.5 c 128
 796.5 912.166666667 733.666666667 937 647 937 c 256
 543 937 451.5 889.833333333 372.5 795.5 c 128
 293.5 701.166666667 254 565 254 387 c 0
EndSplineSet
Fore
SplineSet
68 402 m 0
 68 570 124.166666667 722.833333333 236.5 860.5 c 0
 348.833333333 998.166666667 493.333333333 1067 670 1067 c 256
 732.666666667 1067 788.166666667 1054.5 836.5 1029.5 c 0
 884.833333333 1004.5 919 977 939 947 c 1
 943 947 l 17
 944.333333333 969.666666667 945 996.666666667 945 1028 c 0
 945 1124.66666667 924.166666667 1204.66666667 882.5 1268 c 0
 840.833333333 1331.33333333 777 1363 691 1363 c 256
 647.666666667 1363 604 1355.16666667 560 1339.5 c 0
 516 1323.83333333 483.333333333 1306.66666667 462 1288 c 256
 439.333333333 1268 420.666666667 1268.66666667 406 1290 c 2
 376 1333 l 2
 359.333333333 1356.33333333 361.333333333 1376.33333333 382 1393 c 256
 414 1419 459.333333333 1442.16666667 518 1462.5 c 24
 576.666666667 1482.83333333 640.666666667 1493 710 1493 c 256
 835.333333333 1493 935.166666667 1451.16666667 1009.5 1367.5 c 0
 1083.83333333 1283.83333333 1121 1157.33333333 1121 988 c 0
 1121 631.333333333 1060.83333333 374.666666667 940.5 218 c 0
 820.166666667 61.3333333333 669.333333333 -17 488 -17 c 256
 337.333333333 -17 229.666666667 21.8333333333 165 99.5 c 0
 100.333333333 177.166666667 68 278 68 402 c 0
254 387 m 0
 254 291 274.333333333 221.333333333 315 178 c 0
 355.666666667 134.666666667 417.666666667 113 501 113 c 256
 591.666666667 113 682.5 160.166666667 773.5 254.5 c 0
 864.5 348.833333333 910 485 910 663 c 0
 910 734.333333333 889.5 797.833333333 848.5 853.5 c 0
 807.5 909.166666667 743.666666667 937 657 937 c 256
 553 937 459.833333333 888.333333333 377.5 791 c 0
 295.166666667 693.666666667 254 559 254 387 c 0
EndSplineSet
Validated: 524289
EndChar

StartChar: afii10089
Encoding: 1095 1095 23
Width: 1060
Flags: W
HStem: 0 21G<652 768> 413 130<331.077 710.169> 1030 20G<256 372 894 1010>
LayerCount: 2
Fore
SplineSet
147 706 m 2
 216 1005 l 2
 222.666666667 1035 241 1050 271 1050 c 2
 357 1050 l 2
 387 1050 398.666666667 1035 392 1005 c 2
 329 734 l 2
 310.333333333 651.333333333 313.833333333 598.833333333 339.5 576.5 c 0
 365.166666667 554.166666667 405 543 459 543 c 256
 529 543 589.666666667 547 641 555 c 0
 692.333333333 563 732.666666667 579.666666667 762 605 c 9
 854 1005 l 2
 860.666666667 1035 879 1050 909 1050 c 2
 995 1050 l 2
 1025 1050 1036.66666667 1035 1030 1005 c 2
 808 45 l 2
 801.333333333 15 783 0 753 0 c 2
 667 0 l 2
 637 0 625.333333333 15 632 45 c 2
 716 409 l 6
 720 427 725.333333333 447 732 469 c 1
 728 469 l 1
 708.666666667 452.333333333 666.166666667 438.833333333 600.5 428.5 c 0
 534.833333333 418.166666667 469.333333333 413 404 413 c 256
 313.333333333 413 242.333333333 438.333333333 191 489 c 0
 139.666666667 539.666666667 125 612 147 706 c 2
EndSplineSet
Validated: 524321
EndChar

StartChar: a
Encoding: 97 97 24
Width: 1099
Flags: W
HStem: -17 130<309.09 547.205> 0 21G<696.333 807> 937 130<503.749 788.739> 1030 20G<938.667 1049>
VStem: 66 186<173.378 594.119>
LayerCount: 2
Back
SplineSet
66 339 m 0
 66 522.333333333 128.333333333 689.5 253 840.5 c 128
 377.666666667 991.5 506 1067 638 1067 c 256
 695.333333333 1067 743 1054.5 781 1029.5 c 128
 819 1004.5 847.333333333 975.333333333 866 942 c 1
 868 942 l 1
 889 1005 l 2
 899 1035 915.333333333 1050 938 1050 c 2
 1022 1050 l 2
 1052 1050 1063.66666667 1035 1057 1005 c 2
 835 45 l 2
 828.333333333 15 810 0 780 0 c 2
 694 0 l 2
 663.333333333 0 651.666666667 15 659 45 c 0
 671.727333333 98.636 681.727333333 138.636 689 165 c 1
 687 165 l 1
 654.333333333 121.666666667 611 80.5 557 41.5 c 128
 503 2.5 444.333333333 -17 381 -17 c 256
 287 -17 211 12.1666666667 153 70.5 c 128
 95 128.833333333 66 218.333333333 66 339 c 0
252 332 m 0
 252 288 264 240.5 288 189.5 c 128
 312 138.5 358.333333333 113 427 113 c 256
 483.666666667 113 548 152.166666667 620 230.5 c 128
 692 308.833333333 738.333333333 392 759 480 c 2
 826 770 l 17
 826 830 806.666666667 872.833333333 768 898.5 c 128
 729.333333333 924.166666667 684 937 632 937 c 256
 542.666666667 937 457 877.166666667 375 757.5 c 128
 293 637.833333333 252 496 252 332 c 0
861 1005 m 2
 639 45 l 1026
EndSplineSet
Fore
SplineSet
66 339 m 0x88
 66 522.333333333 128.166666667 689.5 252.5 840.5 c 0
 376.833333333 991.5 507.333333333 1067 644 1067 c 256xa8
 704 1067 753.333333333 1054.5 792 1029.5 c 0
 830.666666667 1004.5 859.333333333 975.333333333 878 942 c 1
 880 942 l 1
 901 1005 l 2
 911 1035 927.333333333 1050 950 1050 c 2
 1034 1050 l 2
 1064 1050 1075.66666667 1035 1069 1005 c 2
 847 45 l 2
 840.333333333 15 822 0 792 0 c 2
 711 0 l 2x58
 681.666666667 0 670 15 676 45 c 2
 701 165 l 1
 699 165 l 1
 666.333333333 121.666666667 622.833333333 80.5 568.5 41.5 c 0
 514.166666667 2.5 453.666666667 -17 387 -17 c 256
 290.333333333 -17 212.666666667 12.1666666667 154 70.5 c 0
 95.3333333333 128.833333333 66 218.333333333 66 339 c 0x88
252 332 m 0
 252 288 263.833333333 240.5 287.5 189.5 c 0
 311.166666667 138.5 359.666666667 113 433 113 c 256
 493 113 559.333333333 152.666666667 632 232 c 0
 704.666666667 311.333333333 751 394 771 480 c 2
 838 770 l 17
 838 830 818.833333333 872.833333333 780.5 898.5 c 0
 742.166666667 924.166666667 694.666666667 937 638 937 c 256
 544.666666667 937 457 877.166666667 375 757.5 c 0
 293 637.833333333 252 496 252 332 c 0
EndSplineSet
Validated: 8912897
EndChar

StartChar: afii10067
Encoding: 1074 1074 26
Width: 1060
VWidth: 1000
Flags: HMW
HStem: -17 130<327.127 658.517> 937 130<477.974 746.823>
VStem: 72 186<177.978 502.433> 734 186<184.284 431.545> 769 176<715.932 909.919>
DStem2: 281 569 264 430 0.963359 0.268215<0 231.742>
LayerCount: 2
Back
SplineSet
68 396 m 260
 68 596 120.166666667 757.833333333 224.5 881.5 c 132
 328.833333333 1005.16666667 471.333333333 1067 652 1067 c 260
 755.333333333 1067 838.833333333 1037.5 902.5 978.5 c 132
 966.166666667 919.5 998 852.666666667 998 778 c 260
 998 679.333333333 950.833333333 606.666666667 856.5 560 c 132
 762.166666667 513.333333333 645.333333333 476 506 448 c 6
 260 399 l 5
 256 373.666666667 254 360.333333333 254 359 c 4
 254 293 272 235.666666667 308 187 c 132
 344 138.333333333 407 114 497 114 c 260
 573.666666667 114 635.333333333 128 682 156 c 132
 728.666666667 184 760.333333333 209.333333333 777 232 c 260
 800.333333333 263.333333333 821.333333333 270.333333333 840 253 c 13
 899 202 l 30
 911.666666667 190.666666667 909.666666667 172 893 146 c 260
 877.666666667 122 836.333333333 88.8333333333 769 46.5 c 132
 701.666666667 4.16666666667 603 -17 473 -17 c 260
 331 -17 228 24.1666666667 164 106.5 c 132
 100 188.833333333 68 285.333333333 68 396 c 260
265 538 m 5
 470 578 l 6
 563.333333333 596 645.333333333 620.833333333 716 652.5 c 132
 786.666666667 684.166666667 822 728.666666667 822 786 c 260
 822 831.333333333 801.5 867.833333333 760.5 895.5 c 132
 719.5 923.166666667 672.333333333 937 619 937 c 260
 538.333333333 937 466.5 906.333333333 403.5 845 c 132
 340.5 783.666666667 294.333333333 681.333333333 265 538 c 5
348 649 m 2
 341.333333333 623 335.333333333 602.666666667 330 588 c 1
 332 588 l 1
 362.666666667 621.333333333 397.666666667 645 437 659 c 128
 476.333333333 673 526 680 586 680 c 256
 694 680 773.666666667 649 825 587 c 128
 876.333333333 525 902 447.333333333 902 354 c 256
 902 256.666666667 863.666666667 170.5 787 95.5 c 128
 710.333333333 20.5 585.333333333 -17 412 -17 c 256
 294.666666667 -17 209.166666667 24.5 155.5 107.5 c 128
 101.833333333 190.5 91.3333333333 302.666666667 124 444 c 1026
284 370 m 0
 264.666666667 286 270.833333333 222.166666667 302.5 178.5 c 128
 334.166666667 134.833333333 383 113 449 113 c 256
 532.333333333 113 597.666666667 134.833333333 645 178.5 c 128
 692.333333333 222.166666667 716 284.666666667 716 366 c 256
 716 416.666666667 701 460 671 496 c 128
 641 532 594.666666667 550 532 550 c 256
 464 550 408.5 532 365.5 496 c 128
 322.5 460 295.333333333 418 284 370 c 0
67 0 m 2
 37 0 25.3333333333 15 32 45 c 2
 254 1005 l 2
 260.666666667 1035 279 1050 309 1050 c 2
 612 1050 l 2
 765.333333333 1050 864.166666667 1026.66666667 908.5 980 c 128
 952.833333333 933.333333333 975 877.666666667 975 813 c 256
 975 753.666666667 954.833333333 700.666666667 914.5 654 c 128
 874.166666667 607.333333333 821 573.333333333 755 552 c 1
 755 551 l 1
 821 527.666666667 864.666666667 498.333333333 886 463 c 128
 907.333333333 427.666666667 918 384 918 332 c 256
 918 254.666666667 881.333333333 180 808 108 c 128
 734.666666667 36 618.666666667 0 460 0 c 2
 67 0 l 2
228 131 m 1
 444 131 l 2
 532 131 602 147.666666667 654 181 c 128
 706 214.333333333 732 271.333333333 732 352 c 256
 732 406.666666667 706.666666667 440.666666667 656 454 c 128
 605.333333333 467.333333333 547.666666667 474 483 474 c 2
 307 474 l 1
 228 131 l 1
338 605 m 1
 514 605 l 2
 606 605 676.5 625.5 725.5 666.5 c 128
 774.5 707.5 799 747 799 785 c 256
 799 841.666666667 779.166666667 878.333333333 739.5 895 c 128
 699.833333333 911.666666667 635.333333333 920 546 920 c 2
 410 920 l 1
 338 605 l 1
EndSplineSet
Fore
SplineSet
72 404 m 256
 72 545.333333333 115.333333333 691.166666667 202 841.5 c 128
 288.666666667 991.833333333 440 1067 656 1067 c 256
 731.333333333 1067 798.333333333 1049.16666667 857 1013.5 c 128
 915.666666667 977.833333333 945 922.666666667 945 848 c 256
 945 790.666666667 930.166666667 739.333333333 900.5 694 c 128
 870.833333333 648.666666667 806.666666667 607.333333333 708 570 c 1
 708 568 l 1
 777.333333333 559.333333333 830 530.833333333 866 482.5 c 128
 902 434.166666667 920 375 920 305 c 256
 920 204.333333333 879 125.5 797 68.5 c 128
 715 11.5 598 -17 446 -17 c 256
 338 -17 248.666666667 15.1666666667 178 79.5 c 128
 107.333333333 143.833333333 72 252 72 404 c 256
258 357 m 0
 258 284.333333333 272 225.5 300 180.5 c 128
 328 135.5 385.333333333 113 472 113 c 256
 542.666666667 113 604 127.5 656 156.5 c 128
 708 185.5 734 240.666666667 734 322 c 256
 734 371.333333333 716.333333333 410.166666667 681 438.5 c 128
 645.666666667 466.833333333 601.333333333 481 548 481 c 256
 506.666666667 481 460 474.833333333 408 462.5 c 128
 356 450.166666667 308 439.333333333 264 430 c 1
 260 404.666666667 258 380.333333333 258 357 c 0
276 569 m 1
 472.666666667 609.666666667 604 646 670 678 c 128
 736 710 769 762.666666667 769 836 c 256
 769 868 754 892.833333333 724 910.5 c 128
 694 928.166666667 660.333333333 937 623 937 c 256
 554.333333333 937 487 909.166666667 421 853.5 c 128
 355 797.833333333 306.666666667 703 276 569 c 1
EndSplineSet
Validated: 8912897
EndChar

StartChar: afii10092
Encoding: 1098 1098 27
Width: 1285
VWidth: 1000
Flags: W
HStem: -17 130<588.452 886.426> 550 130<656.321 929.91> 920 130<162.325 502>
VStem: 984 186<209.095 494.529>
LayerCount: 2
Back
SplineSet
187 920 m 2
 157 920 144.666666667 931.666666667 150 955 c 2
 164 1015 l 2
 169.333333333 1038.33333333 187 1050 217 1050 c 2
 663 1050 l 2
 693 1050 704.666666667 1035 698 1005 c 2
 609 618 l 1
 811 618 l 2
 957 618 1053.33333333 592 1100 540 c 128
 1146.66666667 488 1170 427 1170 357 c 256
 1170 260.333333333 1135.33333333 176.666666667 1066 106 c 128
 996.666666667 35.3333333333 877.333333333 0 708 0 c 2
 335 0 l 2
 305 0 293.333333333 15 300 45 c 2
 502 920 l 1
 187 920 l 2
496 131 m 1
 692 131 l 2
 776 131 845.666666667 148.5 901 183.5 c 128
 956.333333333 218.5 984 274 984 350 c 256
 984 414 959.666666667 453 911 467 c 128
 862.333333333 481 803.666666667 488 735 488 c 2
 579 488 l 1
 496 131 l 1
EndSplineSet
Fore
SplineSet
187 920 m 2
 157 920 144.666666667 931.666666667 150 955 c 2
 164 1015 l 2
 169.333333333 1038.33333333 187 1050 217 1050 c 2
 663 1050 l 2
 693 1050 704.666666667 1035 698 1005 c 2
 616 649 l 2
 609.333333333 623 603.333333333 602.666666667 598 588 c 1
 600 588 l 1
 630.666666667 621.333333333 665.666666667 645 705 659 c 0
 744.333333333 673 794 680 854 680 c 256
 962 680 1041.66666667 649 1093 587 c 0
 1144.33333333 525 1170 447.333333333 1170 354 c 256
 1170 256.666666667 1131.66666667 170.5 1055 95.5 c 0
 978.333333333 20.5 853.333333333 -17 680 -17 c 256
 562.666666667 -17 477.166666667 24.5 423.5 107.5 c 0
 369.833333333 190.5 359.333333333 302.666666667 392 444 c 2
 502 920 l 1
 187 920 l 2
552 370 m 0
 532.666666667 286 538.833333333 222.166666667 570.5 178.5 c 0
 602.166666667 134.833333333 651 113 717 113 c 256
 800.333333333 113 865.666666667 134.833333333 913 178.5 c 0
 960.333333333 222.166666667 984 284.666666667 984 366 c 256
 984 416.666666667 969 460 939 496 c 0
 909 532 862.666666667 550 800 550 c 256
 732 550 676.5 532 633.5 496 c 0
 590.5 460 563.333333333 418 552 370 c 0
EndSplineSet
Validated: 524321
EndChar

StartChar: v
Encoding: 118 118 28
Width: 986
Flags: W
HStem: 0 21G<296 450> 1030 20G<179.333 303.667 906.333 1050.67>
LayerCount: 2
Fore
SplineSet
156 1001 m 2
 152 1033.66666667 164.666666667 1050 194 1050 c 2
 293 1050 l 2
 314.333333333 1050 326.333333333 1037 329 1011 c 2
 389 351 l 2
 391.666666667 324.333333333 394 294 396 260 c 0
 398 226 399 194 399 164 c 1
 403 164 l 1
 415 194 426.5 219.166666667 437.5 239.5 c 0
 448.5 259.833333333 469 297 499 351 c 2
 863 1011 l 2
 877.666666667 1037 895.666666667 1050 917 1050 c 2
 1036 1050 l 2
 1065.33333333 1050 1070.66666667 1033.66666667 1052 1001 c 2
 507 61 l 2
 483.666666667 20.3333333333 461 0 439 0 c 2
 307 0 l 2
 285 0 271.666666667 20.3333333333 267 61 c 2
 156 1001 l 2
EndSplineSet
Validated: 524289
EndChar

StartChar: y
Encoding: 121 121 29
Width: 1128
Flags: W
HStem: -417 130<164.246 535.18> -17 130<304.028 559.748> 1030 20G<294 410 964 1080>
LayerCount: 2
Fore
SplineSet
106 366 m 2
 254 1005 l 2
 260.666666667 1035 279 1050 309 1050 c 2
 395 1050 l 2
 425 1050 436.666666667 1035 430 1005 c 2
 294 414 l 2
 264 282.666666667 264.833333333 199.666666667 296.5 165 c 0
 328.166666667 130.333333333 380.666666667 113 454 113 c 256
 524.666666667 113 595.166666667 150.833333333 665.5 226.5 c 0
 735.833333333 302.166666667 783 392 807 496 c 2
 924 1005 l 2
 930.666666667 1035 949 1050 979 1050 c 2
 1065 1050 l 2
 1095 1050 1106.66666667 1035 1100 1005 c 2
 866 -9 l 2
 834.666666667 -145.666666667 782 -247.833333333 708 -315.5 c 0
 634 -383.166666667 509.333333333 -417 334 -417 c 256
 220 -417 141.333333333 -406 98 -384 c 24
 54.6666666667 -362 22 -336 0 -306 c 256
 -19.3333333333 -279.333333333 -18.6666666667 -256.666666667 2 -238 c 2
 58 -186 l 2
 79.3333333333 -166.666666667 96 -166.666666667 108 -186 c 256
 128 -218 157 -242.833333333 195 -260.5 c 0
 233 -278.166666667 289.666666667 -287 365 -287 c 256
 445.666666667 -287 514.515 -264.146333333 571.545 -218.439 c 0
 628.574333333 -172.732333333 669.392666667 -96.586 694 10 c 0
 709.622 77.6666666667 721.955333333 129.333333333 731 165 c 1
 727 165 l 1
 687.666666667 116.333333333 637.666666667 73.8333333333 577 37.5 c 0
 516.333333333 1.16666666667 443.666666667 -17 359 -17 c 256
 245.666666667 -17 168.333333333 17.1666666667 127 85.5 c 0
 85.6666666667 153.833333333 78.6666666667 247.333333333 106 366 c 2
EndSplineSet
Validated: 524321
EndChar

StartChar: e
Encoding: 101 101 30
Width: 1078
VWidth: 1000
Flags: W
HStem: -17 131<335.259 685.299> 937 130<465.001 764.149>
VStem: 68 186<200.835 509.416> 822 176<692.365 881.435>
LayerCount: 2
Back
SplineSet
68 396 m 0
 68 609.333333333 122.333333333 774.5 231 891.5 c 128
 339.666666667 1008.5 476.666666667 1067 642 1067 c 256
 775.333333333 1067 872 1028.5 932 951.5 c 128
 992 874.5 1022 778.666666667 1022 664 c 0
 1022 630 1015.33333333 576.333333333 1002 503 c 0
 996.666666667 473 980.333333333 458 953 458 c 2
 256 458 l 1
 254.666666667 434 254 411.333333333 254 390 c 0
 254 304.666666667 272 237.333333333 308 188 c 128
 344 138.666666667 407 114 497 114 c 256
 573.666666667 114 635.333333333 128 682 156 c 128
 728.666666667 184 760.333333333 209.333333333 777 232 c 256
 800.333333333 263.333333333 821.333333333 270.333333333 840 253 c 9
 899 202 l 26
 911.666666667 190.666666667 909.666666667 172 893 146 c 256
 877.666666667 122 836.333333333 88.8333333333 769 46.5 c 128
 701.666666667 4.16666666667 603 -17 473 -17 c 256
 331 -17 228 24.1666666667 164 106.5 c 128
 100 188.833333333 68 285.333333333 68 396 c 0
275 588 m 1
 840 588 l 1
 844 615.333333333 846 642 846 668 c 0
 846 756 826.333333333 823.166666667 787 869.5 c 128
 747.666666667 915.833333333 690.333333333 939 615 939 c 256
 554.333333333 939 490.666666667 913.166666667 424 861.5 c 128
 357.333333333 809.833333333 307.666666667 718.666666667 275 588 c 1
EndSplineSet
Fore
SplineSet
68 396 m 256
 68 596 120.166666667 757.833333333 224.5 881.5 c 0
 328.833333333 1005.16666667 471.333333333 1067 652 1067 c 256
 755.333333333 1067 838.833333333 1037.5 902.5 978.5 c 0
 966.166666667 919.5 998 852.666666667 998 778 c 256
 998 679.333333333 950.833333333 606.666666667 856.5 560 c 0
 762.166666667 513.333333333 645.333333333 476 506 448 c 2
 260 399 l 1
 256 373.666666667 254 360.333333333 254 359 c 0
 254 293 272 235.666666667 308 187 c 0
 344 138.333333333 407 114 497 114 c 256
 573.666666667 114 635.333333333 128 682 156 c 0
 728.666666667 184 760.333333333 209.333333333 777 232 c 256
 800.333333333 263.333333333 821.333333333 270.333333333 840 253 c 9
 899 202 l 26
 911.666666667 190.666666667 909.666666667 172 893 146 c 256
 877.666666667 122 836.333333333 88.8333333333 769 46.5 c 0
 701.666666667 4.16666666667 603 -17 473 -17 c 256
 331 -17 228 24.1666666667 164 106.5 c 0
 100 188.833333333 68 285.333333333 68 396 c 256
265 538 m 1
 470 578 l 2
 563.333333333 596 645.333333333 620.833333333 716 652.5 c 0
 786.666666667 684.166666667 822 728.666666667 822 786 c 256
 822 831.333333333 801.5 867.833333333 760.5 895.5 c 0
 719.5 923.166666667 672.333333333 937 619 937 c 256
 538.333333333 937 466.5 906.333333333 403.5 845 c 0
 340.5 783.666666667 294.333333333 681.333333333 265 538 c 1
EndSplineSet
Validated: 524321
EndChar

StartChar: dotaccent
Encoding: 729 729 32
Width: 614
Flags: W
HStem: 1240 176<416.186 571.941>
VStem: 396 196
LayerCount: 2
Fore
SplineSet
430 1240 m 2
 400 1240 388.666666667 1255 396 1285 c 2
 416 1371 l 2
 422.666666667 1401 441 1416 471 1416 c 2
 557 1416 l 2
 587 1416 598.666666667 1401 592 1371 c 2
 572 1285 l 2
 564.666666667 1255 546 1240 516 1240 c 2
 430 1240 l 2
EndSplineSet
Validated: 524289
EndChar

StartChar: q
Encoding: 113 113 33
Width: 1119
Flags: W
HStem: -400 21G<619 735> -17 130<327.016 567.391> 937 130<481.158 798.824> 1030 20G<958.333 1069>
VStem: 70 186<191.965 632.081>
LayerCount: 2
Back
SplineSet
913 1005 m 6
 599 -355 l 1030
EndSplineSet
Fore
SplineSet
70 379 m 0xd8
 70 549 123.666666667 706.166666667 231 850.5 c 0
 338.333333333 994.833333333 464.666666667 1067 610 1067 c 256xe8
 684 1067 741.666666667 1055.83333333 783 1033.5 c 0
 824.333333333 1011.16666667 862 977.333333333 896 932 c 1
 898 932 l 1
 921 1005 l 2
 930.333333333 1035 946.666666667 1050 970 1050 c 2
 1054 1050 l 2
 1084 1050 1095.66666667 1035 1089 1005 c 2
 775 -355 l 6
 768.333333333 -385 750 -400 720 -400 c 6
 634 -400 l 6
 604 -400 592.333333333 -385 599 -355 c 6
 705 104 l 6
 711 128.666666667 716.333333333 149 721 165 c 5
 719 165 l 1
 689.666666667 112.333333333 644 68.8333333333 582 34.5 c 0
 520 0.166666666667 462.333333333 -17 409 -17 c 256
 282.333333333 -17 194.166666667 21.8333333333 144.5 99.5 c 0
 94.8333333333 177.166666667 70 270.333333333 70 379 c 0xd8
256 372 m 0
 256 302.666666667 271 242.166666667 301 190.5 c 0
 331 138.833333333 383.666666667 113 459 113 c 256
 524.333333333 113 590.833333333 152.166666667 658.5 230.5 c 0
 726.166666667 308.833333333 770.333333333 392 791 480 c 2
 856 760 l 17
 849.333333333 826.666666667 827.666666667 872.833333333 791 898.5 c 0
 754.333333333 924.166666667 698.666666667 937 624 937 c 256
 522.666666667 937 436 880.5 364 767.5 c 0
 292 654.5 256 522.666666667 256 372 c 0
EndSplineSet
Validated: 8912897
EndChar

StartChar: cyrbreve
Encoding: 63188 63188 38
Width: 1120
Flags: W
HStem: 1146 124<602.346 868.2> 1430 20G<448 552.667>
VStem: 409 166<1360 1449.3>
LayerCount: 2
Back
SplineSet
207 1405 m 2
 205 1435 220 1450 252 1450 c 2
 328 1450 l 2
 354.666666667 1450 369.666666667 1435 373 1405 c 2
 377 1371 l 2
 382.333333333 1326.33333333 401.666666667 1298.33333333 435 1287 c 128
 468.333333333 1275.66666667 510 1270 560 1270 c 256
 610 1270 651.666666667 1275.66666667 685 1287 c 128
 718.333333333 1298.33333333 737.666666667 1326.33333333 743 1371 c 2
 747 1405 l 2
 750.333333333 1435 765.333333333 1450 792 1450 c 2
 868 1450 l 2
 900 1450 915 1435 913 1405 c 2
 909 1344 l 2
 904.333333333 1277.33333333 865.833333333 1227.66666667 793.5 1195 c 128
 721.166666667 1162.33333333 643.333333333 1146 560 1146 c 256
 476.666666667 1146 398.833333333 1162.33333333 326.5 1195 c 128
 254.166666667 1227.66666667 215.666666667 1277.33333333 211 1344 c 2
 207 1405 l 2
EndSplineSet
Fore
SplineSet
409 1405 m 2
 412.333333333 1435 431 1450 465 1450 c 2
 541 1450 l 2
 564.333333333 1450 575.666666667 1435 575 1405 c 2
 574 1371 l 2
 572.666666667 1327 586.666666667 1299.16666667 616 1287.5 c 0
 645.333333333 1275.83333333 678.333333333 1270 715 1270 c 256
 778.333333333 1270 836.166666667 1289.33333333 888.5 1328 c 0
 940.833333333 1366.66666667 986 1405.33333333 1024 1444 c 256
 1042 1462.66666667 1059.66666667 1466.66666667 1077 1456 c 258
 1117 1432 l 258
 1134.33333333 1422 1131.33333333 1403.33333333 1108 1376 c 256
 1048 1306.66666667 987 1251 925 1209 c 0
 863 1167 780.333333333 1146 677 1146 c 256
 581.666666667 1146 510.666666667 1167 464 1209 c 0
 417.333333333 1251 397.333333333 1301.33333333 404 1360 c 2
 409 1405 l 2
EndSplineSet
Validated: 524321
EndChar

StartChar: afii10076
Encoding: 1082 1082 39
Width: 989
Flags: W
HStem: 0 21G<52 168 686.333 799> 482 132<340 460.466> 1030 20G<294 410 878 1019.67>
LayerCount: 2
Fore
SplineSet
67 0 m 2
 37 0 25.3333333333 15 32 45 c 2
 254 1005 l 2
 260.666666667 1035 279 1050 309 1050 c 2
 395 1050 l 2
 425 1050 436.666666667 1035 430 1005 c 2
 340 614 l 1
 381 614 l 2
 416.333333333 614 456 631.666666667 500 667 c 0
 544 702.333333333 577.666666667 733.333333333 601 760 c 2
 831 1024 l 2
 846.333333333 1041.33333333 866 1050 890 1050 c 2
 997 1050 l 2
 1042.33333333 1050 1046.66666667 1030.33333333 1010 991 c 2
 740 700 l 2
 722 680.666666667 690.166666667 653.5 644.5 618.5 c 0
 598.833333333 583.5 564.333333333 562 541 554 c 1
 540 552 l 1
 575.333333333 539.333333333 604.166666667 522.5 626.5 501.5 c 0
 648.833333333 480.5 671 441.333333333 693 384 c 2
 818 59 l 2
 833.333333333 19.6666666667 820 0 778 0 c 2
 698 0 l 2
 674.666666667 0 658.666666667 12.3333333333 650 37 c 2
 537 358 l 2
 519.666666667 408 494.666666667 441.166666667 462 457.5 c 0
 429.333333333 473.833333333 392.333333333 482 351 482 c 2
 309 482 l 1
 208 45 l 2
 201.333333333 15 183 0 153 0 c 2
 67 0 l 2
EndSplineSet
Validated: 524321
EndChar

StartChar: afii10072
Encoding: 1078 1078 40
Width: 1458
Flags: W
HStem: 0 21G<-49.3333 98 551 667 1156.33 1267.67> 482 132<542.404 632 839 938.136> 1030 20G<214.333 323.333 793 909 1346.67 1488.33>
LayerCount: 2
Back
SplineSet
1247 0 m 2
 1149 0 l 2
 1125 0 1108.84666667 12.3333333333 1100.54 37 c 2
 991.65 358 l 2
 973.296666667 411.333333333 952.813 445.333333333 930.199 460 c 128
 907.585 474.666666667 875.611333333 482 834.278 482 c 2
 808.278 482 l 1
 707.389 45 l 2
 700.463 15 682 0 652 0 c 2
 566 0 l 2
 536 0 524.463 15 531.389 45 c 2
 632.278 482 l 1
 606.278 482 l 2
 564.944666667 482 529.585 474.666666667 500.199 460 c 128
 470.813 445.333333333 434.63 411.333333333 391.65 358 c 2
 134.542 37 l 2
 114.847333333 12.3333333333 93 0 69 0 c 2
 -29 0 l 2
 -70.3333333333 0 -74.4596333333 19.6666666667 -41.3789 59 c 2
 229.653 384 l 2
 276.735666667 440.666666667 315.534666667 479.5 346.05 500.5 c 128
 376.564666667 521.5 410.027666667 538.666666667 446.439 552 c 1
 446.901 554 l 1
 419.415 562 396.237333333 580 377.368 608 c 128
 358.498666667 636 340.707 668.666666667 323.993 706 c 2
 196.79 991 l 2
 179.204 1030.33333333 192.411 1050 236.411 1050 c 2
 327.411 1050 l 2
 352.077666667 1050 367.743666667 1041.33333333 374.409 1024 c 2
 478.46 760 l 2
 488.611333333 734.666666667 508.864666667 704 539.22 668 c 128
 569.575333333 632 602.419666667 614 637.753 614 c 2
 662.753 614 l 1
 753.022 1005 l 2
 759.948666667 1035 778.412 1050 808.412 1050 c 2
 894.412 1050 l 2
 924.412 1050 935.948666667 1035 929.022 1005 c 2
 838.753 614 l 1
 863.753 614 l 2
 899.086333333 614 940.242 632 987.22 668 c 128
 1034.2 704 1068.61333333 734.666666667 1090.46 760 c 2
 1316.41 1024 l 2
 1331.07666667 1041.33333333 1350.74333333 1050 1375.41 1050 c 2
 1466.41 1050 l 2
 1510.41 1050 1514.53666667 1030.33333333 1478.79 991 c 2
 1219.99 706 l 2
 1186.03666667 668.666666667 1153.2 636.166666667 1121.48 608.5 c 128
 1089.76 580.833333333 1058.23333333 562.666666667 1026.9 554 c 1
 1026.44 552 l 1
 1056.54 538 1081.82 521.166666667 1102.28 501.5 c 128
 1122.74 481.833333333 1143.86333333 442.666666667 1165.65 384 c 2
 1286.62 59 l 2
 1301.54 19.6666666667 1288.33333333 0 1247 0 c 2
EndSplineSet
Fore
SplineSet
-29 0 m 2
 -69.6666666667 0 -73.6666666667 19.6666666667 -41 59 c 2
 230 384 l 2
 277.333333333 440.666666667 316.166666667 479.5 346.5 500.5 c 0
 376.833333333 521.5 410 538.666666667 446 552 c 1
 447 554 l 1
 419.666666667 562 396.5 580 377.5 608 c 0
 358.5 636 340.666666667 668.666666667 324 706 c 2
 197 991 l 2
 179.666666667 1030.33333333 192.666666667 1050 236 1050 c 2
 311 1050 l 2
 335.666666667 1050 351.333333333 1041.33333333 358 1024 c 2
 462 760 l 2
 471.333333333 736 494.166666667 705.666666667 530.5 669 c 0
 566.833333333 632.333333333 602.666666667 614 638 614 c 2
 663 614 l 1
 753 1005 l 2
 759.666666667 1035 778 1050 808 1050 c 2
 894 1050 l 2
 924 1050 935.666666667 1035 929 1005 c 2
 839 614 l 1
 864 614 l 2
 899.333333333 614 937.5 631.833333333 978.5 667.5 c 0
 1019.5 703.166666667 1051.33333333 734 1074 760 c 2
 1300 1024 l 2
 1314.66666667 1041.33333333 1334.33333333 1050 1359 1050 c 2
 1466 1050 l 2
 1510.66666667 1050 1515 1030.33333333 1479 991 c 2
 1220 706 l 2
 1192.66666667 676 1157.83333333 644.5 1115.5 611.5 c 0
 1073.16666667 578.5 1043.66666667 559.333333333 1027 554 c 1
 1026 552 l 1
 1056.66666667 538.666666667 1082.5 521.166666667 1103.5 499.5 c 0
 1124.5 477.833333333 1145.33333333 439.333333333 1166 384 c 2
 1287 59 l 2
 1301.66666667 19.6666666667 1288.33333333 0 1247 0 c 2
 1168 0 l 2
 1144.66666667 0 1128.66666667 12.3333333333 1120 37 c 2
 1010 358 l 2
 992 411.333333333 968.5 445.333333333 939.5 460 c 0
 910.5 474.666666667 875.333333333 482 834 482 c 2
 808 482 l 1
 707 45 l 2
 700.333333333 15 682 0 652 0 c 2
 566 0 l 2
 536 0 524.333333333 15 531 45 c 2
 632 482 l 1
 606 482 l 2
 564.666666667 482 532.333333333 474.666666667 509 460 c 0
 485.666666667 445.333333333 452.666666667 411.333333333 410 358 c 2
 152 37 l 2
 132 12.3333333333 110 0 86 0 c 2
 -29 0 l 2
EndSplineSet
Validated: 524321
EndChar

StartChar: afii10097
Encoding: 1103 1103 41
Width: 1084
Flags: W
HStem: 0 21G<-22 139.667 676 792> 432 130<537.967 746> 919 131<459.981 858>
VStem: 199 186<607.208 852.304>
LayerCount: 2
Back
SplineSet
1 0 m 2
 -45.6666666667 0 -49.7929666667 19.6666666667 -11.3789 59 c 2
 236.492 314 l 2
 260.033333333 338 292.139 365.166666667 332.809 395.5 c 128
 373.477666667 425.833333333 407.941 447.333333333 436.199 460 c 1
 436.661 462 l 1
 326.202333333 486 255.026333333 521.333333333 223.133 568 c 128
 191.240333333 614.666666667 184.759333333 679 203.69 761 c 256
 225.238666667 854.333333333 270.412666667 925.833333333 339.212 975.5 c 128
 408.011333333 1025.16666667 519.078 1050 672.412 1050 c 2
 1019.41 1050 l 2
 1049.41 1050 1060.94666667 1035 1054.02 1005 c 2
 832.389 45 l 2
 825.463 15 807 0 777 0 c 2
 691 0 l 2
 661 0 649.463 15 656.389 45 c 2
 745.735 432 l 1
 651.735 432 l 2
 606.401666667 432 566.823666667 420.833333333 533.001 398.5 c 128
 499.178333333 376.166666667 458.341333333 339.333333333 410.49 288 c 2
 176.542 37 l 2
 153.514 12.3333333333 131.666666667 0 111 0 c 2
 1 0 l 2
389.69 761 m 256
 371.067333333 680.333333333 384.588 627 430.252 601 c 128
 475.916 575 534.081333333 562 604.748 562 c 2
 775.748 562 l 1
 858.168 919 l 1
 688.168 919 l 2
 596.168 919 526.923333333 907.833333333 480.434 885.5 c 128
 433.944 863.166666667 403.696 821.666666667 389.69 761 c 256
EndSplineSet
Fore
SplineSet
1 0 m 2
 -45 0 -49 19.6666666667 -11 59 c 2
 236 314 l 2
 256.666666667 335.333333333 288.5 363 331.5 397 c 0
 374.5 431 409.333333333 452 436 460 c 1
 437 462 l 1
 344.333333333 479.333333333 281.5 510.666666667 248.5 556 c 0
 215.5 601.333333333 199 653.666666667 199 713 c 256
 199 820.333333333 235.5 903.333333333 308.5 962 c 0
 381.5 1020.66666667 496 1050 652 1050 c 2
 1019 1050 l 2
 1049 1050 1060.66666667 1035 1054 1005 c 2
 832 45 l 2
 825.333333333 15 807 0 777 0 c 2
 691 0 l 2
 661 0 649.333333333 15 656 45 c 2
 746 432 l 1
 662 432 l 2
 624.666666667 432 588.166666667 420.666666667 552.5 398 c 0
 516.833333333 375.333333333 475.333333333 338.666666667 428 288 c 2
 195 37 l 2
 172.333333333 12.3333333333 150.333333333 0 129 0 c 2
 1 0 l 2
385 728 m 256
 385 662.666666667 405.166666667 618.666666667 445.5 596 c 0
 485.833333333 573.333333333 545.666666667 562 625 562 c 2
 776 562 l 1
 858 919 l 1
 668 919 l 2
 573.333333333 919 502.5 903.833333333 455.5 873.5 c 0
 408.5 843.166666667 385 794.666666667 385 728 c 256
EndSplineSet
Validated: 524289
EndChar

StartChar: afii10096
Encoding: 1102 1102 42
Width: 1559
Flags: W
HStem: -17 130<754.818 1072.41> 0 21G<52 168> 482 132<340 483> 937 130<895.352 1215.18> 1030 20G<294 410>
VStem: 479 186<207.174 573.292> 1305 186<391.407 842.826>
LayerCount: 2
Back
SplineSet
479 402 m 0
 479 578 533.5 732.833333333 642.5 866.5 c 128
 751.5 1000.16666667 894.333333333 1067 1071 1067 c 256
 1227 1067 1336 1022.16666667 1398 932.5 c 128
 1460 842.833333333 1491 748 1491 648 c 0
 1491 472 1436.5 317.166666667 1327.5 183.5 c 128
 1218.5 49.8333333333 1075.66666667 -17 899 -17 c 256
 743 -17 634 27.8333333333 572 117.5 c 128
 510 207.166666667 479 302 479 402 c 0
665 387 m 0
 665 303.666666667 684.5 237.166666667 723.5 187.5 c 128
 762.5 137.833333333 825.333333333 113 912 113 c 256
 1016 113 1107.5 160.166666667 1186.5 254.5 c 128
 1265.5 348.833333333 1305 485 1305 663 c 0
 1305 746.333333333 1285.5 812.833333333 1246.5 862.5 c 128
 1207.5 912.166666667 1144.66666667 937 1058 937 c 256
 954 937 862.5 889.833333333 783.5 795.5 c 128
 704.5 701.166666667 665 565 665 387 c 0
67 0 m 2
 37 0 25.4629 15 32.3887 45 c 2
 254.022 1005 l 2
 260.948 1035 279.411 1050 309.411 1050 c 2
 395.411 1050 l 2
 425.411 1050 436.948 1035 430.022 1005 c 2
 339.753 614 l 1
 523.753 614 l 1
 553.712333333 720.666666667 619.132666667 822.833333333 720.014 920.5 c 128
 820.895333333 1018.16666667 951.337333333 1067 1111.34 1067 c 256
 1271.34 1067 1381.02666667 1015.83333333 1440.4 913.5 c 128
 1499.77333333 811.166666667 1511.37666667 681.666666667 1475.21 525 c 256
 1439.03666667 368.333333333 1367.63666667 238.833333333 1261.01 136.5 c 128
 1154.39 34.1666666667 1021.07833333 -17 861.075 -17 c 256
 701.075 -17 592.413333333 32.8333333333 535.09 132.5 c 128
 477.766 232.166666667 462.162 348.666666667 488.278 482 c 1
 309.278 482 l 1
 208.389 45 l 2
 201.463 15 183 0 153 0 c 2
 67 0 l 2
683.206 525 m 256
 650.884666667 385 654.618 281.333333333 694.406 214 c 128
 734.194 146.666666667 799.754666667 113 891.088 113 c 256
 982.422666667 113 1063.53 146.666666667 1134.41 214 c 128
 1205.28333333 281.333333333 1256.88333333 385 1289.21 525 c 256
 1321.53 665 1317.79666667 768.666666667 1278.01 836 c 128
 1238.21666667 903.333333333 1172.65333333 937 1081.32 937 c 256
 989.988666667 937 908.884 903.333333333 838.006 836 c 128
 767.127333333 768.666666667 715.527333333 665 683.206 525 c 256
EndSplineSet
Fore
SplineSet
67 0 m 2x66
 37 0 25.3333333333 15 32 45 c 2
 254 1005 l 2
 260.666666667 1035 279 1050 309 1050 c 2
 395 1050 l 2x6e
 425 1050 436.666666667 1035 430 1005 c 2
 340 614 l 1
 508 614 l 1
 530 710 588.833333333 809.5 684.5 912.5 c 0
 780.166666667 1015.5 909 1067 1071 1067 c 256
 1227 1067 1336 1022.16666667 1398 932.5 c 0
 1460 842.833333333 1491 748 1491 648 c 256
 1491 472 1436.5 317.166666667 1327.5 183.5 c 0
 1218.5 49.8333333333 1075.66666667 -17 899 -17 c 256xb6
 743 -17 634 27.8333333333 572 117.5 c 0
 510 207.166666667 479 302 479 402 c 256
 479 429.333333333 480.333333333 456 483 482 c 1
 309 482 l 1
 208 45 l 2
 201.333333333 15 183 0 153 0 c 2
 67 0 l 2x66
665 387 m 256
 665 303.666666667 684.5 237.166666667 723.5 187.5 c 0
 762.5 137.833333333 825.333333333 113 912 113 c 256
 1016 113 1107.5 160.166666667 1186.5 254.5 c 0
 1265.5 348.833333333 1305 485 1305 663 c 256
 1305 746.333333333 1285.5 812.833333333 1246.5 862.5 c 0
 1207.5 912.166666667 1144.66666667 937 1058 937 c 256xb6
 954 937 862.5 889.833333333 783.5 795.5 c 0
 704.5 701.166666667 665 565 665 387 c 256
EndSplineSet
Validated: 8912897
EndChar

StartChar: afii10066
Encoding: 1073 1073 43
Width: 1148
Flags: HMW
HStem: -17 130<343.995 661.414> 937 130<484.473 804.182> 1494 20G<1098 1156.5>
VStem: 74 180<206.771 664.761> 894 186<391.407 842.826>
LayerCount: 2
Back
SplineSet
68 402 m 0
 68 578 122.5 732.833333333 231.5 866.5 c 128
 340.5 1000.16666667 483.333333333 1067 660 1067 c 256
 816 1067 925 1022.16666667 987 932.5 c 128
 1049 842.833333333 1080 748 1080 648 c 0
 1080 472 1025.5 317.166666667 916.5 183.5 c 128
 807.5 49.8333333333 664.666666667 -17 488 -17 c 256
 332 -17 223 27.8333333333 161 117.5 c 128
 99 207.166666667 68 302 68 402 c 0
254 387 m 0
 254 303.666666667 273.5 237.166666667 312.5 187.5 c 128
 351.5 137.833333333 414.333333333 113 501 113 c 256
 605 113 696.5 160.166666667 775.5 254.5 c 128
 854.5 348.833333333 894 485 894 663 c 0
 894 746.333333333 874.5 812.833333333 835.5 862.5 c 128
 796.5 912.166666667 733.666666667 937 647 937 c 256
 543 937 451.5 889.833333333 372.5 795.5 c 128
 293.5 701.166666667 254 565 254 387 c 0
107.521 600 m 256
 125.067 676 152.178333333 766 188.855 870 c 128
 225.532333333 974 265.476666667 1057.5 308.688 1120.5 c 128
 351.899333333 1183.5 394.391333333 1234 436.164 1272 c 128
 477.937333333 1310 530.902666667 1344.5 595.06 1375.5 c 128
 659.216666667 1406.5 724.577333333 1424.66666667 791.142 1430 c 256
 872.014 1436.66666667 930.860333333 1440.33333333 967.681 1441 c 128
 1004.50033333 1441.66666667 1039.29666667 1448 1072.07 1460 c 256
 1100.53 1470.66666667 1119.05666667 1482.33333333 1127.65 1495 c 128
 1136.23666667 1507.66666667 1151.86333333 1514 1174.53 1514 c 10
 1198.53 1514 l 18
 1221.86333333 1514 1230.83666667 1502.33333333 1225.45 1479 c 256
 1217.29666667 1443.66666667 1194.61666667 1407.5 1157.41 1370.5 c 128
 1120.19666667 1333.5 1066.71833333 1308.33333333 996.975 1295 c 256
 966.255666667 1289 921.434666667 1284 862.512 1280 c 128
 803.588 1276 751.792333333 1271.83333333 707.125 1267.5 c 128
 662.458333333 1263.16666667 621.380666667 1252 583.892 1234 c 0
 436.038666667 1165.33333333 331.332333333 1028 269.773 822 c 1
 276.851 818 l 17
 301.573666667 867.333333333 353.002 921.166666667 431.136 979.5 c 128
 509.269333333 1037.83333333 599.002666667 1067 700.336 1067 c 256
 860.336 1067 970.024 1015.83333333 1029.4 913.5 c 128
 1088.77333333 811.166666667 1100.37666667 681.666666667 1064.21 525 c 256
 1028.03666667 368.333333333 956.638 238.833333333 850.014 136.5 c 128
 743.388 34.1666666667 610.075 -17 450.075 -17 c 256
 279.408333333 -17 169.029333333 39.8333333333 118.938 153.5 c 128
 68.8472 267.166666667 65.0415333333 416 107.521 600 c 256
272.206 525 m 256
 239.884666667 385 243.618 281.333333333 283.406 214 c 128
 323.194 146.666666667 388.754666667 113 480.088 113 c 256
 571.421333333 113 652.527333333 146.666666667 723.406 214 c 128
 794.284666667 281.333333333 845.884666667 385 878.206 525 c 256
 910.527333333 665 906.794 768.666666667 867.006 836 c 128
 827.217333333 903.333333333 761.656333333 937 670.323 937 c 256
 578.989666667 937 497.884 903.333333333 427.006 836 c 128
 356.127333333 768.666666667 304.527333333 665 272.206 525 c 256
EndSplineSet
Fore
SplineSet
74 452 m 256
 74 552 96.8333333333 672.666666667 142.5 814 c 128
 188.166666667 955.333333333 230.833333333 1057.5 270.5 1120.5 c 128
 310.166666667 1183.5 349.833333333 1234 389.5 1272 c 128
 429.166666667 1310 480.333333333 1344.5 543 1375.5 c 128
 605.666666667 1406.5 670 1424.66666667 736 1430 c 256
 816.666666667 1436.66666667 875.333333333 1440.33333333 912 1441 c 128
 948.666666667 1441.66666667 983 1448 1015 1460 c 256
 1043 1470.66666667 1061 1482.33333333 1069 1495 c 128
 1077 1507.66666667 1092.33333333 1514 1115 1514 c 266
 1139 1514 l 274
 1162.33333333 1514 1172 1502.33333333 1168 1479 c 256
 1161.33333333 1443.66666667 1140.5 1407.5 1105.5 1370.5 c 128
 1070.5 1333.5 1018.33333333 1308.33333333 949 1295 c 256
 919 1289 874.666666667 1284 816 1280 c 128
 757.333333333 1276 705.166666667 1271.83333333 659.5 1267.5 c 128
 613.833333333 1263.16666667 574 1252 540 1234 c 256
 408.666666667 1165.33333333 313.333333333 1028 254 822 c 1
 261 818 l 17
 275.666666667 856.666666667 323.5 907.833333333 404.5 971.5 c 128
 485.5 1035.16666667 570.666666667 1067 660 1067 c 256
 816 1067 925 1022.16666667 987 932.5 c 128
 1049 842.833333333 1080 748 1080 648 c 256
 1080 472 1025.5 317.166666667 916.5 183.5 c 128
 807.5 49.8333333333 664.666666667 -17 488 -17 c 256
 332 -17 224 27.5 164 116.5 c 128
 104 205.5 74 317.333333333 74 452 c 256
254 387 m 256
 254 303.666666667 273.5 237.166666667 312.5 187.5 c 128
 351.5 137.833333333 414.333333333 113 501 113 c 256
 605 113 696.5 160.166666667 775.5 254.5 c 128
 854.5 348.833333333 894 485 894 663 c 256
 894 746.333333333 874.5 812.833333333 835.5 862.5 c 128
 796.5 912.166666667 733.666666667 937 647 937 c 256
 543 937 451.5 889.833333333 372.5 795.5 c 128
 293.5 701.166666667 254 565 254 387 c 256
EndSplineSet
Validated: 524289
EndChar

StartChar: afii10095
Encoding: 1101 1101 45
Width: 1026
Flags: W
HStem: -17 130<211.192 544.241> 482 130<273.325 756> 937 130<334.984 683.273>
VStem: 772 186<612 844.174>
LayerCount: 2
Back
SplineSet
-54 402 m 0
 -54 578 0.5 732.833333333 109.5 866.5 c 128
 218.5 1000.16666667 361.333333333 1067 538 1067 c 256
 694 1067 803 1022.16666667 865 932.5 c 128
 927 842.833333333 958 748 958 648 c 0
 958 472 903.5 317.166666667 794.5 183.5 c 128
 685.5 49.8333333333 542.666666667 -17 366 -17 c 256
 210 -17 101 27.8333333333 39 117.5 c 128
 -23 207.166666667 -54 302 -54 402 c 0
132 387 m 0
 132 303.666666667 151.5 237.166666667 190.5 187.5 c 128
 229.5 137.833333333 292.333333333 113 379 113 c 256
 483 113 574.5 160.166666667 653.5 254.5 c 128
 732.5 348.833333333 772 485 772 663 c 0
 772 746.333333333 752.5 812.833333333 713.5 862.5 c 128
 674.5 912.166666667 611.666666667 937 525 937 c 256
 421 937 329.5 889.833333333 250.5 795.5 c 128
 171.5 701.166666667 132 565 132 387 c 0
-6.83105 148 m 256
 -18.93195 170.666666667 -14.0328633333 189 7.86621 203 c 257
 77.7168 250 l 258
 104.524933333 268.038 123.729333333 261.704666667 135.33 231 c 257
 149.481333333 197 171.978666667 168.833333333 202.822 146.5 c 128
 233.666 124.166666667 289.088 113 369.088 113 c 256
 463.754666667 113 542.001 141.5 603.827 198.5 c 128
 665.653 255.5 713.47 350 747.278 482 c 1
 299.278 482 l 2
 269.278 482 256.971333333 493.666666667 262.358 517 c 2
 276.211 577 l 2
 281.598333333 600.333333333 299.291666667 612 329.291 612 c 2
 773.291 612 l 1
 796.378333333 712 788.488666667 791.166666667 749.622 849.5 c 128
 710.756 907.833333333 647.323 937 559.323 937 c 256
 491.323 937 435.399 926.5 391.551 905.5 c 128
 347.703 884.5 314.085333333 862.333333333 290.698 839 c 256
 260.592666667 809.666666667 238.130666667 803.333333333 223.312 820 c 258
 178.855 870 l 258
 164.594333333 886.039333333 172.519666667 907.372666667 202.631 934 c 256
 234.428333333 962 282.328666667 991.166666667 346.332 1021.5 c 128
 410.334666667 1051.83333333 491.336 1067 589.336 1067 c 256
 752.669333333 1067 862.485333333 1020 918.784 926 c 128
 975.081333333 832 983.222 698.333333333 943.206 525 c 256
 903.188666667 351.666666667 833.329333333 218 733.628 124 c 128
 633.926 30 502.408333333 -17 339.075 -17 c 256
 213.741666667 -17 128.474466667 3.5 83.2734 44.5 c 128
 38.0722666667 85.5 8.03745 120 -6.83105 148 c 256
EndSplineSet
Fore
SplineSet
16 154 m 256
 4 178 6.33333333333 196 23 208 c 258
 79 249 l 258
 99 263.666666667 119.333333333 255.666666667 140 225 c 256
 157.333333333 199 184.666666667 173.833333333 222 149.5 c 0
 259.333333333 125.166666667 308.333333333 113 369 113 c 256
 466.333333333 113 549.166666667 145.333333333 617.5 210 c 0
 685.833333333 274.666666667 732 365.333333333 756 482 c 1
 298 482 l 2
 268 482 255.666666667 493.666666667 261 517 c 2
 275 577 l 2
 280.333333333 600.333333333 298 612 328 612 c 2
 772 612 l 1
 780.666666667 708.666666667 765.5 787 726.5 847 c 0
 687.5 907 620 937 524 937 c 256
 466.666666667 937 415.333333333 927.5 370 908.5 c 0
 324.666666667 889.5 291.333333333 868.666666667 270 846 c 256
 247.333333333 822 229.333333333 816.333333333 216 829 c 258
 164 876 l 258
 142.666666667 894.666666667 144 916.333333333 168 941 c 256
 201.333333333 976.333333333 250 1006.16666667 314 1030.5 c 0
 378 1054.83333333 452.333333333 1067 537 1067 c 256
 687 1067 794.666666667 1025.33333333 860 942 c 0
 925.333333333 858.666666667 958 759.666666667 958 645 c 256
 958 474.333333333 904.666666667 321.333333333 798 186 c 0
 691.333333333 50.6666666667 544 -17 356 -17 c 256
 256 -17 178.666666667 2.5 124 41.5 c 0
 69.3333333333 80.5 33.3333333333 118 16 154 c 256
EndSplineSet
Validated: 524321
EndChar

StartChar: afii10073
Encoding: 1079 1079 46
Width: 982
Flags: W
HStem: -17 130<215.809 558.134> 483 130<309.259 626.687> 937 130<330.6 675.544>
VStem: 666 186<214.085 444.024> 730 176<690.394 890.074>
LayerCount: 2
Back
SplineSet
-2 0 m 6
 -32 0 -43.6666666667 15 -37 45 c 6
 185 1005 l 6
 191.666666667 1035 210 1050 240 1050 c 6
 543 1050 l 6
 696.333333333 1050 795.166666667 1026.66666667 839.5 980 c 132
 883.833333333 933.333333333 906 877.666666667 906 813 c 260
 906 753.666666667 885.833333333 700.666666667 845.5 654 c 132
 805.166666667 607.333333333 752 573.333333333 686 552 c 5
 686 551 l 5
 752 527.666666667 795.666666667 498.333333333 817 463 c 132
 838.333333333 427.666666667 849 384 849 332 c 260
 849 254.666666667 812.333333333 180 739 108 c 132
 665.666666667 36 549.666666667 0 391 0 c 6
 -2 0 l 6
159 131 m 5
 375 131 l 6
 463 131 533 147.666666667 585 181 c 132
 637 214.333333333 663 271.333333333 663 352 c 260
 663 406.666666667 637.666666667 440.666666667 587 454 c 132
 536.333333333 467.333333333 478.666666667 474 414 474 c 6
 238 474 l 5
 159 131 l 5
269 605 m 5
 445 605 l 6
 537 605 607.5 625.5 656.5 666.5 c 132
 705.5 707.5 730 747 730 785 c 260
 730 841.666666667 710.166666667 878.333333333 670.5 895 c 132
 630.833333333 911.666666667 566.333333333 920 477 920 c 6
 341 920 l 5
 269 605 l 5
16 154 m 256
 4 178 6.33333333333 196 23 208 c 258
 79 249 l 258
 99 263.666666667 119.333333333 255.666666667 140 225 c 256
 157.333333333 199 184.666666667 173.833333333 222 149.5 c 128
 259.333333333 125.166666667 308.333333333 113 369 113 c 256
 466.333333333 113 549.166666667 145.333333333 617.5 210 c 128
 685.833333333 274.666666667 732 365.333333333 756 482 c 1
 298 482 l 2
 268 482 255.666666667 493.666666667 261 517 c 2
 275 577 l 2
 280.333333333 600.333333333 298 612 328 612 c 2
 772 612 l 1
 780.666666667 708.666666667 765.5 787 726.5 847 c 128
 687.5 907 620 937 524 937 c 256
 466.666666667 937 415.333333333 927.5 370 908.5 c 128
 324.666666667 889.5 291.333333333 868.666666667 270 846 c 256
 247.333333333 822 229.333333333 816.333333333 216 829 c 258
 164 876 l 258
 142.666666667 894.666666667 144 916.333333333 168 941 c 256
 201.333333333 976.333333333 250 1006.16666667 314 1030.5 c 128
 378 1054.83333333 452.333333333 1067 537 1067 c 256
 687 1067 794.666666667 1025.33333333 860 942 c 128
 925.333333333 858.666666667 958 759.666666667 958 645 c 256
 958 474.333333333 904.666666667 321.333333333 798 186 c 128
 691.333333333 50.6666666667 544 -17 356 -17 c 256
 256 -17 178.666666667 2.5 124 41.5 c 128
 69.3333333333 80.5 33.3333333333 118 16 154 c 256
EndSplineSet
Fore
SplineSet
27 119 m 256xf0
 9.66666666667 141 10.3333333333 159.333333333 29 174 c 2
 89 223 l 2
 107 237.666666667 124.666666667 234.333333333 142 213 c 256
 152 201 178.5 181.333333333 221.5 154 c 0
 264.5 126.666666667 319.333333333 113 386 113 c 256
 474 113 542.666666667 135.833333333 592 181.5 c 0
 641.333333333 227.166666667 666 277.666666667 666 333 c 256xf0
 666 392.333333333 646.666666667 432.166666667 608 452.5 c 0
 569.333333333 472.833333333 515.666666667 483 447 483 c 2
 333 483 l 2
 303 483 290.666666667 494.666666667 296 518 c 2
 309 578 l 2
 314.333333333 601.333333333 332.333333333 613 363 613 c 2
 464 613 l 2
 545.333333333 613 610 630.666666667 658 666 c 0
 706 701.333333333 730 746 730 800 c 256
 730 842 711 875.333333333 673 900 c 0
 635 924.666666667 580 937 508 937 c 256
 461.333333333 937 417.666666667 929.166666667 377 913.5 c 0
 336.333333333 897.833333333 306.666666667 881.333333333 288 864 c 256
 264 841.333333333 245.666666667 836 233 848 c 2
 183 896 l 2
 161.666666667 916.666666667 164 938.666666667 190 962 c 256
 222 991.333333333 264 1016.16666667 316 1036.5 c 0
 368 1056.83333333 444 1067 544 1067 c 256
 674.666666667 1067 767.666666667 1042.16666667 823 992.5 c 0
 878.333333333 942.833333333 906 885 906 819 c 256xe8
 906 737 878.5 674 823.5 630 c 0
 768.5 586 723.333333333 559.666666667 688 551 c 1
 688 548 l 1
 737.333333333 537.333333333 777 513.5 807 476.5 c 0
 837 439.5 852 388.666666667 852 324 c 256
 852 236 810 157.166666667 726 87.5 c 0
 642 17.8333333333 529 -17 387 -17 c 256
 275 -17 190 1.83333333333 132 39.5 c 0
 74 77.1666666667 39 103.666666667 27 119 c 256xf0
EndSplineSet
Validated: 8912929
EndChar

StartChar: afii10078
Encoding: 1084 1084 47
Width: 1422
Flags: W
HStem: 0 21G<51.8646 167.857 541.593 640.324 1029 1129.86> 1030 20G<294.135 499.483 1146.5 1372.14>
LayerCount: 2
Back
SplineSet
263 991 m 2
 251.666666667 1023.66666667 260.666666667 1040 290 1040 c 2
 399 1040 l 2
 420.333333333 1040 435.333333333 1027 444 1001 c 2
 656 351 l 2
 667.333333333 316.333333333 677.666666667 284 687 254 c 128
 696.333333333 224 703.666666667 194 709 164 c 1
 713 164 l 1
 718.333333333 194 725.666666667 224 735 254 c 128
 744.333333333 284 754.666666667 316.333333333 766 351 c 2
 978 1001 l 2
 986.666666667 1027 1001.66666667 1040 1023 1040 c 2
 1132 1040 l 2
 1161.33333333 1040 1170.33333333 1023.66666667 1159 991 c 2
 831 61 l 2
 816.333333333 20.3333333333 798.333333333 0 777 0 c 2
 645 0 l 2
 623.666666667 0 605.666666667 20.3333333333 591 61 c 2
 263 991 l 2
EndSplineSet
Fore
SplineSet
67 0 m 2
 36.7292 0 25.0625333333 15 32 45 c 2
 254 1005 l 2
 260.937333333 1035 279.270666667 1050 309 1050 c 2
 489 1050 l 2
 509.966666667 1050 521.966666667 1037 525 1011 c 2
 602 351 l 2
 603.333333333 337 606.333333333 311.333333333 611 274 c 0
 615.666666667 236.666666667 618 201.333333333 618 168 c 1
 622 168 l 1
 638 201.333333333 656.666666667 236.666666667 678 274 c 0
 710 330 710 330 722 351 c 2
 1103 1011 l 2
 1118.00666667 1037 1136.00666667 1050 1157 1050 c 2
 1357 1050 l 2
 1387.27333333 1050 1398.94 1035 1392 1005 c 2
 1170 45 l 2
 1163.06 15 1144.72666667 0 1115 0 c 2
 1029 0 l 2
 998.713333333 -4.99906666667e-05 987.046666667 14.9999500093 994 45 c 2
 1169 800 l 2
 1173.53333333 819.546666667 1178.86666667 839.546666667 1185 860 c 9
 1183 860 l 25
 698 61 l 2
 673.314666667 20.3333333333 650.648 0 630 0 c 2
 552 0 l 2
 531.186666667 2.47678666667e-06 517.853333333 20.3333358101 512 61 c 2
 397 860 l 25
 395 860 l 17
 391.746 840.474666667 387.746 820.474666667 383 800 c 2
 208 45 l 2
 201.046666667 15 182.713333333 0 153 0 c 2
 67 0 l 2
EndSplineSet
Validated: 524289
EndChar

StartChar: k
Encoding: 107 107 48
Width: 1003
Flags: W
HStem: 0 21G<52 167.667 700 813.333> 1030 20G<878.667 1025.67> 1456 20G<392.667 508.667>
LayerCount: 2
Back
SplineSet
67 0 m 2
 36.7402666667 0 25.0736 15 32 45 c 2
 352 1431 l 2
 358.926666667 1461 377.593333333 1476 408 1476 c 2
 494 1476 l 2
 523.59 1476 534.923333333 1461 528 1431 c 2
 336 599 l 2
 331.555333333 579.740666667 326.222 559.740666667 320 539 c 1
 322 539 l 1
 830 1024 l 2
 848.155333333 1041.33333333 867.822 1050 889 1050 c 2
 1000 1050 l 2
 1051 1050 1055.33333333 1030.33333333 1013 991 c 2
 604 611 l 1
 832 59 l 2
 848.246666667 19.6666666667 834.913333333 0 792 0 c 2
 694 0 l 2
 671.182 -8.1862e-06 655.182 12.3333251471 646 37 c 2
 477 491 l 1
 269 306 l 1
 208 45 l 2
 200.988666667 15 182.655333333 0 153 0 c 2
 67 0 l 2
849.694 16 m 10
 617.673 579 l 1049
1055.58 1234 m 10
 322.438 549 l 1049
1001.79 981 m 10
 268.646 296 l 1049
671.694 16 m 14
 439.673 579 l 1053
EndSplineSet
Fore
SplineSet
67 0 m 2
 37 0 25.3333333333 15 32 45 c 2
 352 1431 l 2
 358.666666667 1461 377.333333333 1476 408 1476 c 2
 494 1476 l 2
 523.333333333 1476 534.666666667 1461 528 1431 c 2
 339 611 l 2
 334.333333333 591.666666667 329 571.666666667 323 551 c 1
 325 551 l 1
 830 1024 l 2
 848.666666667 1041.33333333 868.333333333 1050 889 1050 c 2
 1000 1050 l 2
 1051.33333333 1050 1055.66666667 1030.33333333 1013 991 c 2
 604 611 l 1
 832 59 l 2
 848 19.6666666667 834.666666667 0 792 0 c 2
 711 0 l 2
 689 0 673 12.3333333333 663 37 c 2
 477 491 l 1
 266 293 l 1
 208 45 l 2
 200.666666667 15 182.333333333 0 153 0 c 2
 67 0 l 2
EndSplineSet
Validated: 524321
EndChar

StartChar: f
Encoding: 102 102 49
Width: 652
Flags: W
HStem: -400 21G<15 131> 918 132<157.325 289 495 702.675> 1336 150<725.155 899.984> 1363 130<593.714 916.451>
LayerCount: 2
Back
SplineSet
555 1475 m 256
 680.333333333 1475 743 1460 743 1430 c 2
 743 1346 l 2
 743 1324 736 1313 722 1313 c 0
 717.333333333 1313 697.166666667 1317.83333333 661.5 1327.5 c 128
 625.833333333 1337.16666667 592.166666667 1342 560.5 1342 c 256
 528.833333333 1342 501.5 1339.33333333 478.5 1334 c 0
 437.304 1324.44666667 411.088333333 1309.72666667 399.853 1289.84 c 128
 388.617666667 1269.94666667 383 1246.66666667 383 1220 c 2
 383 1040 l 1
 567 1040 l 2
 587 1040 599.833333333 1035.83333333 605.5 1027.5 c 128
 611.166666667 1019.16666667 614 1004.33333333 614 983 c 2
 614 967 l 2
 614 943.666666667 609.166666667 929.166666667 599.5 923.5 c 128
 589.833333333 917.833333333 577.666666667 915 563 915 c 2
 385 915 l 1
 385 63 l 6
 385 36.3333333333 381.166666667 19.1666666667 373.5 11.5 c 132
 365.833333333 3.83333333333 350 0 326 0 c 6
 248 0 l 6
 231.333333333 2 220.666666667 7.5 216 16.5 c 132
 211.333333333 25.5 209 39 209 57 c 6
 209 915 l 1
 108 915 l 2
 90 915 77 918.333333333 69 925 c 128
 61 931.666666667 57 947 57 971 c 2
 57 990 l 2
 57 1011.33333333 61.3333333333 1025 70 1031 c 128
 78.6666666667 1037 92 1040 110 1040 c 2
 209 1040 l 1
 209 1139 l 1
 208 1179 l 2
 208 1368.33333333 323.666666667 1467 555 1475 c 256
EndSplineSet
Fore
SplineSet
182 918 m 2xd0
 152 918 139.666666667 929.666666667 145 953 c 2
 159 1015 l 2
 164.333333333 1038.33333333 182 1050 212 1050 c 2
 319 1050 l 1
 354 1199 l 2
 379.333333333 1310.33333333 427 1387.16666667 497 1429.5 c 0
 567 1471.83333333 640.666666667 1493 718 1493 c 256xd0
 764 1493 800.5 1490.66666667 827.5 1486 c 0
 854.5 1481.33333333 885.666666667 1471 921 1455 c 256
 934.333333333 1449 936.333333333 1438.33333333 927 1423 c 2
 877 1344 l 2
 869 1330.66666667 856.666666667 1328 840 1336 c 256xe0
 827.333333333 1342.66666667 811 1348.83333333 791 1354.5 c 0
 771 1360.16666667 748.666666667 1363 724 1363 c 256
 668.666666667 1363 625.666666667 1349.66666667 595 1323 c 0
 564.333333333 1296.33333333 540.333333333 1245.33333333 523 1170 c 2
 495 1050 l 1
 678 1050 l 2
 708 1050 720.333333333 1038.33333333 715 1015 c 2
 701 953 l 2
 695.666666667 929.666666667 678 918 648 918 c 2
 465 918 l 1
 171 -355 l 2
 164.333333333 -385 146 -400 116 -400 c 2
 30 -400 l 2
 0 -400 -11.6666666667 -385 -5 -355 c 2
 289 918 l 1
 182 918 l 2xd0
EndSplineSet
Validated: 524289
EndChar

StartChar: t
Encoding: 116 116 50
Width: 757
Flags: W
HStem: -17 130<278.667 546.691> 918 132<158.325 301 507 744.675>
VStem: 470 96<1305 1340>
LayerCount: 2
Fore
SplineSet
183 918 m 2
 153 918 140.666666667 929.666666667 146 953 c 2
 160 1015 l 2
 165.333333333 1038.33333333 183 1050 213 1050 c 2
 331 1050 l 1
 352 1140 l 2
 355.333333333 1152.66666667 361.666666667 1165.33333333 371 1178 c 2
 470 1305 l 2
 488 1328.33333333 501 1340 509 1340 c 2
 544 1340 l 2
 564 1340 571.333333333 1328.33333333 566 1305 c 2
 507 1050 l 1
 720 1050 l 2
 750 1050 762.333333333 1038.33333333 757 1015 c 2
 743 953 l 2
 737.666666667 929.666666667 720 918 690 918 c 2
 477 918 l 1
 330 281 l 2
 314 211 314.166666667 165.5 330.5 144.5 c 0
 346.833333333 123.5 366.666666667 113 390 113 c 256
 420.666666667 113 452.333333333 118.833333333 485 130.5 c 0
 517.666666667 142.166666667 539.666666667 151.666666667 551 159 c 256
 565.666666667 168.333333333 575.333333333 166.333333333 580 153 c 2
 606 81 l 2
 610 69 606.333333333 59.3333333333 595 52 c 256
 567.666666667 34.6666666667 527.833333333 18.8333333333 475.5 4.5 c 16
 423.166666667 -9.83333333333 367.333333333 -17 308 -17 c 256
 249.333333333 -17 203.166666667 8 169.5 58 c 0
 135.833333333 108 129.666666667 178.666666667 151 270 c 2
 301 918 l 1
 183 918 l 2
EndSplineSet
Validated: 524321
EndChar

StartChar: l
Encoding: 108 108 51
Width: 460
Flags: W
HStem: 0 21G<52 168> 1473 20G<474 523>
VStem: 439 96<1458 1493>
LayerCount: 2
Fore
SplineSet
67 0 m 2
 37 0 25.3333333333 15 32 45 c 2
 321 1293 l 2
 323.666666667 1306.33333333 329.666666667 1319 339 1331 c 2
 439 1458 l 2
 457 1481.33333333 470 1493 478 1493 c 2
 513 1493 l 2
 533 1493 540.333333333 1481.33333333 535 1458 c 2
 208 45 l 2
 201.333333333 15 183 0 153 0 c 2
 67 0 l 2
EndSplineSet
Validated: 524289
EndChar

StartChar: I
Encoding: 73 73 52
Width: 532
Flags: W
HStem: 0 21G<83.3333 208.667> 1414 20G<414.333 539.667>
VStem: 63 497
LayerCount: 2
Fore
SplineSet
100 0 m 2
 66.6666666667 0 54.3333333333 18.3333333333 63 55 c 2
 368 1379 l 2
 376.666666667 1415.66666667 397.666666667 1434 431 1434 c 2
 523 1434 l 2
 556.333333333 1434 568.666666667 1415.66666667 560 1379 c 2
 255 55 l 2
 246.333333333 18.3333333333 225.333333333 0 192 0 c 2
 100 0 l 2
EndSplineSet
Validated: 524321
EndChar

StartChar: H
Encoding: 72 72 53
Width: 1422
Flags: W
HStem: 0 21G<83.3333 208.667 973.333 1098.67> 664 164<433 1093> 1414 20G<414.333 539.667 1304.33 1429.67>
LayerCount: 2
Back
SplineSet
1179 664 m 1
 277 664 l 1
 277 828 l 1
 1179 828 l 1
 1179 664 l 1
1130 0 m 2
 1096.66666667 0 1080 18.3333333333 1080 55 c 2
 1080 1379 l 2
 1080 1415.66666667 1096.66666667 1434 1130 1434 c 2
 1222 1434 l 2
 1255.33333333 1434 1272 1415.66666667 1272 1379 c 2
 1272 55 l 2
 1272 18.3333333333 1255.33333333 0 1222 0 c 2
 1130 0 l 2
220 0 m 2
 186.666666667 0 170 18.3333333333 170 55 c 2
 170 1379 l 2
 170 1415.66666667 186.666666667 1434 220 1434 c 2
 312 1434 l 2
 345.333333333 1434 362 1415.66666667 362 1379 c 2
 362 55 l 2
 362 18.3333333333 345.333333333 0 312 0 c 2
 220 0 l 2
1128 1435 m 2
 1155 1434 l 1
 1214 1434 l 2
 1224 1434 1234.5 1433 1245.5 1431 c 0
 1249.16666667 1430.33333333 1252.33333333 1428.83333333 1255 1426.5 c 128
 1257.66666667 1424.16666667 1259.83333333 1422.66666667 1261.5 1422 c 128
 1263.16666667 1421.33333333 1264.66666667 1419 1266 1415 c 128
 1267.33333333 1411 1268.16666667 1408.16666667 1268.5 1406.5 c 128
 1268.83333333 1404.83333333 1269.33333333 1401.16666667 1270 1395.5 c 128
 1270.66666667 1389.83333333 1271.33333333 1386 1272 1384 c 1
 1272 70 l 2
 1272 40 1268.16666667 20.8333333333 1260.5 12.5 c 128
 1252.83333333 4.16666666667 1235.33333333 0 1208 0 c 2
 1135 0 l 2
 1111.66666667 0 1096.5 3.83333333333 1089.5 11.5 c 128
 1082.5 19.1666666667 1079 35.6666666667 1079 61 c 2
 1079 664 l 1
 367 664 l 1
 367 61 l 2
 367 37.6666666667 363.833333333 21.6666666667 357.5 13 c 128
 351.166666667 4.33333396912 336.333333333 6.35782666667e-07 313 0 c 2
 240 0 l 2
 225.333333333 0 214.166666667 0.666666666667 206.5 2 c 128
 198.833333333 3.33333333333 191.833333333 7.83333333333 185.5 15.5 c 128
 179.166666667 23.1666666667 176 34.3333333333 176 49 c 2
 176 1384 l 2
 176 1405.33333333 180.5 1419 189.5 1425 c 128
 198.5 1431 213 1434 233 1434 c 2
 293 1434 l 1
 319 1435 l 2
 339 1435 352 1430.33333333 358 1421 c 128
 364 1411.66666667 367 1396.66666667 367 1376 c 2
 367 827 l 1
 1079 827 l 1
 1079 1376 l 2
 1079 1389.33333333 1079.83333333 1399.66666667 1081.5 1407 c 128
 1083.16666667 1414.33333333 1087.66666667 1420.83333333 1095 1426.5 c 128
 1102.33333333 1432.16666667 1113.33333333 1435 1128 1435 c 2
EndSplineSet
Fore
SplineSet
100 0 m 2
 66.6666666667 0 54.3333333333 18.3333333333 63 55 c 2
 368 1379 l 2
 376.666666667 1415.66666667 397.666666667 1434 431 1434 c 2
 523 1434 l 2
 556.333333333 1434 568.666666667 1415.66666667 560 1379 c 2
 433 828 l 1
 1131 828 l 1
 1258 1379 l 2
 1266.66666667 1415.66666667 1287.66666667 1434 1321 1434 c 2
 1413 1434 l 2
 1446.33333333 1434 1458.66666667 1415.66666667 1450 1379 c 2
 1145 55 l 2
 1136.33333333 18.3333333333 1115.33333333 0 1082 0 c 2
 990 0 l 2
 956.666666667 0 944.333333333 18.3333333333 953 55 c 2
 1093 664 l 1
 395 664 l 1
 255 55 l 2
 246.333333333 18.3333333333 225.333333333 0 192 0 c 2
 100 0 l 2
EndSplineSet
Validated: 524321
EndChar

StartChar: afii10033
Encoding: 1055 1055 54
Width: 1416
Flags: W
HStem: 0 21G<83.3333 208.667 967.333 1092.67> 1270 164<535 1227>
LayerCount: 2
Fore
SplineSet
100 0 m 2
 66.6666666667 0 54.3333333333 18.3333333333 63 55 c 2
 368 1379 l 2
 376.666666667 1415.66666667 397.666666667 1434 431 1434 c 2
 1407 1434 l 2
 1440.33333333 1434 1452.66666667 1415.66666667 1444 1379 c 2
 1139 55 l 2
 1130.33333333 18.3333333333 1109.33333333 0 1076 0 c 2
 984 0 l 2
 950.666666667 0 938.333333333 18.3333333333 947 55 c 2
 1227 1270 l 1
 535 1270 l 1
 255 55 l 2
 246.333333333 18.3333333333 225.333333333 0 192 0 c 2
 100 0 l 2
EndSplineSet
Validated: 524321
EndChar

StartChar: E
Encoding: 69 69 55
Width: 1270
Flags: W
HStem: 0 164<280 1069.84> 662 164<433 1132.84> 1270 164<535 1332.93>
LayerCount: 2
Fore
SplineSet
100 0 m 2
 66.6666666667 0 54.3333333333 18.3333333333 63 55 c 2
 368 1379 l 2
 376.666666667 1415.66666667 397.666666667 1434 431 1434 c 2
 1306 1434 l 2
 1342.66666667 1434 1357.66666667 1419 1351 1389 c 2
 1334 1315 l 2
 1326.66666667 1285 1304.66666667 1270 1268 1270 c 2
 535 1270 l 9
 433 826 l 1
 1106 826 l 2
 1142.66666667 826 1157.33333333 811 1150 781 c 2
 1133 707 l 2
 1126.33333333 677 1104.66666667 662 1068 662 c 2
 395 662 l 1
 280 164 l 17
 1043 164 l 2
 1079.66666667 164 1094.33333333 149 1087 119 c 2
 1070 45 l 2
 1063.33333333 15 1041.66666667 0 1005 0 c 2
 100 0 l 2
EndSplineSet
Validated: 524321
EndChar

StartChar: O
Encoding: 79 79 60
Width: 1514
Flags: W
HStem: -30 156<517.566 937.507> 1308 156<667.493 1087.43>
VStem: 110 205<331.976 899.608> 1290 205<534.392 1102.02>
LayerCount: 2
Back
SplineSet
111.76 719 m 256
 157.115333333 952.333333333 250.089666667 1134.83333333 390.683 1266.5 c 128
 531.275666667 1398.16666667 709.905333333 1464 926.572 1464 c 256
 1143.23733333 1464 1296.21 1397.83333333 1385.49 1265.5 c 128
 1474.76333333 1133.16666667 1496.72333333 950.333333333 1451.37 717 c 256
 1406.01666667 483.666666667 1312.97666667 300.833333333 1172.25 168.5 c 128
 1031.52933333 36.1666666667 852.835666667 -30 636.169 -30 c 256
 419.502333333 -30 266.595 36.5 177.447 169.5 c 128
 88.3000666667 302.5 66.4044 485.666666667 111.76 719 c 256
316.371 717 m 256
 280.086333333 530.333333333 290.202 385.166666667 346.718 281.5 c 128
 403.234 177.833333333 509.825333333 126 666.492 126 c 256
 823.158666667 126 949.901333333 177.833333333 1046.72 281.5 c 128
 1143.53333333 385.166666667 1210.08333333 530.333333333 1246.37 717 c 256
 1282.65666667 903.666666667 1272.54 1048.83333333 1216.02 1152.5 c 128
 1159.50666667 1256.16666667 1052.91633333 1308 896.249 1308 c 256
 739.582333333 1308 612.840333333 1256.16666667 516.023 1152.5 c 128
 419.205666667 1048.83333333 352.655 903.666666667 316.371 717 c 256
EndSplineSet
Fore
SplineSet
110 580 m 0
 110 846.666666667 181.333333333 1060.66666667 324 1222 c 0
 466.666666667 1383.33333333 651.333333333 1464 878 1464 c 256
 1081.33333333 1464 1235 1409.83333333 1339 1301.5 c 0
 1443 1193.16666667 1495 1044 1495 854 c 0
 1495 587.333333333 1423.66666667 373.333333333 1281 212 c 0
 1138.33333333 50.6666666667 953.666666667 -30 727 -30 c 256
 523.666666667 -30 370 24.1666666667 266 132.5 c 0
 162 240.833333333 110 390 110 580 c 0
315 556 m 0
 315 419.333333333 350.5 313.5 421.5 238.5 c 0
 492.5 163.5 598 126 738 126 c 256
 884.666666667 126 1013.33333333 187.166666667 1124 309.5 c 0
 1234.66666667 431.833333333 1290 621.333333333 1290 878 c 0
 1290 1014.66666667 1254.5 1120.5 1183.5 1195.5 c 0
 1112.5 1270.5 1007 1308 867 1308 c 256
 720.333333333 1308 591.666666667 1246.83333333 481 1124.5 c 0
 370.333333333 1002.16666667 315 812.666666667 315 556 c 0
EndSplineSet
Validated: 524289
EndChar

StartChar: s
Encoding: 115 115 61
Width: 937
Flags: W
HStem: -17 130<214.615 562.399> 932 135<387.706 720.807>
VStem: 158 176<666.602 880.154> 626 186<175.026 386.497>
LayerCount: 2
Fore
SplineSet
28 102 m 256
 8.66666666667 122.666666667 6 141 20 157 c 2
 70 216 l 2
 84 232 105.666666667 229 135 207 c 256
 173 178.333333333 213.833333333 155.5 257.5 138.5 c 0
 301.166666667 121.5 347 113 395 113 c 256
 431 113 466.833333333 117.833333333 502.5 127.5 c 0
 538.166666667 137.166666667 567.666666667 156.333333333 591 185 c 0
 614.333333333 213.666666667 626 242.333333333 626 271 c 256
 626 299.666666667 621.833333333 324 613.5 344 c 0
 605.166666667 364 590.666666667 381 570 395 c 0
 549.333333333 409 528.666666667 420 508 428 c 256
 480 438.666666667 447.833333333 451.333333333 411.5 466 c 0
 375.166666667 480.666666667 341.333333333 495.333333333 310 510 c 256
 279.333333333 524.666666667 252 545.666666667 228 573 c 0
 204 600.333333333 186.333333333 630.166666667 175 662.5 c 0
 163.666666667 694.833333333 158 729.333333333 158 766 c 256
 158 820.666666667 174.666666667 874.166666667 208 926.5 c 0
 241.333333333 978.833333333 289.5 1015.33333333 352.5 1036 c 0
 415.5 1056.66666667 484 1067 558 1067 c 256
 622 1067 679.666666667 1057.83333333 731 1039.5 c 16
 782.333333333 1021.16666667 826 997 862 967 c 256
 882 950.333333333 883.333333333 932.333333333 866 913 c 26
 816 857 l 18
 803.333333333 843 782 846.666666667 752 868 c 256
 725.333333333 886.666666667 694.666666667 902 660 914 c 0
 625.333333333 926 589.666666667 932 553 932 c 256
 521 932 487.166666667 927.333333333 451.5 918 c 0
 415.833333333 908.666666667 387.333333333 892 366 868 c 0
 344.666666667 844 334 815.333333333 334 782 c 256
 334 758 337.333333333 736 344 716 c 0
 350.666666667 696 362.5 679.166666667 379.5 665.5 c 0
 396.5 651.833333333 414.666666667 640.666666667 434 632 c 256
 468.666666667 616 502.166666667 602.333333333 534.5 591 c 0
 566.833333333 579.666666667 596.333333333 568 623 556 c 256
 669.666666667 536 707.666666667 512.666666667 737 486 c 0
 766.333333333 459.333333333 786.166666667 429.666666667 796.5 397 c 0
 806.833333333 364.333333333 812 329 812 291 c 256
 812 217 788.833333333 155.666666667 742.5 107 c 0
 696.166666667 58.3333333333 643.333333333 25.5 584 8.5 c 0
 524.666666667 -8.5 456.666666667 -17 380 -17 c 256
 284.666666667 -17 208.5 -3.83333333333 151.5 22.5 c 24
 94.5 48.8333333333 53.3333333333 75.3333333333 28 102 c 256
EndSplineSet
Validated: 524321
EndChar

StartChar: afii10040
Encoding: 1062 1062 62
Width: 1486
Flags: W
HStem: -370 21G<1077.67 1190.33> 0 164<280 966> 1414 20G<414.333 539.667 1292.33 1417.67>
LayerCount: 2
Fore
SplineSet
100 0 m 2
 66.6666666667 0 54.3333333333 18.3333333333 63 55 c 2
 368 1379 l 2
 376.666666667 1415.66666667 397.666666667 1434 431 1434 c 2
 523 1434 l 2
 556.333333333 1434 568.666666667 1415.66666667 560 1379 c 2
 280 164 l 1
 966 164 l 1
 1246 1379 l 2
 1254.66666667 1415.66666667 1275.66666667 1434 1309 1434 c 2
 1401 1434 l 2
 1434.33333333 1434 1446.66666667 1415.66666667 1438 1379 c 2
 1158 164 l 1
 1290 164 l 2
 1323.33333333 164 1335.66666667 145.666666667 1327 109 c 2
 1228 -320 l 2
 1220.66666667 -353.333333333 1203.66666667 -370 1177 -370 c 2
 1091 -370 l 2
 1064.33333333 -370 1054.66666667 -353.333333333 1062 -320 c 2
 1136 0 l 1
 100 0 l 2
EndSplineSet
Validated: 524321
EndChar

StartChar: afii10042
Encoding: 1064 1064 63
Width: 2040
Flags: W
HStem: 0 164<280 842 1034 1596> 1414 20G<414.333 539.667 1168.33 1293.67 1922.33 2047.67>
LayerCount: 2
Fore
SplineSet
100 0 m 2
 66.6666666667 0 54.3333333333 18.3333333333 63 55 c 2
 368 1379 l 2
 376.666666667 1415.66666667 397.666666667 1434 431 1434 c 2
 523 1434 l 2
 556.333333333 1434 568.666666667 1415.66666667 560 1379 c 2
 280 164 l 1
 842 164 l 1
 1122 1379 l 2
 1130.66666667 1415.66666667 1151.66666667 1434 1185 1434 c 2
 1277 1434 l 2
 1310.33333333 1434 1322.66666667 1415.66666667 1314 1379 c 2
 1034 164 l 1
 1596 164 l 1
 1876 1379 l 2
 1884.66666667 1415.66666667 1905.66666667 1434 1939 1434 c 2
 2031 1434 l 2
 2064.33333333 1434 2076.66666667 1415.66666667 2068 1379 c 2
 1763 55 l 2
 1754.33333333 18.3333333333 1733.33333333 0 1700 0 c 2
 100 0 l 2
EndSplineSet
Validated: 524321
EndChar

StartChar: afii10041
Encoding: 1063 1063 64
Width: 1286
Flags: W
HStem: 0 21G<837.333 962.667> 566 154<422.306 807.272> 1414 20G<364.333 489.667 1168.33 1293.67>
LayerCount: 2
Back
SplineSet
211 912 m 2
 318 1379 l 2
 326.666666667 1415.66666667 347.666666667 1434 381 1434 c 2
 473 1434 l 2
 506.333333333 1434 518.666666667 1415.66666667 510 1379 c 2
 414 960 l 2
 392 866.666666667 393 803.333333333 417 770 c 128
 441 736.666666667 490 720 564 720 c 256
 600 720 663.666666667 724.666666667 755 734 c 128
 846.333333333 743.333333333 923.333333333 761 986 787 c 1
 1122 1379 l 2
 1130.66666667 1415.66666667 1151.66666667 1434 1185 1434 c 2
 1277 1434 l 2
 1310.33333333 1434 1322.66666667 1415.66666667 1314 1379 c 2
 1009 55 l 2
 1000.33333333 18.3333333333 979.333333333 0 946 0 c 2
 854 0 l 2
 820.666666667 0 808.333333333 18.3333333333 817 55 c 2
 936 573 l 2
 942 599.666666667 949 626.333333333 957 653 c 1
 953 653 l 1
 883.666666667 625.666666667 816.5 604.333333333 751.5 589 c 128
 686.5 573.666666667 604 566 504 566 c 256
 396 566 314.666666667 600.166666667 260 668.5 c 128
 205.333333333 736.833333333 189 818 211 912 c 2
EndSplineSet
Fore
SplineSet
211 912 m 2
 318 1379 l 2
 326.666666667 1415.66666667 347.666666667 1434 381 1434 c 2
 473 1434 l 2
 506.333333333 1434 518.666666667 1415.66666667 510 1379 c 2
 414 960 l 2
 392.666666667 866 393.833333333 802.5 417.5 769.5 c 0
 441.166666667 736.5 490 720 564 720 c 256
 600 720 664 726.333333333 756 739 c 0
 848 751.666666667 925.333333333 771 988 797 c 1
 1122 1379 l 2
 1130.66666667 1415.66666667 1151.66666667 1434 1185 1434 c 2
 1277 1434 l 2
 1310.33333333 1434 1322.66666667 1415.66666667 1314 1379 c 2
 1009 55 l 2
 1000.33333333 18.3333333333 979.333333333 0 946 0 c 2
 854 0 l 2
 820.666666667 0 808.333333333 18.3333333333 817 55 c 2
 938 583 l 6
 944.666666667 611 951.666666667 637.666666667 959 663 c 1
 955 663 l 1
 885.666666667 635.666666667 818.166666667 612.666666667 752.5 594 c 0
 686.833333333 575.333333333 604 566 504 566 c 256
 396 566 314.833333333 600 260.5 668 c 0
 206.166666667 736 189.666666667 817.333333333 211 912 c 2
EndSplineSet
Validated: 524321
EndChar

StartChar: uni0237
Encoding: 567 567 65
Width: 466
Flags: W
HStem: -417 130<-289.125 -64.5002> -397 128<-283.984 -156.745> 1030 20G<300 416>
VStem: 260 176<943.001 1049.3>
LayerCount: 2
Fore
SplineSet
-290 -397 m 256x70
 -301.333333333 -391 -304.666666667 -380.333333333 -300 -365 c 258
 -275 -284 l 258
 -269.666666667 -266.666666667 -260 -261.666666667 -246 -269 c 256x70
 -222.666666667 -281 -192.333333333 -287 -155 -287 c 256
 -115.666666667 -287 -82 -268 -54 -230 c 0
 -26 -192 1.66666666667 -113.333333333 29 6 c 2
 260 1005 l 2
 266.666666667 1035 285 1050 315 1050 c 2
 401 1050 l 2
 431 1050 442.666666667 1035 436 1005 c 2
 183 -93 l 2
 153 -222.333333333 107.666666667 -308.666666667 47 -352 c 0
 -13.6666666667 -395.333333333 -80.3333333333 -417 -153 -417 c 256xb0
 -219 -417 -264.666666667 -410.333333333 -290 -397 c 256x70
EndSplineSet
Validated: 524289
EndChar

StartChar: four
Encoding: 52 52 67
Width: 1110
Flags: W
HStem: 0 21G<564 680> 354 164<255 616 830 1018> 1420 20G<894 1011.33>
LayerCount: 2
Back
SplineSet
71 354 m 2
 41 354 29.3333333333 369 36 399 c 2
 56 487 l 2
 61.3333333333 508.333333333 74.6666666667 531.333333333 96 556 c 2
 841 1404 l 2
 861.666666667 1428 883 1440 905 1440 c 2
 996 1440 l 2
 1026.66666667 1440 1038.66666667 1425 1032 1395 c 2
 830 518 l 1
 1001 518 l 2
 1031 518 1042.33333333 503 1035 473 c 2
 1018 399 l 2
 1011.33333333 369 993.333333333 354 964 354 c 2
 792 354 l 1
 720 45 l 2
 713.333333333 15 695 0 665 0 c 2
 579 0 l 2
 549 0 537.333333333 15 544 45 c 2
 616 354 l 1
 71 354 l 2
243 518 m 1
 654 518 l 1
 786 1093 l 2
 790.666666667 1113 796 1133 802 1153 c 1
 800 1153 l 1
 243 518 l 1
288 556 m 2
 1033 1404 l 1026
108 556 m 2
 853 1404 l 1026
EndSplineSet
Fore
SplineSet
71 354 m 2
 41 354 29.3333333333 369 36 399 c 2
 56 487 l 2
 61.3333333333 508.333333333 74.6666666667 531.333333333 96 556 c 2
 841 1404 l 2
 861.666666667 1428 883 1440 905 1440 c 2
 996 1440 l 2
 1026.66666667 1440 1038.66666667 1425 1032 1395 c 2
 830 518 l 1
 1001 518 l 2
 1031 518 1042.33333333 503 1035 473 c 2
 1018 399 l 2
 1011.33333333 369 993.333333333 354 964 354 c 2
 792 354 l 1
 720 45 l 2
 713.333333333 15 695 0 665 0 c 2
 579 0 l 2
 549 0 537.333333333 15 544 45 c 2
 616 354 l 1
 71 354 l 2
255 518 m 1
 654 518 l 1
 781 1073 l 2
 785.666666667 1093 791 1113 797 1133 c 1
 795 1133 l 1
 255 518 l 1
EndSplineSet
Validated: 524289
EndChar

StartChar: zero
Encoding: 48 48 68
Width: 1110
Flags: W
HStem: -30 144<370.798 622.281> 1308 144<565.719 817.202>
VStem: 104 186<211.223 822.31> 898 186<599.69 1210.78>
LayerCount: 2
Back
SplineSet
137.147 711 m 256
 191.016333333 944.333333333 264.996 1126.16666667 359.086 1256.5 c 128
 453.176 1386.83333333 590.221 1452 770.221 1452 c 256
 950.220333333 1452 1057.17666667 1386.83333333 1091.09 1256.5 c 128
 1124.99666667 1126.16666667 1115.01666667 944.333333333 1061.15 711 c 256
 1007.27933333 477.666666667 933.299 295.833333333 839.209 165.5 c 128
 745.119 35.1666666667 608.074 -30 428.074 -30 c 256
 248.074 -30 141.119 35.1666666667 107.209 165.5 c 128
 73.2988666667 295.833333333 83.2782 477.666666667 137.147 711 c 256
323.147 711 m 256
 280.051666667 524.333333333 262.306333333 378.166666667 269.911 272.5 c 128
 277.516333333 166.833333333 341.319 114 461.319 114 c 256
 581.319 114 669.516333333 166.833333333 725.911 272.5 c 128
 782.306333333 378.166666667 832.051666667 524.333333333 875.147 711 c 256
 918.242333333 897.666666667 935.987666667 1043.83333333 928.383 1149.5 c 128
 920.778333333 1255.16666667 856.976 1308 736.976 1308 c 256
 616.976 1308 528.778333333 1255.16666667 472.383 1149.5 c 128
 415.987666667 1043.83333333 366.242333333 897.666666667 323.147 711 c 256
EndSplineSet
Fore
SplineSet
104 440 m 256
 104 683.333333333 152 912.833333333 248 1128.5 c 0
 344 1344.16666667 500.333333333 1452 717 1452 c 256
 843.666666667 1452 936.5 1407 995.5 1317 c 0
 1054.5 1227 1084 1115.33333333 1084 982 c 256
 1084 738.666666667 1036 509.166666667 940 293.5 c 0
 844 77.8333333333 687.666666667 -30 471 -30 c 256
 344.333333333 -30 251.5 15 192.5 105 c 0
 133.5 195 104 306.666666667 104 440 c 256
290 410 m 256
 290 343.333333333 304.666666667 277.333333333 334 212 c 0
 363.333333333 146.666666667 413 114 483 114 c 256
 613 114 714.666666667 205.333333333 788 388 c 0
 861.333333333 570.666666667 898 778.666666667 898 1012 c 256
 898 1078.66666667 883.333333333 1144.66666667 854 1210 c 0
 824.666666667 1275.33333333 775 1308 705 1308 c 256
 575 1308 473.333333333 1216.66666667 400 1034 c 0
 326.666666667 851.333333333 290 643.333333333 290 410 c 256
EndSplineSet
Validated: 524289
EndChar

StartChar: seven
Encoding: 55 55 69
Width: 1100
Flags: W
HStem: -6 21G<262 383> 1258 164<286.002 991.031>
LayerCount: 2
Back
SplineSet
303.433 1258 m 2
 273.433 1258 261.895666667 1273 268.821 1303 c 2
 285.905 1377 l 2
 292.831666667 1407 311.295 1422 341.295 1422 c 2
 1175.29 1422 l 2
 1205.29 1422 1216.83 1407 1209.91 1377 c 2
 1193.98 1308 l 2
 1189.05333333 1286.66666667 1171.51 1262.66666667 1141.35 1236 c 0
 973.080666667 1084.66666667 827.411333333 917.166666667 704.342 733.5 c 128
 581.272 549.833333333 494.726333333 349.666666667 444.705 133 c 2
 423.004 39 l 2
 416.078 9 397.615 -6 367.615 -6 c 2
 276.615 -6 l 2
 246.615 -6 235.078 9 242.004 39 c 2
 255.625 98 l 2
 311.187666667 338.666666667 405.76 550.5 539.342 733.5 c 128
 672.924 916.5 826.953333333 1091.33333333 1001.43 1258 c 1
 1001.89 1260 l 1
 981.585333333 1258.66666667 961.433 1258 941.433 1258 c 2
 303.433 1258 l 2
EndSplineSet
Fore
SplineSet
303 1258 m 2
 273 1258 261.666666667 1273 269 1303 c 2
 286 1377 l 2
 292.666666667 1407 311 1422 341 1422 c 2
 1175 1422 l 2
 1205 1422 1216.66666667 1407 1210 1377 c 2
 1194 1308 l 2
 1188.66666667 1287.33333333 1171 1263.33333333 1141 1236 c 0
 973 1084.66666667 827 915 703 727 c 0
 579 539 493 341 445 133 c 2
 423 39 l 2
 416.333333333 9 398 -6 368 -6 c 2
 277 -6 l 2
 247 -6 235.333333333 9 242 39 c 2
 256 98 l 2
 316 352 410 567.166666667 538 743.5 c 0
 666 919.833333333 817 1091.33333333 991 1258 c 1
 992 1260 l 1
 971.333333333 1258.66666667 951 1258 931 1258 c 2
 303 1258 l 2
EndSplineSet
Validated: 524289
EndChar

StartChar: afii10046
Encoding: 1068 1068 70
Width: 1308
Flags: W
HStem: 0 164<280 826.894> 664 164<433 914.449> 1414 20G<414.333 539.667>
VStem: 1002 205<303.521 589.308>
LayerCount: 2
Back
SplineSet
100 0 m 2
 66.6666666667 0 54.2324333333 18.3333333333 62.6973 55 c 2
 368.367 1379 l 2
 376.832333333 1415.66666667 397.731666667 1434 431.065 1434 c 2
 523.065 1434 l 2
 556.398333333 1434 568.832333333 1415.66666667 560.367 1379 c 2
 433.159 828 l 1
 721.159 828 l 2
 945.826333333 828 1091.37333333 790.666666667 1157.8 716 c 128
 1224.22666667 641.333333333 1242.82 540.666666667 1213.58 414 c 256
 1184.33333333 287.333333333 1119.26 186.666666667 1018.36 112 c 128
 917.453333333 37.3333333333 754.666666667 0 530 0 c 2
 100 0 l 2
279.862 164 m 1
 535.862 164 l 2
 679.195333333 164 788.620666667 183.166666667 864.138 221.5 c 128
 939.654 259.833333333 987.801333333 324 1008.58 414 c 256
 1029.36 504 1010.84033333 568.166666667 953.021 606.5 c 128
 895.205 644.833333333 794.630333333 664 651.297 664 c 2
 395.297 664 l 1
 279.862 164 l 1
EndSplineSet
Fore
SplineSet
100 0 m 2
 66.6666666667 0 54.3333333333 18.3333333333 63 55 c 2
 368 1379 l 2
 376.666666667 1415.66666667 397.666666667 1434 431 1434 c 2
 523 1434 l 2
 556.333333333 1434 568.666666667 1415.66666667 560 1379 c 2
 433 828 l 1
 701 828 l 2
 895.666666667 828 1028.66666667 792.5 1100 721.5 c 0
 1171.33333333 650.5 1207 561.333333333 1207 454 c 256
 1207 331.333333333 1153.66666667 225 1047 135 c 0
 940.333333333 45 774.666666667 0 550 0 c 2
 100 0 l 2
280 164 m 1
 556 164 l 2
 699.333333333 164 809.5 188.666666667 886.5 238 c 0
 963.5 287.333333333 1002 356 1002 444 c 256
 1002 538 971 598.166666667 909 624.5 c 0
 847 650.833333333 754.333333333 664 631 664 c 2
 395 664 l 1
 280 164 l 1
EndSplineSet
Validated: 524321
EndChar

StartChar: afii10020
Encoding: 1043 1043 71
Width: 1106
Flags: W
HStem: 0 21G<83.3333 208.667> 1270 164<535 1252.93>
LayerCount: 2
Fore
SplineSet
100 0 m 2
 66.6666666667 0 54.3333333333 18.3333333333 63 55 c 2
 368 1379 l 2
 376.666666667 1415.66666667 397.666666667 1434 431 1434 c 2
 1226 1434 l 2
 1262.66666667 1434 1277.66666667 1419 1271 1389 c 2
 1254 1315 l 2
 1246.66666667 1285 1224.66666667 1270 1188 1270 c 2
 535 1270 l 9
 255 55 l 2
 246.333333333 18.3333333333 225.333333333 0 192 0 c 2
 100 0 l 2
EndSplineSet
Validated: 524321
EndChar

StartChar: afii10018
Encoding: 1041 1041 72
Width: 1330
Flags: W
HStem: 0 164<280 837.156> 668 164<434 921.839> 1270 164<535 1292.93>
VStem: 1013 205<310.412 589.945>
LayerCount: 2
Back
SplineSet
110 0 m 2
 76.6666666667 0 64.3333333333 18.3333333333 73 55 c 2
 378 1379 l 2
 386.666666667 1415.66666667 407.666666667 1434 441 1434 c 2
 533 1434 l 2
 566.333333333 1434 578.666666667 1415.66666667 570 1379 c 2
 443 828 l 1
 711 828 l 2
 905.666666667 828 1038.66666667 792.5 1110 721.5 c 128
 1181.33333333 650.5 1217 561.333333333 1217 454 c 256
 1217 331.333333333 1163.66666667 225 1057 135 c 128
 950.333333333 45 784.666666667 0 560 0 c 2
 110 0 l 2
290 164 m 1
 566 164 l 2
 709.333333333 164 819.5 188.666666667 896.5 238 c 128
 973.5 287.333333333 1012 356 1012 444 c 256
 1012 538 981 598.166666667 919 624.5 c 128
 857 650.833333333 764.333333333 664 641 664 c 2
 405 664 l 1
 290 164 l 1
EndSplineSet
Fore
SplineSet
100 0 m 2
 66.6666666667 0 54.3333333333 18.3333333333 63 55 c 2
 368 1379 l 2
 376.666666667 1415.66666667 397.666666667 1434 431 1434 c 2
 1266 1434 l 2
 1302.66666667 1434 1317.66666667 1419 1311 1389 c 2
 1294 1315 l 2
 1287.33333333 1285 1265.33333333 1270 1228 1270 c 2
 535 1270 l 1
 434 832 l 1
 712 832 l 2
 918.666666667 832 1054.66666667 794.333333333 1120 719 c 0
 1185.33333333 643.666666667 1218 558.333333333 1218 463 c 256
 1218 335.666666667 1164.5 226.666666667 1057.5 136 c 0
 950.5 45.3333333333 784.666666667 0 560 0 c 2
 100 0 l 2
280 164 m 1
 566 164 l 2
 709.333333333 164 819.666666667 189.5 897 240.5 c 0
 974.333333333 291.5 1013 362 1013 452 c 256
 1013 532 986.166666667 588 932.5 620 c 0
 878.833333333 652 782 668 642 668 c 2
 396 668 l 1
 280 164 l 1
EndSplineSet
Validated: 524321
EndChar

StartChar: afii10194
Encoding: 1123 1123 73
Width: 1628
VWidth: 1000
Flags: W
HStem: -17 130<931.452 1229.43> 0 21G<52 168> 550 130<999.321 1272.91> 937 130<579.806 780.641> 1030 20G<294 408>
VStem: 1327 186<209.095 494.529>
LayerCount: 2
Back
SplineSet
67 0 m 2
 37 0 25.3333333333 15 32 45 c 2
 254 1005 l 2
 260.666666667 1035 279 1050 309 1050 c 2
 393 1050 l 2
 423 1050 434.666666667 1035 428 1005 c 2
 396 865 l 1
 400 865 l 1
 434.666666667 913.666666667 483.833333333 959.5 547.5 1002.5 c 128
 611.166666667 1045.5 673 1067 733 1067 c 256
 836.333333333 1067 908.833333333 1036.83333333 950.5 976.5 c 128
 992.166666667 916.166666667 1002.66666667 840.333333333 982 749 c 2
 952 618 l 1
 1154 618 l 2
 1300 618 1396.33333333 592 1443 540 c 128
 1489.66666667 488 1513 427 1513 357 c 256
 1513 260.333333333 1478.33333333 176.666666667 1409 106 c 128
 1339.66666667 35.3333333333 1220.33333333 0 1051 0 c 2
 678 0 l 2
 648 0 636.333333333 15 643 45 c 2
 784 656 l 2
 810.666666667 772 812.333333333 847.833333333 789 883.5 c 128
 765.666666667 919.166666667 729.666666667 937 681 937 c 256
 620.333333333 937 550 891 470 799 c 128
 390 707 337.333333333 606 312 496 c 2
 208 45 l 2
 201.333333333 15 183 0 153 0 c 2
 67 0 l 2
839 131 m 1
 1035 131 l 2
 1119 131 1188.66666667 148.5 1244 183.5 c 128
 1299.33333333 218.5 1327 274 1327 350 c 256
 1327 414 1302.66666667 453 1254 467 c 128
 1205.33333333 481 1146.66666667 488 1078 488 c 2
 922 488 l 1
 839 131 l 1
EndSplineSet
Fore
SplineSet
67 0 m 2x74
 37 0 25.3333333333 15 32 45 c 2
 254 1005 l 2
 260.666666667 1035 279 1050 309 1050 c 2
 393 1050 l 2x6c
 423 1050 434.666666667 1035 428 1005 c 2
 396 865 l 1
 400 865 l 1
 434.666666667 913.666666667 483.833333333 959.5 547.5 1002.5 c 0
 611.166666667 1045.5 673 1067 733 1067 c 256
 836.333333333 1067 908.833333333 1036.83333333 950.5 976.5 c 0
 992.166666667 916.166666667 1002.66666667 840.333333333 982 749 c 2
 959 649 l 1
 952.333333333 623 946.333333333 602.666666667 941 588 c 1
 943 588 l 1
 973.666666667 621.333333333 1008.66666667 645 1048 659 c 0
 1087.33333333 673 1137 680 1197 680 c 256
 1305 680 1384.66666667 649 1436 587 c 0
 1487.33333333 525 1513 447.333333333 1513 354 c 256
 1513 256.666666667 1474.66666667 170.5 1398 95.5 c 0
 1321.33333333 20.5 1196.33333333 -17 1023 -17 c 256xb4
 905.666666667 -17 820.166666667 24.5 766.5 107.5 c 0
 712.833333333 190.5 702.333333333 302.666666667 735 444 c 2
 784 656 l 2
 810.666666667 772 812.333333333 847.833333333 789 883.5 c 0
 765.666666667 919.166666667 729.666666667 937 681 937 c 256
 620.333333333 937 550 891 470 799 c 0
 390 707 337.333333333 606 312 496 c 2
 208 45 l 2
 201.333333333 15 183 0 153 0 c 2
 67 0 l 2x74
895 370 m 0
 875.666666667 286 881.833333333 222.166666667 913.5 178.5 c 0
 945.166666667 134.833333333 994 113 1060 113 c 256xa4
 1143.33333333 113 1208.66666667 134.833333333 1256 178.5 c 0
 1303.33333333 222.166666667 1327 284.666666667 1327 366 c 256
 1327 416.666666667 1312 460 1282 496 c 0
 1252 532 1205.66666667 550 1143 550 c 256
 1075 550 1019.5 532 976.5 496 c 0
 933.5 460 906.333333333 418 895 370 c 0
EndSplineSet
Validated: 8912929
EndChar

StartChar: period
Encoding: 46 46 74
Width: 600
Flags: W
HStem: 0 212<118.59 290.41>
VStem: 89 231
LayerCount: 2
Fore
SplineSet
124 0 m 2
 94 0 82.3333333333 15 89 45 c 2
 118 167 l 2
 124.666666667 197 143 212 173 212 c 2
 285 212 l 2
 315 212 326.666666667 197 320 167 c 2
 291 45 l 2
 284.333333333 15 266 0 236 0 c 2
 124 0 l 2
EndSplineSet
Validated: 524289
EndChar

StartChar: h
Encoding: 104 104 75
Width: 1128
Flags: W
HStem: 0 21G<52 168 722 838> 937 130<576.779 828.184> 1456 20G<392.667 508.667>
LayerCount: 2
Back
SplineSet
67 0 m 2
 37 0 25.3333333333 15 32 45 c 2
 254 1005 l 2
 260.666666667 1035 279 1050 309 1050 c 2
 393 1050 l 2
 423 1050 434.666666667 1035 428 1005 c 2
 401 885 l 1
 405 885 l 5
 444.333333333 933.666666667 495.5 976.166666667 558.5 1012.5 c 128
 621.5 1048.83333333 693 1067 773 1067 c 256
 886.333333333 1067 963.666666667 1032.83333333 1005 964.5 c 128
 1046.33333333 896.166666667 1053.33333333 802.666666667 1026 684 c 2
 878 45 l 2
 871.333333333 15 853 0 823 0 c 2
 737 0 l 2
 707 0 695.333333333 15 702 45 c 2
 839 636 l 2
 869 766.666666667 868 849.5 836 884.5 c 128
 804 919.5 751.333333333 937 678 937 c 256
 598 937 525.166666667 898.166666667 459.5 820.5 c 128
 393.833333333 742.833333333 349.333333333 654 326 554 c 2
 208 45 l 2
 201.333333333 15 183 0 153 0 c 2
 67 0 l 2
EndSplineSet
Fore
SplineSet
67 0 m 2
 37 0 25.3333333333 15 32 45 c 2
 352 1431 l 2
 358.666666667 1461 377.333333333 1476 408 1476 c 2
 494 1476 l 2
 523.333333333 1476 534.666666667 1461 528 1431 c 2
 416 945 l 6
 412 926.333333333 407 906.333333333 401 885 c 1
 405 885 l 1
 444.333333333 933.666666667 495.5 976.166666667 558.5 1012.5 c 0
 621.5 1048.83333333 693 1067 773 1067 c 256
 886.333333333 1067 963.666666667 1032.83333333 1005 964.5 c 0
 1046.33333333 896.166666667 1053.33333333 802.666666667 1026 684 c 2
 878 45 l 2
 871.333333333 15 853 0 823 0 c 2
 737 0 l 2
 707 0 695.333333333 15 702 45 c 2
 839 636 l 2
 869 766.666666667 868 849.5 836 884.5 c 0
 804 919.5 751.333333333 937 678 937 c 256
 598 937 525.166666667 898.166666667 459.5 820.5 c 0
 393.833333333 742.833333333 349.333333333 654 326 554 c 2
 208 45 l 2
 201.333333333 15 183 0 153 0 c 2
 67 0 l 2
EndSplineSet
Validated: 524321
EndChar

StartChar: b
Encoding: 98 98 76
Width: 1119
Flags: W
HStem: -17 130<322.176 639.842> 0 21G<52 162.667> 937 130<553.609 793.984> 1456 20G<392 508>
VStem: 865 186<417.919 858.035>
LayerCount: 2
Fore
SplineSet
67 0 m 2x78
 37 0 25.3333333333 15 32 45 c 2
 352 1431 l 2
 358.666666667 1461 377 1476 407 1476 c 2
 493 1476 l 2
 523 1476 534.666666667 1461 528 1431 c 2
 416 946 l 2
 411.333333333 926.666666667 406 906.333333333 400 885 c 1
 402 885 l 1
 431.333333333 937.666666667 477 981.166666667 539 1015.5 c 0
 601 1049.83333333 658.666666667 1067 712 1067 c 256
 838.666666667 1067 926.833333333 1028.16666667 976.5 950.5 c 0
 1026.16666667 872.833333333 1051 779.666666667 1051 671 c 0
 1051 501 997.333333333 343.833333333 890 199.5 c 0
 782.666666667 55.1666666667 656.333333333 -17 511 -17 c 256xb8
 437 -17 379.333333333 -5.83333333333 338 16.5 c 0
 296.666666667 38.8333333333 259 72.6666666667 225 118 c 1
 223 118 l 1
 200 45 l 2
 190.666666667 15 174.333333333 0 151 0 c 2
 67 0 l 2x78
265 290 m 17
 271.666666667 223.333333333 293.333333333 177.166666667 330 151.5 c 0
 366.666666667 125.833333333 422.333333333 113 497 113 c 256
 598.333333333 113 685 169.5 757 282.5 c 0
 829 395.5 865 527.333333333 865 678 c 0
 865 747.333333333 850 807.833333333 820 859.5 c 0
 790 911.166666667 737.333333333 937 662 937 c 256
 596.666666667 937 530.166666667 897.833333333 462.5 819.5 c 0
 394.833333333 741.166666667 350.666666667 658 330 570 c 2
 265 290 l 17
EndSplineSet
Validated: 8912897
EndChar

StartChar: d
Encoding: 100 100 77
Width: 1119
Flags: W
HStem: -17 130<327.016 567.391> 0 21G<715.667 827> 937 130<481.158 798.824> 1456 20G<1051 1167>
VStem: 70 186<191.965 632.081>
LayerCount: 2
Fore
SplineSet
70 379 m 0xb8
 70 549 123.666666667 706.166666667 231 850.5 c 0
 338.333333333 994.833333333 464.666666667 1067 610 1067 c 256
 684 1067 741.666666667 1055.83333333 783 1033.5 c 0
 824.333333333 1011.16666667 862 977.333333333 896 932 c 1
 898 932 l 1
 900 948 904 968.333333333 910 993 c 2
 1011 1431 l 2
 1017.66666667 1461 1036 1476 1066 1476 c 2
 1152 1476 l 2
 1182 1476 1193.66666667 1461 1187 1431 c 2
 867 45 l 2
 860.333333333 15 842 0 812 0 c 2
 728 0 l 2x78
 703.333333333 0 693.666666667 15 699 45 c 2
 721 165 l 1
 719 165 l 1
 689.666666667 112.333333333 644 68.8333333333 582 34.5 c 0
 520 0.166666666667 462.333333333 -17 409 -17 c 256
 282.333333333 -17 194.166666667 21.8333333333 144.5 99.5 c 0
 94.8333333333 177.166666667 70 270.333333333 70 379 c 0xb8
256 372 m 0
 256 302.666666667 271 242.166666667 301 190.5 c 0
 331 138.833333333 383.666666667 113 459 113 c 256xb8
 524.333333333 113 590.833333333 152.166666667 658.5 230.5 c 0
 726.166666667 308.833333333 770.333333333 392 791 480 c 2
 856 760 l 17
 849.333333333 826.666666667 827.666666667 872.833333333 791 898.5 c 0
 754.333333333 924.166666667 698.666666667 937 624 937 c 256
 522.666666667 937 436 880.5 364 767.5 c 0
 292 654.5 256 522.666666667 256 372 c 0
EndSplineSet
Validated: 8912897
EndChar

StartChar: X
Encoding: 88 88 78
Width: 1298
Flags: W
HStem: 0 21G<-63.3333 118 979.333 1121> 1414 20G<305.333 439.333 1241 1415.33>
LayerCount: 2
Back
SplineSet
1210.06 1434 m 25
 -106 0 l 1049
1461.06 1434 m 25
 146 0 l 1049
470.065 1434 m 25
 1164 0 l 1049
259.065 1434 m 25
 952 0 l 1049
EndSplineSet
Fore
SplineSet
-42 0 m 2
 -84.6666666667 0 -85.6666666667 22 -45 66 c 2
 593 752 l 1
 294 1368 l 2
 272.666666667 1412 283.666666667 1434 327 1434 c 2
 425 1434 l 2
 453.666666667 1434 474 1421 486 1395 c 2
 721 873 l 1
 1177 1395 l 2
 1199.66666667 1421 1226 1434 1256 1434 c 2
 1394 1434 l 2
 1436.66666667 1434 1437.66666667 1412 1397 1368 c 2
 806 727 l 1
 1132 66 l 2
 1154 22 1143 0 1099 0 c 2
 994 0 l 2
 964.666666667 0 944.333333333 13 933 39 c 2
 679 607 l 1
 182 39 l 2
 159.333333333 13 133 0 103 0 c 2
 -42 0 l 2
EndSplineSet
Validated: 524321
EndChar

StartChar: comma
Encoding: 44 44 82
Width: 600
Flags: HMW
HStem: -281 493 0 212<116.473 174>
VStem: 35 287
LayerCount: 2
Back
SplineSet
122 0 m 2
 92 0 80.4629 15 87.3887 45 c 2
 115.555 167 l 2
 122.481 197 140.944 212 170.944 212 c 2
 286.944 212 l 2
 316.944 212 328.481 197 321.555 167 c 2
 293.389 45 l 258
 277.227666667 -25 255.606 -86.1666666667 228.524 -138.5 c 128
 201.442 -190.833333333 161.360666667 -236.666666667 108.28 -276 c 256
 90.6890666667 -288.666666667 77.9710666667 -290.333333333 70.126 -281 c 2
 34.8223 -239 l 2
 26.9772333333 -229.666666667 31.9271 -218.333333333 49.6719 -205 c 256
 76.9557666667 -185 102.1128 -156.166666667 125.143 -118.5 c 128
 148.172333333 -80.8333333333 164.458 -41.3333333333 174 0 c 9
 122 0 l 2
EndSplineSet
Fore
SplineSet
122 0 m 2
 91.3333333333 0 79.6666666667 15 87 45 c 2
 116 167 l 2
 123.333333333 197 141.666666667 212 171 212 c 2
 287 212 l 2
 317.666666667 212 329.333333333 197 322 167 c 2
 293 45 l 258
 273 -39.6666666667 250.5 -103.666666667 225.5 -147 c 128
 200.5 -190.333333333 162 -232.666666667 110 -274 c 256
 92.6666666667 -287.333333333 80 -289.666666667 72 -281 c 2
 35 -241 l 2
 25.6666666667 -231 30 -219.333333333 48 -206 c 256
 71.3333333333 -188.666666667 96 -159.166666667 122 -117.5 c 128
 148 -75.8333333333 165.333333333 -36.6666666667 174 0 c 9
 122 0 l 2
EndSplineSet
Validated: 8912897
EndChar

StartChar: afii10028
Encoding: 1050 1050 83
Width: 1270
Flags: W
HStem: 0 21G<83.3333 208.667 949.333 1092.33> 653 160<430 606.879> 1414 20G<414.333 539.667 1220.67 1393.67>
LayerCount: 2
Fore
SplineSet
100 0 m 2
 66.6666666667 0 54.3333333333 18.3333333333 63 55 c 2
 368 1379 l 2
 376.666666667 1415.66666667 397.666666667 1434 431 1434 c 2
 523 1434 l 2
 556.333333333 1434 568.666666667 1415.66666667 560 1379 c 2
 430 813 l 1
 472 813 l 6
 548 813 609.833333333 832 657.5 870 c 0
 705.166666667 908 755.333333333 956 808 1014 c 2
 1156 1395 l 2
 1180 1421 1206.33333333 1434 1235 1434 c 2
 1372 1434 l 2
 1415.33333333 1434 1416.33333333 1412 1375 1368 c 2
 967 932 l 2
 919.666666667 881.333333333 869.5 837.5 816.5 800.5 c 0
 763.5 763.5 727.666666667 741.666666667 709 735 c 1
 708 734 l 1
 746 716.666666667 785.666666667 686.333333333 827 643 c 0
 868.333333333 599.666666667 899 554 919 506 c 2
 1105 66 l 2
 1123.66666667 22 1112.66666667 0 1072 0 c 2
 965 0 l 2
 933.666666667 0 913.333333333 13 904 39 c 2
 768 408 l 2
 741.333333333 480 699.5 538.833333333 642.5 584.5 c 0
 585.5 630.166666667 521.333333333 653 450 653 c 2
 393 653 l 1
 255 55 l 2
 246.333333333 18.3333333333 225.333333333 0 192 0 c 2
 100 0 l 2
EndSplineSet
Validated: 524321
EndChar

StartChar: afii10024
Encoding: 1046 1046 84
Width: 1928
Flags: W
HStem: 0 21G<-62 121 781.333 906.667 1607.33 1750> 653 160<756.199 899 1128 1279.89> 1414 20G<299 431.667 1112.33 1237.67 1878.33 2051.33>
LayerCount: 2
Back
SplineSet
-42 0 m 2
 -82 0 -83 22 -45 66 c 2
 337 506 l 2
 412.333333333 593.333333333 473.333333333 651.166666667 520 679.5 c 128
 566.666666667 707.833333333 609.333333333 726 648 734 c 1
 649 735 l 1
 633 741.666666667 607.833333333 762.833333333 573.5 798.5 c 128
 539.166666667 834.166666667 509.666666667 878.666666667 485 932 c 2
 287 1368 l 2
 267 1412 278 1434 320 1434 c 2
 437 1434 l 2
 466.333333333 1434 486.666666667 1421 498 1395 c 2
 662 1014 l 2
 688 953.333333333 718.666666667 904.666666667 754 868 c 128
 789.333333333 831.333333333 840 813 906 813 c 2
 936 813 l 1
 1066 1379 l 2
 1074.66666667 1415.66666667 1095.66666667 1434 1129 1434 c 2
 1221 1434 l 2
 1254.33333333 1434 1266.66666667 1415.66666667 1258 1379 c 2
 1128 813 l 1
 1158 813 l 2
 1224 813 1283 831.333333333 1335 868 c 128
 1387 904.666666667 1440 953.333333333 1494 1014 c 2
 1834 1395 l 2
 1857.33333333 1421 1883.66666667 1434 1913 1434 c 2
 2030 1434 l 2
 2072 1434 2073 1412 2033 1368 c 2
 1633 932 l 2
 1584.33333333 878.666666667 1534.5 834.166666667 1483.5 798.5 c 128
 1432.5 762.833333333 1397.66666667 741.666666667 1379 735 c 1
 1378 734 l 1
 1414 726 1448.66666667 707.833333333 1482 679.5 c 128
 1515.33333333 651.166666667 1549.66666667 593.333333333 1585 506 c 2
 1763 66 l 2
 1781 22 1770 0 1730 0 c 2
 1603 0 l 2
 1571.66666667 0 1551.33333333 13 1542 39 c 2
 1414 408 l 2
 1388.66666667 482 1351.33333333 541.333333333 1302 586 c 128
 1252.66666667 630.666666667 1197.33333333 653 1136 653 c 2
 1091 653 l 1
 953 55 l 2
 944.333333333 18.3333333333 923.333333333 0 890 0 c 2
 798 0 l 2
 764.666666667 0 752.333333333 18.3333333333 761 55 c 2
 899 653 l 1
 854 653 l 2
 792.666666667 653 727 630.666666667 657 586 c 128
 587 541.333333333 522 482 462 408 c 2
 164 39 l 2
 142.666666667 13 116.333333333 0 85 0 c 2
 -42 0 l 2
EndSplineSet
Fore
SplineSet
-42 0 m 2
 -82 0 -83 22 -45 66 c 2
 337 506 l 2
 413 593.333333333 474.166666667 651.166666667 520.5 679.5 c 0
 566.833333333 707.833333333 609.333333333 726 648 734 c 1
 649 735 l 1
 633 741.666666667 607.666666667 763 573 799 c 0
 538.333333333 835 509 879.333333333 485 932 c 2
 287 1368 l 2
 267 1412 278 1434 320 1434 c 2
 417 1434 l 2
 446.333333333 1434 466.666666667 1421 478 1395 c 2
 642 1014 l 2
 668 953.333333333 701.333333333 904.666666667 742 868 c 0
 782.666666667 831.333333333 837.333333333 813 906 813 c 2
 936 813 l 1
 1066 1379 l 2
 1074.66666667 1415.66666667 1095.66666667 1434 1129 1434 c 2
 1221 1434 l 2
 1254.33333333 1434 1266.66666667 1415.66666667 1258 1379 c 2
 1128 813 l 1
 1158 813 l 2
 1224 813 1280 831.666666667 1326 869 c 0
 1372 906.333333333 1421.33333333 954.666666667 1474 1014 c 2
 1814 1395 l 2
 1837.33333333 1421 1863.66666667 1434 1893 1434 c 2
 2030 1434 l 2
 2072.66666667 1434 2073.66666667 1412 2033 1368 c 2
 1633 932 l 2
 1583 877.333333333 1532.83333333 832.5 1482.5 797.5 c 0
 1432.16666667 762.5 1397.66666667 741.666666667 1379 735 c 1
 1378 734 l 1
 1414 726 1448.66666667 707.833333333 1482 679.5 c 0
 1515.33333333 651.166666667 1549.66666667 593.333333333 1585 506 c 2
 1763 66 l 2
 1781 22 1770 0 1730 0 c 2
 1623 0 l 2
 1591.66666667 0 1571.33333333 13 1562 39 c 2
 1434 408 l 2
 1408 482.666666667 1367.16666667 542.166666667 1311.5 586.5 c 0
 1255.83333333 630.833333333 1197.33333333 653 1136 653 c 2
 1091 653 l 1
 953 55 l 2
 944.333333333 18.3333333333 923.333333333 0 890 0 c 2
 798 0 l 2
 764.666666667 0 752.333333333 18.3333333333 761 55 c 2
 899 653 l 1
 854 653 l 2
 796.666666667 653 735.166666667 630.5 669.5 585.5 c 0
 603.833333333 540.5 541.333333333 481.333333333 482 408 c 6
 184 39 l 2
 163.333333333 13 137 0 105 0 c 2
 -42 0 l 2
EndSplineSet
Validated: 524321
EndChar

StartChar: P
Encoding: 80 80 85
Width: 1298
Flags: W
HStem: 0 21G<83.3333 208.667> 576 164<413 967.019> 1270 164<535 1029.96>
VStem: 1123 195<874.298 1184.17>
LayerCount: 2
Back
SplineSet
100 0 m 2
 66.6666666667 0 54.2324333333 18.3333333333 62.6973 55 c 2
 368.367 1379 l 2
 376.832333333 1415.66666667 397.731666667 1434 431.065 1434 c 2
 851.065 1434 l 2
 1077.72833333 1434 1221.91666667 1395.83333333 1283.63 1319.5 c 128
 1345.34333333 1243.16666667 1360.80666667 1138.33333333 1330.02 1005 c 256
 1299.24 871.666666667 1235.37 766.833333333 1138.41 690.5 c 128
 1041.45666667 614.166666667 879.646666667 576 652.98 576 c 2
 374.98 576 l 1
 254.697 55 l 2
 246.232333333 18.3333333333 225.333333333 0 192 0 c 2
 100 0 l 2
412.843 740 m 1
 693.843 740 l 2
 840.509666667 740 945.318666667 760.833333333 1008.27 802.5 c 128
 1071.22333333 844.166666667 1113.47333333 911.666666667 1135.02 1005 c 256
 1156.56666667 1098.33333333 1145.48333333 1165.83333333 1101.77 1207.5 c 128
 1058.05666667 1249.16666667 962.867333333 1270 816.202 1270 c 2
 535.202 1270 l 1
 412.843 740 l 1
EndSplineSet
Fore
SplineSet
100 0 m 2
 66.6666666667 0 54.3333333333 18.3333333333 63 55 c 2
 368 1379 l 2
 376.666666667 1415.66666667 397.666666667 1434 431 1434 c 2
 841 1434 l 2
 997 1434 1115.5 1399 1196.5 1329 c 0
 1277.5 1259 1318 1164.33333333 1318 1045 c 256
 1318 924.333333333 1269.5 816 1172.5 720 c 0
 1075.5 624 909 576 673 576 c 2
 375 576 l 1
 255 55 l 2
 246.333333333 18.3333333333 225.333333333 0 192 0 c 2
 100 0 l 2
413 740 m 1
 724 740 l 2
 862 740 963 766.166666667 1027 818.5 c 0
 1091 870.833333333 1123 939.666666667 1123 1025 c 256
 1123 1115.66666667 1098 1179.16666667 1048 1215.5 c 0
 998 1251.83333333 917.333333333 1270 806 1270 c 2
 535 1270 l 1
 413 740 l 1
EndSplineSet
Validated: 524321
EndChar

StartChar: B
Encoding: 66 66 86
Width: 1338
Flags: W
HStem: 0 164<280 842.824> 664 144<429 891.036> 1270 164<535 1014.12>
VStem: 1012 205<296.646 567.11> 1091 195<952.305 1201.46>
LayerCount: 2
Back
SplineSet
110 0 m 2
 76.6666666667 0 64.3333333333 18.3333333333 73 55 c 2
 378 1379 l 2
 386.666666667 1415.66666667 407.666666667 1434 441 1434 c 2
 533 1434 l 2
 566.333333333 1434 578.666666667 1415.66666667 570 1379 c 2
 443 828 l 1
 711 828 l 2
 905.666666667 828 1038.66666667 792.5 1110 721.5 c 128
 1181.33333333 650.5 1217 561.333333333 1217 454 c 256
 1217 331.333333333 1163.66666667 225 1057 135 c 128
 950.333333333 45 784.666666667 0 560 0 c 2
 110 0 l 2
290 164 m 1
 566 164 l 2
 709.333333333 164 819.5 188.666666667 896.5 238 c 128
 973.5 287.333333333 1012 356 1012 444 c 256
 1012 538 981 598.166666667 919 624.5 c 128
 857 650.833333333 764.333333333 664 641 664 c 2
 405 664 l 1
 290 164 l 1
70 0 m 2
 36.6666666667 0 24.3333333333 18.3333333333 33 55 c 2
 338 1379 l 2
 346.666666667 1415.66666667 367.666666667 1434 401 1434 c 2
 811 1434 l 2
 967 1434 1085.5 1399 1166.5 1329 c 128
 1247.5 1259 1288 1164.33333333 1288 1045 c 256
 1288 924.333333333 1239.5 816 1142.5 720 c 128
 1045.5 624 879 576 643 576 c 2
 345 576 l 1
 225 55 l 2
 216.333333333 18.3333333333 195.333333333 0 162 0 c 2
 70 0 l 2
383 740 m 1
 694 740 l 2
 832 740 933 766.166666667 997 818.5 c 128
 1061 870.833333333 1093 939.666666667 1093 1025 c 256
 1093 1115.66666667 1068 1179.16666667 1018 1215.5 c 128
 968 1251.83333333 887.333333333 1270 776 1270 c 2
 505 1270 l 1
 383 740 l 1
100 0 m 2
 66.6666666667 0 54.2324333333 18.3333333333 62.6973 55 c 2
 368.367 1379 l 2
 376.832333333 1415.66666667 397.731666667 1434 431.065 1434 c 2
 821.065 1434 l 2
 1047.72833333 1434 1191.93 1397.33333333 1253.67 1324 c 128
 1315.40333333 1250.66666667 1334.34333333 1162.33333333 1310.49 1059 c 256
 1291.55666667 977 1242.84333333 907.5 1164.35 850.5 c 128
 1085.85666667 793.5 1014.79033333 760 951.151 750 c 1
 950.459 747 l 1
 1016.40633333 741 1083.84 707.5 1152.76 646.5 c 128
 1221.67333333 585.5 1244.05 502.666666667 1219.89 398 c 256
 1193.72333333 284.666666667 1130.03333333 190 1028.82 114 c 128
 927.606666667 38 764.666666667 0 540 0 c 2
 100 0 l 2
1016.27 404 m 256
 1056.29 577.333333333 937.965666667 664 661.297 664 c 2
 395.297 664 l 1
 279.862 164 l 1
 545.862 164 l 2
 689.195333333 164 798.274333333 181.666666667 873.099 217 c 128
 947.922333333 252.333333333 995.646 314.666666667 1016.27 404 c 256
428.541 808 m 1
 679.541 808 l 2
 790.874333333 808 887.210333333 831.833333333 968.549 879.5 c 128
 1049.88966667 927.166666667 1098.87 987 1115.49 1059 c 256
 1131.34333333 1127.66666667 1117.09333333 1180 1072.74 1216 c 128
 1028.38 1252 932.867333333 1270 786.202 1270 c 2
 535.202 1270 l 1
 428.541 808 l 1
EndSplineSet
Fore
SplineSet
100 0 m 2xf0
 66.6666666667 0 54.3333333333 18.3333333333 63 55 c 2
 368 1379 l 2
 376.666666667 1415.66666667 397.666666667 1434 431 1434 c 2
 801 1434 l 2
 983 1434 1109.33333333 1400.5 1180 1333.5 c 0
 1250.66666667 1266.5 1286 1183.33333333 1286 1084 c 256xe8
 1286 991.333333333 1254.16666667 917.5 1190.5 862.5 c 0
 1126.83333333 807.5 1047.66666667 770 953 750 c 1
 953 747 l 1
 1021.66666667 733 1082.83333333 699.5 1136.5 646.5 c 0
 1190.16666667 593.5 1217 521.666666667 1217 431 c 256
 1217 319.666666667 1166.66666667 220 1066 132 c 0
 965.333333333 44 800 0 570 0 c 2
 100 0 l 2xf0
280 164 m 1
 576 164 l 2
 716 164 823.666666667 187.666666667 899 235 c 0
 974.333333333 282.333333333 1012 350.333333333 1012 439 c 256xf0
 1012 519.666666667 977.833333333 577.333333333 909.5 612 c 0
 841.166666667 646.666666667 748.333333333 664 631 664 c 2
 395 664 l 1
 280 164 l 1
429 808 m 1
 700 808 l 2
 794.666666667 808 883.5 833.333333333 966.5 884 c 0
 1049.5 934.666666667 1091 998.666666667 1091 1076 c 256xe8
 1091 1144.66666667 1066.66666667 1194.16666667 1018 1224.5 c 0
 969.333333333 1254.83333333 885.333333333 1270 766 1270 c 2
 535 1270 l 1
 429 808 l 1
EndSplineSet
Validated: 8912929
EndChar

StartChar: hyphen
Encoding: 45 45 89
Width: 680
Flags: W
HStem: 483 140<70.0508 625.949>
VStem: 56 584
LayerCount: 2
Fore
SplineSet
93 483 m 2
 63 483 50.6666666667 494.666666667 56 518 c 2
 72 588 l 2
 77.3333333333 611.333333333 95 623 125 623 c 2
 603 623 l 2
 633 623 645.333333333 611.333333333 640 588 c 2
 624 518 l 2
 618.666666667 494.666666667 601 483 571 483 c 2
 93 483 l 2
EndSplineSet
Validated: 524289
EndChar

StartChar: endash
Encoding: 8211 8211 90
Width: 1032
Flags: W
HStem: 488 130<44 996>
LayerCount: 2
Fore
SplineSet
89 488 m 2
 59 488 44 499.666666667 44 523 c 2
 44 583 l 2
 44 606.333333333 59 618 89 618 c 2
 951 618 l 2
 981 618 996 606.333333333 996 583 c 2
 996 523 l 2
 996 499.666666667 981 488 951 488 c 2
 89 488 l 2
EndSplineSet
Validated: 524289
EndChar

StartChar: C
Encoding: 67 67 91
Width: 1392
Flags: W
HStem: -30 156<511.906 923.346> 1308 156<668.856 1080.41>
VStem: 110 205<338.259 898.572>
LayerCount: 2
Back
SplineSet
110 580 m 4
 110 846.666666667 181.333333333 1060.66666667 324 1222 c 132
 466.666666667 1383.33333333 651.333333333 1464 878 1464 c 260
 1081.33333333 1464 1235 1409.83333333 1339 1301.5 c 132
 1443 1193.16666667 1495 1044 1495 854 c 4
 1495 587.333333333 1423.66666667 373.333333333 1281 212 c 132
 1138.33333333 50.6666666667 953.666666667 -30 727 -30 c 260
 523.666666667 -30 370 24.1666666667 266 132.5 c 132
 162 240.833333333 110 390 110 580 c 4
315 556 m 4
 315 419.333333333 350.5 313.5 421.5 238.5 c 132
 492.5 163.5 598 126 738 126 c 260
 884.666666667 126 1013.33333333 187.166666667 1124 309.5 c 132
 1234.66666667 431.833333333 1290 621.333333333 1290 878 c 4
 1290 1014.66666667 1254.5 1120.5 1183.5 1195.5 c 132
 1112.5 1270.5 1007 1308 867 1308 c 260
 720.333333333 1308 591.666666667 1246.83333333 481 1124.5 c 132
 370.333333333 1002.16666667 315 812.666666667 315 556 c 4
EndSplineSet
Fore
SplineSet
110 580 m 0
 110 843.333333333 180.166666667 1056.5 320.5 1219.5 c 0
 460.833333333 1382.5 656.666666667 1464 908 1464 c 256
 1030.66666667 1464 1130 1442.66666667 1206 1400 c 0
 1282 1357.33333333 1335.66666667 1300.66666667 1367 1230 c 256
 1382.33333333 1194.66666667 1374.66666667 1168 1344 1150 c 258
 1266 1104 l 258
 1248 1093.33333333 1230.66666667 1102.66666667 1214 1132 c 256
 1194 1168 1157.66666667 1206.33333333 1105 1247 c 0
 1052.33333333 1287.66666667 981 1308 891 1308 c 256
 724.333333333 1308 586.666666667 1247 478 1125 c 0
 369.333333333 1003 315 813.666666667 315 557 c 0
 315 435.666666667 347 333.5 411 250.5 c 0
 475 167.5 583.666666667 126 737 126 c 256
 827.666666667 126 904.5 149.833333333 967.5 197.5 c 24
 1030.5 245.166666667 1079.33333333 293 1114 341 c 256
 1142 379.666666667 1168 391.333333333 1192 376 c 258
 1282 318 l 258
 1304 304 1301.33333333 277.333333333 1274 238 c 256
 1221.33333333 161.333333333 1150.33333333 97.5 1061 46.5 c 24
 971.666666667 -4.5 854.666666667 -30 710 -30 c 256
 508.666666667 -30 358.333333333 27.5 259 142.5 c 0
 159.666666667 257.5 110 403.333333333 110 580 c 0
EndSplineSet
Validated: 524321
EndChar

StartChar: T
Encoding: 84 84 92
Width: 1240
Flags: W
HStem: 0 21G<437.333 562.667> 1262 172<237.438 695 887 1385.8>
LayerCount: 2
Back
SplineSet
76 1313 m 2
 76 1372 l 2
 76 1394.66666667 78.8333333333 1409.16666667 84.5 1415.5 c 128
 90.1666666667 1421.83333333 100.666666667 1426.33333333 116 1429 c 0
 118.666666667 1429.66666667 121 1430 123 1430 c 2
 1339 1430 l 2
 1369 1430 1387.5 1425.66666667 1394.5 1417 c 128
 1401.5 1408.33333333 1405 1390 1405 1362 c 2
 1405 1327 l 2
 1405 1302.33333333 1401.33333333 1286 1394 1278 c 128
 1386.66666667 1270 1370.66666667 1266 1346 1266 c 2
 836 1266 l 1
 836 61 l 2
 836 31.6666666667 830.333333333 13.3333333333 819 6 c 1
 817.666666667 6 816.166666667 5.66666666667 814.5 5 c 128
 812.833333333 4.33333333333 811.666666667 4 811 4 c 2
 805.666666667 1.33333333333 797.333333333 0 786 0 c 2
 711 0 l 2
 694.333333333 0 681.333333333 0.833333333333 672 2.5 c 128
 662.666666667 4.16666666667 656.166666667 8.66666666667 652.5 16 c 128
 648.833333333 23.3333333333 646.666666667 29.8333333333 646 35.5 c 128
 645.333333333 41.1666666667 645 52 645 68 c 2
 645 1266 l 1
 133 1266 l 2
 123 1266 114.666666667 1266.5 108 1267.5 c 128
 101.333333333 1268.5 95.8333333333 1271.16666667 91.5 1275.5 c 128
 87.1666666667 1279.83333333 84 1282.83333333 82 1284.5 c 128
 80 1286.16666667 78.5 1290.83333333 77.5 1298.5 c 128
 76.5 1306.16666667 76 1311 76 1313 c 2
EndSplineSet
Fore
SplineSet
262 1262 m 2
 225.333333333 1262 210.666666667 1277 218 1307 c 2
 237 1389 l 2
 243.666666667 1419 265.333333333 1434 302 1434 c 2
 1360 1434 l 2
 1396.66666667 1434 1411.66666667 1419 1405 1389 c 2
 1386 1307 l 2
 1378.66666667 1277 1356.66666667 1262 1320 1262 c 2
 887 1262 l 1
 609 55 l 2
 600.333333333 18.3333333333 579.333333333 0 546 0 c 2
 454 0 l 2
 420.666666667 0 408.333333333 18.3333333333 417 55 c 2
 695 1262 l 1
 262 1262 l 2
EndSplineSet
Validated: 524321
EndChar

StartChar: V
Encoding: 86 86 93
Width: 1338
Flags: W
HStem: 0 21G<464.667 633.333> 1414 20G<267 392.333 1344 1493.33>
LayerCount: 2
Back
SplineSet
242 1368 m 18
 235.333333333 1412 249.333333333 1434 284 1434 c 2
 386 1434 l 2
 422 1434 442.333333333 1417.66666667 447 1385 c 10
 565 490 l 2
 570.333333333 450.666666667 575.833333333 397.833333333 581.5 331.5 c 128
 587.166666667 265.166666667 589 212.333333333 587 173 c 1
 591 173 l 1
 607.666666667 212.333333333 634.166666667 265.166666667 670.5 331.5 c 128
 706.833333333 397.833333333 736.333333333 450.666666667 759 490 c 2
 1291 1385 l 18
 1310.33333333 1417.66666667 1338 1434 1374 1434 c 2
 1476 1434 l 2
 1510.66666667 1434 1514.66666667 1412 1488 1368 c 10
 699 61 l 2
 674.333333333 20.3333333333 647.666666667 0 619 0 c 2
 479 0 l 2
 450.333333333 0 433 20.3333333333 427 61 c 2
 242 1368 l 18
EndSplineSet
Fore
SplineSet
242 1368 m 18
 236 1412 250 1434 284 1434 c 2
 374 1434 l 2
 410.666666667 1434 431 1417.66666667 435 1385 c 10
 553 490 l 2
 558.333333333 450.666666667 563.333333333 398.333333333 568 333 c 0
 572.666666667 267.666666667 575 214.333333333 575 173 c 1
 579 173 l 1
 596.333333333 215 623.5 269.666666667 660.5 337 c 0
 697.5 404.333333333 726.333333333 455.333333333 747 490 c 2
 1279 1385 l 18
 1298.33333333 1417.66666667 1326 1434 1362 1434 c 2
 1476 1434 l 2
 1510.66666667 1434 1514.66666667 1412 1488 1368 c 10
 699 61 l 2
 674.333333333 20.3333333333 647.666666667 0 619 0 c 2
 479 0 l 2
 450.333333333 0 433 20.3333333333 427 61 c 2
 242 1368 l 18
EndSplineSet
Validated: 524321
EndChar

StartChar: A
Encoding: 65 65 94
Width: 1360
Flags: W
HStem: 0 21G<-64 83 1058.33 1184.67> 380 164<441 929> 1414 20G<776.333 944.667>
LayerCount: 2
Back
SplineSet
785.982 1373 m 6
 1012.24 66 l 1030
158.237 66 m 2
 927.982 1373 l 1026
-58.7627 66 m 2
 710.982 1373 l 1026
982.982 1373 m 2
 1209.24 66 l 1026
EndSplineSet
Fore
SplineSet
-47 0 m 2
 -81 0 -85 22 -59 66 c 2
 711 1373 l 2
 735 1413.66666667 761.666666667 1434 791 1434 c 2
 931 1434 l 2
 958.333333333 1434 975.666666667 1413.66666667 983 1373 c 2
 1209 66 l 2
 1216.33333333 22 1202.33333333 0 1167 0 c 2
 1076 0 l 2
 1040.66666667 0 1020.33333333 16.3333333333 1015 49 c 2
 958 380 l 1
 343 380 l 1
 148 49 l 2
 128.666666667 16.3333333333 101 0 65 0 c 2
 -47 0 l 2
441 544 m 1
 929 544 l 1
 859 944 l 2
 850.333333333 992 843.333333333 1044.5 838 1101.5 c 0
 832.666666667 1158.5 830 1211.66666667 830 1261 c 1
 826 1261 l 1
 814 1213.66666667 795.333333333 1165.33333333 770 1116 c 0
 744.666666667 1066.66666667 713 1009.33333333 675 944 c 2
 441 544 l 1
EndSplineSet
Validated: 524321
EndChar

StartChar: afii10029
Encoding: 1051 1051 98
Width: 1474
Flags: W
HStem: -30 157<-41.6477 216.002> 0 21G<1025.33 1150.67> 1270 164<773 1285>
LayerCount: 2
Fore
SplineSet
-46 -17 m 256xa0
 -66.6666666667 -9.66666666667 -73.6666666667 5.66666666667 -67 29 c 2
 -42 112 l 2
 -34.6666666667 136.666666667 -15.6666666667 144.333333333 15 135 c 256
 32.3333333333 129.666666667 58 127 92 127 c 0xa0
 204.666666667 127 295.166666667 214.833333333 363.5 390.5 c 0
 431.833333333 566.166666667 498.333333333 795 563 1077 c 2
 632 1379 l 2
 640.666666667 1415.66666667 661.666666667 1434 695 1434 c 2
 1465 1434 l 2
 1498.33333333 1434 1510.66666667 1415.66666667 1502 1379 c 2
 1197 55 l 2
 1188.33333333 18.3333333333 1167.33333333 0 1134 0 c 2
 1042 0 l 2x60
 1008.66666667 0 996.333333333 18.3333333333 1005 55 c 2
 1285 1270 l 1
 773 1270 l 1
 716 1021 l 2
 620 602.333333333 529.166666667 322.5 443.5 181.5 c 0
 357.833333333 40.5 236.333333333 -30 79 -30 c 0
 20.3333333333 -30 -21.3333333333 -25.6666666667 -46 -17 c 256xa0
EndSplineSet
Validated: 8912929
EndChar

StartChar: afii10038
Encoding: 1060 1060 99
Width: 1728
Flags: W
HStem: -12 21G<678.333 803.667> 200 150<465.368 694 921 1221.34> 1110 150<603.664 904 1131 1359.63> 1419 20G<1013.67 1138.67>
VStem: 122 205<470.39 852.604> 1498 205<607.396 989.61>
LayerCount: 2
Back
SplineSet
140.534 730 m 256
 183.629333333 916.666666667 270.629666667 1051.66666667 401.535 1135 c 128
 532.441 1218.33333333 691.227333333 1260 877.894 1260 c 2
 950.894 1260 l 1
 979.521 1384 l 2
 987.987 1420.66666667 1008.88666667 1439 1042.22 1439 c 2
 1134.22 1439 l 2
 1167.55333333 1439 1179.98666667 1420.66666667 1171.52 1384 c 2
 1142.89 1260 l 1
 1215.89 1260 l 2
 1402.55666667 1260 1542.10666667 1218.33333333 1634.54 1135 c 128
 1726.96666667 1051.66666667 1751.63 916.666666667 1708.53 730 c 256
 1665.43666667 543.333333333 1578.43666667 408.333333333 1447.53 325 c 128
 1316.62333333 241.666666667 1157.838 200 971.174 200 c 2
 898.174 200 l 1
 861.928 43 l 2
 853.462 6.33333333333 832.562333333 -12 799.229 -12 c 2
 707.229 -12 l 2
 673.895666667 -12 661.462 6.33333333333 669.928 43 c 2
 706.174 200 l 1
 633.174 200 l 2
 446.507333333 200 306.96 241.666666667 214.532 325 c 128
 122.1044 408.333333333 97.4384 543.333333333 140.534 730 c 256
345.534 730 m 256
 314.751333333 596.666666667 326.267333333 500 380.082 440 c 128
 433.896666667 380 537.470666667 350 690.804 350 c 2
 740.804 350 l 1
 916.264 1110 l 1
 866.264 1110 l 2
 712.930666667 1110 595.504333333 1080 513.985 1020 c 128
 432.466333333 960 376.316 863.333333333 345.534 730 c 256
932.804 350 m 1
 982.804 350 l 2
 1136.13466667 350 1253.56 380 1335.08 440 c 128
 1416.6 500 1472.75 596.666666667 1503.53 730 c 256
 1534.31666667 863.333333333 1522.80333333 960 1468.99 1020 c 128
 1415.17 1080 1311.59333333 1110 1158.26 1110 c 2
 1108.26 1110 l 1
 932.804 350 l 1
EndSplineSet
Fore
SplineSet
122 650 m 256
 122 828 187.333333333 974.166666667 318 1088.5 c 0
 448.666666667 1202.83333333 621.333333333 1260 836 1260 c 2
 939 1260 l 1
 968 1384 l 2
 976.666666667 1420.66666667 997.333333333 1439 1030 1439 c 2
 1122 1439 l 2
 1155.33333333 1439 1168 1420.66666667 1160 1384 c 2
 1131 1260 l 1
 1174 1260 l 2
 1349.33333333 1260 1481.33333333 1219.5 1570 1138.5 c 0
 1658.66666667 1057.5 1703 948 1703 810 c 256
 1703 632 1637.66666667 485.833333333 1507 371.5 c 0
 1376.33333333 257.166666667 1203.66666667 200 989 200 c 2
 886 200 l 1
 850 43 l 2
 841.333333333 6.33333333333 820.333333333 -12 787 -12 c 2
 695 -12 l 2
 661.666666667 -12 649.333333333 6.33333333333 658 43 c 2
 694 200 l 1
 651 200 l 2
 475.666666667 200 343.666666667 240.5 255 321.5 c 0
 166.333333333 402.5 122 512 122 650 c 256
327 630 m 256
 327 537.333333333 357.666666667 467.5 419 420.5 c 0
 480.333333333 373.5 577 350 709 350 c 2
 729 350 l 1
 904 1110 l 1
 824 1110 l 2
 687.333333333 1110 570.333333333 1069.33333333 473 988 c 0
 375.666666667 906.666666667 327 787.333333333 327 630 c 256
921 350 m 1
 1001 350 l 2
 1137.66666667 350 1254.66666667 390.666666667 1352 472 c 0
 1449.33333333 553.333333333 1498 672.666666667 1498 830 c 256
 1498 922.666666667 1467.33333333 992.5 1406 1039.5 c 0
 1344.66666667 1086.5 1248 1110 1116 1110 c 2
 1096 1110 l 1
 921 350 l 1
EndSplineSet
Validated: 524321
EndChar

StartChar: g
Encoding: 103 103 100
Width: 1119
Flags: W
HStem: -417 130<150.229 528.583> -17 130<327.016 567.391> 937 130<481.158 798.824> 1030 20G<958.333 1069>
VStem: 70 186<191.965 632.081>
LayerCount: 2
Back
SplineSet
86 525 m 256
 119.333333333 668.333333333 183.166666667 794.5 277.5 903.5 c 128
 371.833333333 1012.5 485.666666667 1067 619 1067 c 256
 695.666666667 1067 754.166666667 1054.33333333 794.5 1029 c 128
 834.833333333 1003.66666667 868.333333333 969 895 925 c 1
 897 925 l 1
 921 1005 l 2
 930.333333333 1035 946.666666667 1050 970 1050 c 2
 1054 1050 l 2
 1084 1050 1095.66666667 1035 1089 1005 c 2
 855 -8 l 2
 825.666666667 -136 773.166666667 -236.166666667 697.5 -308.5 c 128
 621.833333333 -380.833333333 497 -417 323 -417 c 256
 206.333333333 -417 122 -403.833333333 70 -377.5 c 152
 18 -351.166666667 -17 -323.333333333 -35 -294 c 256
 -47.6666666667 -272 -44.3333333333 -253.333333333 -25 -238 c 2
 43 -184 l 2
 61 -169.333333333 81 -174 103 -198 c 256
 131 -230 159.833333333 -252.833333333 189.5 -266.5 c 128
 219.166666667 -280.166666667 274 -287 354 -287 c 256
 444.666666667 -287 515.333333333 -267.666666667 566 -229 c 128
 616.666666667 -190.333333333 656 -110.333333333 684 11 c 2
 697 71 l 2
 702.333333333 91.6666666667 707.666666667 112 713 132 c 1
 711 132 l 1
 666.333333333 86 617.333333333 49.6666666667 564 23 c 128
 510.666666667 -3.66666666667 445.666666667 -17 369 -17 c 256
 235.666666667 -17 147 37.5 103 146.5 c 128
 59 255.5 53.3333333333 381.666666667 86 525 c 256
272 525 m 256
 244 402.333333333 242.333333333 303 267 227 c 128
 291.666666667 151 354.666666667 113 456 113 c 256
 528 113 593.5 137.5 652.5 186.5 c 128
 711.5 235.5 752.666666667 310 776 410 c 2
 829 640 l 2
 851.666666667 740 844.833333333 814.5 808.5 863.5 c 128
 772.166666667 912.5 718 937 646 937 c 256
 544.666666667 937 464.166666667 899 404.5 823 c 128
 344.833333333 747 300.666666667 647.666666667 272 525 c 256
EndSplineSet
Fore
SplineSet
70 379 m 0xd8
 70 549 123.666666667 706.166666667 231 850.5 c 0
 338.333333333 994.833333333 464.666666667 1067 610 1067 c 256xe8
 684 1067 741.666666667 1055.83333333 783 1033.5 c 0
 824.333333333 1011.16666667 862 977.333333333 896 932 c 1
 898 932 l 1
 921 1005 l 2
 930.333333333 1035 946.666666667 1050 970 1050 c 2
 1054 1050 l 2
 1084 1050 1095.66666667 1035 1089 1005 c 2
 855 -8 l 2
 823.666666667 -144.666666667 770.333333333 -247 695 -315 c 0
 619.666666667 -383 495.666666667 -417 323 -417 c 256
 233 -417 159.333333333 -406.166666667 102 -384.5 c 24
 44.6666666667 -362.833333333 5.33333333333 -334 -16 -298 c 256
 -30 -274.666666667 -28.6666666667 -254.666666667 -12 -238 c 2
 38 -190 l 2
 54.6666666667 -173.333333333 73.3333333333 -176 94 -198 c 256
 119.333333333 -224.666666667 151.333333333 -246.166666667 190 -262.5 c 0
 228.666666667 -278.833333333 283.333333333 -287 354 -287 c 256
 436.666666667 -287 506.166666667 -264.5 562.5 -219.5 c 0
 618.833333333 -174.5 659.333333333 -97.6666666667 684 11 c 2
 705 104 l 2
 709 122 714.333333333 142.333333333 721 165 c 1
 719 165 l 1
 689.666666667 112.333333333 644 68.8333333333 582 34.5 c 0
 520 0.166666666667 462.333333333 -17 409 -17 c 256
 282.333333333 -17 194.166666667 21.8333333333 144.5 99.5 c 0
 94.8333333333 177.166666667 70 270.333333333 70 379 c 0xd8
256 372 m 0
 256 302.666666667 271 242.166666667 301 190.5 c 0
 331 138.833333333 383.666666667 113 459 113 c 256
 524.333333333 113 590.833333333 152.166666667 658.5 230.5 c 0
 726.166666667 308.833333333 770.333333333 392 791 480 c 2
 856 760 l 17
 849.333333333 826.666666667 827.666666667 872.833333333 791 898.5 c 0
 754.333333333 924.166666667 698.666666667 937 624 937 c 256
 522.666666667 937 436 880.5 364 767.5 c 0
 292 654.5 256 522.666666667 256 372 c 0
EndSplineSet
Validated: 8912897
EndChar

StartChar: u
Encoding: 117 117 101
Width: 1120
Flags: W
HStem: -17 130<304.084 545.406> 0 21G<714 828> 1030 20G<292 408 954 1070>
LayerCount: 2
Back
SplineSet
104 366 m 2
 252 1005 l 2
 258.666666667 1035 277 1050 307 1050 c 2
 393 1050 l 2
 423 1050 434.666666667 1035 428 1005 c 2
 292 414 l 2
 261.333333333 283.333333333 262.166666667 200.5 294.5 165.5 c 128
 326.833333333 130.5 378 113 448 113 c 256
 524.666666667 113 593.166666667 138.833333333 653.5 190.5 c 128
 713.833333333 242.166666667 758.333333333 330.666666667 787 456 c 2
 914 1005 l 2
 920.666666667 1035 939 1050 969 1050 c 2
 1055 1050 l 2
 1085 1050 1096.66666667 1035 1090 1005 c 2
 868 45 l 2
 861.333333333 15 843 0 813 0 c 2
 729 0 l 2
 699 0 687.333333333 15 694 45 c 2
 713 125 l 1
 709 125 l 1
 654.333333333 77 600.5 41.3333333333 547.5 18 c 128
 494.5 -5.33333333333 429.666666667 -17 353 -17 c 256
 246.333333333 -17 171.333333333 17.1666666667 128 85.5 c 128
 84.6666666667 153.833333333 76.6666666667 247.333333333 104 366 c 2
EndSplineSet
Fore
SplineSet
104 366 m 2xa0
 252 1005 l 2
 258.666666667 1035 277 1050 307 1050 c 2
 393 1050 l 2
 423 1050 434.666666667 1035 428 1005 c 2
 292 414 l 2
 262 282.666666667 263 199.666666667 295 165 c 0
 327 130.333333333 378 113 448 113 c 256xa0
 546 113 622.666666667 151.833333333 678 229.5 c 0
 733.333333333 307.166666667 772.666666667 396 796 496 c 2
 914 1005 l 2
 920.666666667 1035 939 1050 969 1050 c 2
 1055 1050 l 2
 1085 1050 1096.66666667 1035 1090 1005 c 2
 868 45 l 2
 861.333333333 15 843 0 813 0 c 2
 729 0 l 2x60
 699 0 687.333333333 15 694 45 c 2
 722 165 l 1
 718 165 l 1
 678.666666667 116.333333333 627.166666667 73.8333333333 563.5 37.5 c 0
 499.833333333 1.16666666667 429.666666667 -17 353 -17 c 256
 246.333333333 -17 171.333333333 17.1666666667 128 85.5 c 0
 84.6666666667 153.833333333 76.6666666667 247.333333333 104 366 c 2xa0
EndSplineSet
Validated: 8912929
EndChar

StartChar: z
Encoding: 122 122 102
Width: 950
Flags: W
HStem: 0 132<179 784.675> 918 132<191.325 745>
LayerCount: 2
Back
SplineSet
213.324 166 m 6
 950.398 920 l 1033
8.32422 166 m 2
 745.398 920 l 1033
EndSplineSet
Fore
SplineSet
-20 0 m 2
 -50 0 -62.3333333333 11.6666666667 -57 35 c 2
 -45 86 l 2
 -39.6666666667 108.666666667 -22 135.333333333 8 166 c 2
 745 918 l 9
 745 920 l 25
 725 918.666666667 705 918 685 918 c 2
 216 918 l 2
 186 918 173.666666667 929.666666667 179 953 c 2
 193 1015 l 2
 198.333333333 1038.33333333 216 1050 246 1050 c 2
 948 1050 l 2
 978 1050 990.333333333 1038.33333333 985 1015 c 2
 974 968 l 2
 969.333333333 949.333333333 951 923.333333333 919 890 c 2
 179 132 l 9
 179 130 l 17
 199 131.333333333 219 132 239 132 c 2
 760 132 l 2
 790 132 802.333333333 120.333333333 797 97 c 2
 783 35 l 2
 777.666666667 11.6666666667 760 0 730 0 c 2
 -20 0 l 2
EndSplineSet
Validated: 524289
EndChar

StartChar: m
Encoding: 109 109 103
Width: 1678
Flags: W
HStem: 0 21G<52 168 662 778 1272 1388> 937 130<571.817 779.817 1177.59 1389.87> 1030 20G<294 408>
LayerCount: 2
Back
SplineSet
67 0 m 2
 37 0 25.3333333333 15 32 45 c 2
 254 1005 l 2
 260.666666667 1035 279 1050 309 1050 c 2
 393 1050 l 2
 423 1050 434.666666667 1035 428 1005 c 2
 410 925 l 1
 414 925 l 1
 468 973 519.666666667 1008.66666667 569 1032 c 128
 618.333333333 1055.33333333 673 1067 733 1067 c 256
 806.333333333 1067 864.5 1045.5 907.5 1002.5 c 128
 950.5 959.5 973.666666667 916.333333333 977 873 c 1
 981 873 l 1
 1029.66666667 927.666666667 1083 973.666666667 1141 1011 c 128
 1199 1048.33333333 1266.33333333 1067 1343 1067 c 256
 1436.33333333 1067 1505.33333333 1032.83333333 1550 964.5 c 128
 1594.66666667 896.166666667 1603.33333333 802.666666667 1576 684 c 2
 1428 45 l 2
 1421.33333333 15 1403 0 1373 0 c 2
 1287 0 l 2
 1257 0 1245.33333333 15 1252 45 c 2
 1387 626 l 2
 1417 756.666666667 1421.33333333 841.166666667 1400 879.5 c 128
 1378.66666667 917.833333333 1331.33333333 937 1258 937 c 256
 1198 937 1137.5 908.5 1076.5 851.5 c 128
 1015.5 794.5 971.666666667 708.666666667 945 594 c 2
 818 45 l 2
 811.333333333 15 793 0 763 0 c 2
 677 0 l 2
 647 0 635.333333333 15 642 45 c 2
 777 626 l 2
 807 756.666666667 811.333333333 841.166666667 790 879.5 c 128
 768.666666667 917.833333333 721.333333333 937 648 937 c 256
 588 937 528.166666667 911.166666667 468.5 859.5 c 128
 408.833333333 807.833333333 364.333333333 719.333333333 335 594 c 2
 208 45 l 2
 201.333333333 15 183 0 153 0 c 2
 67 0 l 2
EndSplineSet
Fore
SplineSet
67 0 m 2xc0
 37 0 25.3333333333 15 32 45 c 2
 254 1005 l 2
 260.666666667 1035 279 1050 309 1050 c 2
 393 1050 l 2xa0
 423 1050 434.666666667 1035 428 1005 c 2
 401 885 l 1
 405 885 l 1
 444.333333333 933 493.833333333 975.333333333 553.5 1012 c 0
 613.166666667 1048.66666667 673 1067 733 1067 c 256
 806.333333333 1067 863.833333333 1043.83333333 905.5 997.5 c 0
 947.166666667 951.166666667 968 896.333333333 968 833 c 1
 972 833 l 1
 1014 887.666666667 1067.16666667 940.333333333 1131.5 991 c 0
 1195.83333333 1041.66666667 1266.33333333 1067 1343 1067 c 256
 1436.33333333 1067 1505.33333333 1032.83333333 1550 964.5 c 0
 1594.66666667 896.166666667 1603.33333333 802.666666667 1576 684 c 2
 1428 45 l 2
 1421.33333333 15 1403 0 1373 0 c 2
 1287 0 l 2
 1257 0 1245.33333333 15 1252 45 c 2
 1387 626 l 2
 1417 756 1421.33333333 840.333333333 1400 879 c 0
 1378.66666667 917.666666667 1331.33333333 937 1258 937 c 256
 1198 937 1134.83333333 896.833333333 1068.5 816.5 c 0
 1002.16666667 736.166666667 958 648.666666667 936 554 c 2
 818 45 l 2
 811.333333333 15 793 0 763 0 c 2
 677 0 l 2
 647 0 635.333333333 15 642 45 c 2
 777 626 l 2
 807 756 811.333333333 840.333333333 790 879 c 0
 768.666666667 917.666666667 721.333333333 937 648 937 c 256
 588 937 525.166666667 898.166666667 459.5 820.5 c 0
 393.833333333 742.833333333 349.333333333 654 326 554 c 2
 208 45 l 2
 201.333333333 15 183 0 153 0 c 2
 67 0 l 2xc0
EndSplineSet
Validated: 8912929
EndChar

StartChar: afii10044
Encoding: 1066 1066 105
Width: 1700
Flags: W
HStem: 0 164<672 1218.89> 664 164<825 1306.45> 1270 164<237.161 735>
VStem: 1394 205<303.521 589.308>
LayerCount: 2
Back
SplineSet
671.862 164 m 1
 927.862 164 l 2
 1071.194 164 1180.62 183.166666667 1256.14 221.5 c 128
 1331.65333333 259.833333333 1379.8 324 1400.58 414 c 256
 1421.36 504 1402.84 568.166666667 1345.02 606.5 c 128
 1287.20666667 644.833333333 1186.63333333 664 1043.3 664 c 2
 787.297 664 l 1
 671.862 164 l 1
264.202 1270 m 2
 227.535333333 1270 212.665333333 1285 219.592 1315 c 2
 236.676 1389 l 2
 243.602 1419 265.398333333 1434 302.065 1434 c 2
 915.065 1434 l 2
 948.398333333 1434 960.832333333 1415.66666667 952.367 1379 c 2
 825.159 828 l 1
 1113.16 828 l 2
 1337.82666667 828 1483.37333333 790.666666667 1549.8 716 c 128
 1616.22666667 641.333333333 1634.82 540.666666667 1605.58 414 c 256
 1576.33333333 287.333333333 1511.26 186.666666667 1410.36 112 c 128
 1309.45333333 37.3333333333 1146.66666667 0 922 0 c 2
 492 0 l 2
 458.666666667 0 446.232333333 18.3333333333 454.697 55 c 2
 735.202 1270 l 1
 264.202 1270 l 2
EndSplineSet
Fore
SplineSet
264 1270 m 2
 227.333333333 1270 212.666666667 1285 220 1315 c 2
 237 1389 l 2
 243.666666667 1419 265.333333333 1434 302 1434 c 2
 915 1434 l 2
 948.333333333 1434 960.666666667 1415.66666667 952 1379 c 2
 825 828 l 1
 1093 828 l 2
 1287.66666667 828 1420.66666667 792.5 1492 721.5 c 0
 1563.33333333 650.5 1599 561.333333333 1599 454 c 256
 1599 331.333333333 1545.66666667 225 1439 135 c 0
 1332.33333333 45 1166.66666667 0 942 0 c 2
 492 0 l 2
 458.666666667 0 446.333333333 18.3333333333 455 55 c 2
 735 1270 l 1
 264 1270 l 2
672 164 m 1
 948 164 l 2
 1091.33333333 164 1201.5 188.666666667 1278.5 238 c 0
 1355.5 287.333333333 1394 356 1394 444 c 256
 1394 538 1363 598.166666667 1301 624.5 c 0
 1239 650.833333333 1146.33333333 664 1023 664 c 2
 787 664 l 1
 672 164 l 1
EndSplineSet
Validated: 524321
EndChar

StartChar: afii10043
Encoding: 1065 1065 106
Width: 2116
Flags: W
HStem: -370 21G<1707.67 1820.33> 0 164<280 842 1034 1596> 1414 20G<414.333 539.667 1168.33 1293.67 1922.33 2047.67>
LayerCount: 2
Fore
SplineSet
100 0 m 2
 66.6666666667 0 54.3333333333 18.3333333333 63 55 c 2
 368 1379 l 2
 376.666666667 1415.66666667 397.666666667 1434 431 1434 c 2
 523 1434 l 2
 556.333333333 1434 568.666666667 1415.66666667 560 1379 c 2
 280 164 l 1
 842 164 l 1
 1122 1379 l 2
 1130.66666667 1415.66666667 1151.66666667 1434 1185 1434 c 2
 1277 1434 l 2
 1310.33333333 1434 1322.66666667 1415.66666667 1314 1379 c 2
 1034 164 l 1
 1596 164 l 1
 1876 1379 l 2
 1884.66666667 1415.66666667 1905.66666667 1434 1939 1434 c 2
 2031 1434 l 2
 2064.33333333 1434 2076.66666667 1415.66666667 2068 1379 c 2
 1788 164 l 1
 1920 164 l 2
 1953.33333333 164 1965.66666667 145.666666667 1957 109 c 2
 1858 -320 l 2
 1850.66666667 -353.333333333 1833.66666667 -370 1807 -370 c 2
 1721 -370 l 2
 1694.33333333 -370 1684.66666667 -353.333333333 1692 -320 c 2
 1766 0 l 1
 100 0 l 2
EndSplineSet
Validated: 524321
EndChar

StartChar: afii10048
Encoding: 1070 1070 107
Width: 2023
Flags: W
HStem: -30 156<1026.57 1446.51> 0 21G<83.3333 208.667> 664 164<433 621> 1308 156<1173.94 1596.43> 1414 20G<414.333 539.667>
VStem: 619 205<332.647 664> 1799 205<534.392 1102.02>
LayerCount: 2
Fore
SplineSet
100 0 m 2x66
 66.6666666667 0 54.3333333333 18.3333333333 63 55 c 2
 368 1379 l 2
 376.666666667 1415.66666667 397.666666667 1434 431 1434 c 2
 523 1434 l 2x6e
 556.333333333 1434 568.666666667 1415.66666667 560 1379 c 2
 433 828 l 1
 643 828 l 1
 674.333333333 982.666666667 749.5 1127.33333333 868.5 1262 c 0
 987.5 1396.66666667 1160.33333333 1464 1387 1464 c 256
 1590.33333333 1464 1744 1409.83333333 1848 1301.5 c 0
 1952 1193.16666667 2004 1044 2004 854 c 256
 2004 587.333333333 1932.66666667 373.333333333 1790 212 c 0
 1647.33333333 50.6666666667 1462.66666667 -30 1236 -30 c 256xb6
 1032.66666667 -30 879 24.1666666667 775 132.5 c 0
 671 240.833333333 619 390 619 580 c 256
 619 608.666666667 619.666666667 636.666666667 621 664 c 1
 395 664 l 1
 255 55 l 2
 246.333333333 18.3333333333 225.333333333 0 192 0 c 2
 100 0 l 2x66
824 556 m 256
 824 419.333333333 859.5 313.5 930.5 238.5 c 0
 1001.5 163.5 1107 126 1247 126 c 256
 1393.66666667 126 1522.33333333 187.166666667 1633 309.5 c 0
 1743.66666667 431.833333333 1799 621.333333333 1799 878 c 256
 1799 1014.66666667 1763.5 1120.5 1692.5 1195.5 c 0
 1621.5 1270.5 1516 1308 1376 1308 c 256xb6
 1229.33333333 1308 1100.66666667 1246.83333333 990 1124.5 c 0
 879.333333333 1002.16666667 824 812.666666667 824 556 c 256
EndSplineSet
Validated: 8912929
EndChar

StartChar: M
Encoding: 77 77 108
Width: 1708
Flags: W
HStem: 0 21G<83.3333 208.667 663.667 804.333 1259.33 1384.67> 1414 20G<414.333 644.667 1461.33 1715.67>
LayerCount: 2
Back
SplineSet
100 0 m 2
 66.6666666667 0 54.3333333333 18.3333333333 63 55 c 2
 368 1379 l 2
 376.666666667 1415.66666667 397.666666667 1434 431 1434 c 2
 644 1434 l 2
 669.333333333 1434 683.666666667 1414 687 1374 c 2
 766 477 l 2
 774 385 778.5 329.5 779.5 310.5 c 128
 780.5 291.5 780.333333333 256.666666667 779 206 c 1
 785 206 l 1
 806.333333333 256.666666667 821.833333333 291.5 831.5 310.5 c 128
 841.166666667 329.5 871.333333333 385 922 477 c 2
 1415 1374 l 2
 1437 1414 1460.66666667 1434 1486 1434 c 2
 1699 1434 l 2
 1732.33333333 1434 1744.66666667 1415.66666667 1736 1379 c 2
 1431 55 l 2
 1422.33333333 18.3333333333 1401.33333333 0 1368 0 c 2
 1276 0 l 2
 1242.66666667 0 1230.33333333 18.3333333333 1239 55 c 2
 1481 1104 l 2
 1487 1130.66666667 1493.66666667 1157.33333333 1501 1184 c 9
 1497 1184 l 25
 869 61 l 2
 846.333333333 20.3333333333 819.666666667 0 789 0 c 2
 679 0 l 2
 648.333333333 0 631 20.3333333333 627 61 c 2
 517 1184 l 25
 513 1184 l 17
 508.333333333 1157.33333333 503 1130.66666667 497 1104 c 2
 255 55 l 2
 246.333333333 18.3333333333 225.333333333 0 192 0 c 2
 100 0 l 2
EndSplineSet
Fore
SplineSet
100 0 m 2
 66.6666666667 0 54.3333333333 18.3333333333 63 55 c 2
 368 1379 l 2
 376.666666667 1415.66666667 397.666666667 1434 431 1434 c 2
 632 1434 l 2
 657.333333333 1434 671.666666667 1414 675 1374 c 2
 754 477 l 2
 758.666666667 422.333333333 762 373.5 764 330.5 c 0
 766 287.5 767 246 767 206 c 1
 773 206 l 1
 791 248 810.666666667 289.666666667 832 331 c 0
 853.333333333 372.333333333 879.333333333 421 910 477 c 2
 1403 1374 l 2
 1425 1414 1448.66666667 1434 1474 1434 c 2
 1699 1434 l 2
 1732.33333333 1434 1744.66666667 1415.66666667 1736 1379 c 2
 1431 55 l 2
 1422.33333333 18.3333333333 1401.33333333 0 1368 0 c 2
 1276 0 l 2
 1242.66666667 0 1230.33333333 18.3333333333 1239 55 c 2
 1481 1104 l 2
 1487.66666667 1134 1494.33333333 1160.66666667 1501 1184 c 9
 1497 1184 l 25
 869 61 l 2
 846.333333333 20.3333333333 819.666666667 0 789 0 c 2
 679 0 l 2
 648.333333333 0 631 20.3333333333 627 61 c 2
 517 1184 l 25
 513 1184 l 17
 507.666666667 1154.66666667 502.333333333 1128 497 1104 c 2
 255 55 l 2
 246.333333333 18.3333333333 225.333333333 0 192 0 c 2
 100 0 l 2
EndSplineSet
Validated: 524321
EndChar

StartChar: Z
Encoding: 90 90 109
Width: 1216
Flags: W
HStem: 0 164<253 1040.42> 1270 164<298.578 1028>
LayerCount: 2
Fore
SplineSet
0 0 m 2
 -36.6666666667 0 -51.6666666667 15 -45 45 c 2
 -34 93 l 2
 -27.3333333333 123 -10.3333333333 152.666666667 17 182 c 2
 1027 1268 l 9
 1028 1272 l 25
 1000.66666667 1270.66666667 973.666666667 1270 947 1270 c 2
 325 1270 l 2
 289 1270 274.333333333 1285 281 1315 c 2
 298 1389 l 2
 304.666666667 1419 326.333333333 1434 363 1434 c 2
 1285 1434 l 2
 1321.66666667 1434 1336.66666667 1419 1330 1389 c 2
 1323 1358 l 2
 1318.33333333 1338 1306.66666667 1317.66666667 1288 1297 c 2
 254 166 l 9
 253 162 l 17
 271.666666667 163.333333333 298.666666667 164 334 164 c 2
 1014 164 l 2
 1050 164 1064.66666667 149 1058 119 c 2
 1041 45 l 2
 1034.33333333 15 1012.66666667 0 976 0 c 2
 0 0 l 2
EndSplineSet
Validated: 524289
EndChar

StartChar: afii10026
Encoding: 1048 1048 110
Width: 1452
Flags: W
HStem: 0 21G<83.3333 251.667 1003.33 1128.67> 1414 20G<414.333 539.667 1291.67 1459.67>
LayerCount: 2
Back
SplineSet
100 0 m 2
 66.6666666667 0 54.3333333333 18.3333333333 63 55 c 2
 368 1379 l 2
 376.666666667 1415.66666667 397.666666667 1434 431 1434 c 2
 523 1434 l 2
 556.333333333 1434 568.666666667 1415.66666667 560 1379 c 2
 320 340 l 2
 314 313.333333333 307.333333333 286.666666667 300 260 c 25
 304 260 l 17
 1204 1384 l 2
 1230 1417.33333333 1267 1434 1315 1434 c 2
 1443 1434 l 2
 1476.33333333 1434 1488.66666667 1415.66666667 1480 1379 c 2
 1175 55 l 2
 1166.33333333 18.3333333333 1145.33333333 0 1112 0 c 2
 1020 0 l 2
 986.666666667 0 974.333333333 18.3333333333 983 55 c 2
 1223 1094 l 2
 1229 1120.66666667 1235.66666667 1147.33333333 1243 1174 c 9
 1239 1174 l 17
 340 50 l 2
 313.333333333 16.6666666667 276 0 228 0 c 2
 100 0 l 2
EndSplineSet
Fore
SplineSet
100 0 m 2
 66.6666666667 0 54.3333333333 18.3333333333 63 55 c 2
 368 1379 l 2
 376.666666667 1415.66666667 397.666666667 1434 431 1434 c 2
 523 1434 l 2
 556.333333333 1434 568.666666667 1415.66666667 560 1379 c 2
 327 370 l 2
 320.333333333 340 313.666666667 313.333333333 307 290 c 25
 311 290 l 17
 1204 1384 l 2
 1231.33333333 1417.33333333 1268.33333333 1434 1315 1434 c 2
 1443 1434 l 2
 1476.33333333 1434 1488.66666667 1415.66666667 1480 1379 c 2
 1175 55 l 2
 1166.33333333 18.3333333333 1145.33333333 0 1112 0 c 2
 1020 0 l 2
 986.666666667 0 974.333333333 18.3333333333 983 55 c 2
 1216 1064 l 2
 1222.66666667 1094 1229.33333333 1120.66666667 1236 1144 c 9
 1232 1144 l 17
 340 50 l 2
 312.666666667 16.6666666667 275.333333333 0 228 0 c 2
 100 0 l 2
EndSplineSet
Validated: 524321
EndChar

StartChar: afii10049
Encoding: 1071 1071 111
Width: 1363
Flags: W
HStem: 0 21G<-3 176 914.333 1039.67> 613 164<755.203 1023> 1270 164<631.229 1174>
VStem: 266 205<852.438 1141.72>
LayerCount: 2
Back
SplineSet
18 0 m 2
 -25.3333333333 0 -26.2542333333 22 15.2373 66 c 2
 351.119 425 l 2
 366.146333333 441 402.637 474.166666667 460.591 524.5 c 128
 518.544333333 574.833333333 570.624666667 612 616.832 636 c 1
 617.294 638 l 1
 507.705333333 651.333333333 416.811666667 689.333333333 344.613 752 c 128
 272.413666667 814.666666667 249.781666667 904.333333333 276.717 1021 c 256
 309.345666667 1162.33333333 376.560666667 1266.5 478.362 1333.5 c 128
 580.164 1400.5 727.398333333 1434 920.065 1434 c 2
 1364.06 1434 l 2
 1397.39333333 1434 1409.83 1415.66666667 1401.37 1379 c 2
 1095.7 55 l 2
 1087.23333333 18.3333333333 1066.33333333 0 1033 0 c 2
 941 0 l 2
 907.666666667 0 895.232333333 18.3333333333 903.697 55 c 2
 1032.52 613 l 1
 931.522 613 l 2
 844.855333333 613 770.199333333 590.666666667 707.554 546 c 128
 644.908666667 501.333333333 586.249666667 448.666666667 531.577 388 c 2
 216.004 39 l 2
 192.668 13 166.333333333 0 137 0 c 2
 18 0 l 2
489.104 1053 m 256
 463.708666667 943 481.739666667 869.5 543.197 832.5 c 128
 604.655666667 795.5 700.385 777 830.385 777 c 2
 1070.38 777 l 1
 1184.2 1270 l 1
 896.202 1270 l 2
 786.202 1270 695.854666667 1255.5 625.16 1226.5 c 128
 554.464666667 1197.5 509.112666667 1139.66666667 489.104 1053 c 256
EndSplineSet
Fore
SplineSet
18 0 m 2
 -24 0 -25 22 15 66 c 2
 341 425 l 2
 353.666666667 439 389.333333333 472.666666667 448 526 c 0
 506.666666667 579.333333333 559.666666667 616 607 636 c 1
 607 638 l 1
 517 654 437.666666667 692.333333333 369 753 c 0
 300.333333333 813.666666667 266 887.333333333 266 974 c 256
 266 1124.66666667 323.666666667 1239 439 1317 c 0
 554.333333333 1395 704.666666667 1434 890 1434 c 2
 1354 1434 l 2
 1387.33333333 1434 1399.66666667 1415.66666667 1391 1379 c 2
 1086 55 l 2
 1077.33333333 18.3333333333 1056.33333333 0 1023 0 c 2
 931 0 l 2
 897.666666667 0 885.333333333 18.3333333333 894 55 c 2
 1023 613 l 1
 922 613 l 2
 847.333333333 613 778.5 590 715.5 544 c 0
 652.5 498 596 446 546 388 c 2
 240 39 l 2
 217.333333333 13 191 0 161 0 c 2
 18 0 l 2
471 996 m 256
 471 924 492 869.5 534 832.5 c 0
 576 795.5 678 777 840 777 c 2
 1060 777 l 1
 1174 1270 l 1
 866 1270 l 2
 755.333333333 1270 661.833333333 1248 585.5 1204 c 0
 509.166666667 1160 471 1090.66666667 471 996 c 256
EndSplineSet
Validated: 524321
EndChar

StartChar: S
Encoding: 83 83 112
Width: 1217
Flags: W
HStem: -30 156<327.142 745.091> 1294 170<574.937 948.36>
VStem: 270 192<912.38 1187> 887 203<247.335 521.884>
LayerCount: 2
Fore
SplineSet
84 112 m 256
 50.6666666667 144.666666667 44 173.333333333 64 198 c 2
 121 268 l 2
 141.666666667 293.333333333 170.333333333 289 207 255 c 256
 250.333333333 214.333333333 297.333333333 182.666666667 348 160 c 0
 398.666666667 137.333333333 463.333333333 126 542 126 c 256
 608.666666667 126 665 135.5 711 154.5 c 0
 757 173.5 797.833333333 201.166666667 833.5 237.5 c 0
 869.166666667 273.833333333 887 319 887 373 c 256
 887 401.666666667 882.833333333 431.333333333 874.5 462 c 0
 866.166666667 492.666666667 848.833333333 519.666666667 822.5 543 c 0
 796.166666667 566.333333333 767 584.333333333 735 597 c 256
 698.333333333 611.666666667 659.333333333 625.833333333 618 639.5 c 0
 576.666666667 653.166666667 530.666666667 672.666666667 480 698 c 256
 437.333333333 719.333333333 400.666666667 746.333333333 370 779 c 0
 339.333333333 811.666666667 315 850.666666667 297 896 c 0
 279 941.333333333 270 989.666666667 270 1041 c 256
 270 1135 300 1218.5 360 1291.5 c 0
 420 1364.5 487 1411.5 561 1432.5 c 0
 635 1453.5 703.666666667 1464 767 1464 c 256
 855.666666667 1464 930 1453 990 1431 c 24
 1050 1409 1104.66666667 1379 1154 1341 c 256
 1186.66666667 1315.66666667 1192.33333333 1289 1171 1261 c 26
 1113 1186 l 18
 1097.66666667 1166 1074.66666667 1168.66666667 1044 1194 c 256
 1020 1214 980.666666667 1235.66666667 926 1259 c 0
 871.333333333 1282.33333333 814.333333333 1294 755 1294 c 256
 717 1294 676 1287.66666667 632 1275 c 0
 588 1262.33333333 548.666666667 1236.5 514 1197.5 c 0
 479.333333333 1158.5 462 1111 462 1055 c 256
 462 1025.66666667 466 997.5 474 970.5 c 0
 482 943.5 496.833333333 920 518.5 900 c 0
 540.166666667 880 563.333333333 864 588 852 c 256
 626.666666667 833.333333333 666.5 817.333333333 707.5 804 c 0
 748.5 790.666666667 785.666666667 777.333333333 819 764 c 256
 872.333333333 742.666666667 921.166666667 715 965.5 681 c 0
 1009.83333333 647 1041.66666667 604.166666667 1061 552.5 c 0
 1080.33333333 500.833333333 1090 451.666666667 1090 405 c 256
 1090 311 1064.66666667 232.333333333 1014 169 c 0
 963.333333333 105.666666667 901 56.6666666667 827 22 c 0
 753 -12.6666666667 652.666666667 -30 526 -30 c 256
 416.666666667 -30 326.333333333 -16.6666666667 255 10 c 24
 183.666666667 36.6666666667 126.666666667 70.6666666667 84 112 c 256
EndSplineSet
Validated: 524321
EndChar

StartChar: afii10025
Encoding: 1047 1047 113
Width: 1272
Flags: W
HStem: -30 156<341.889 780.246> 675 158<482.973 835.846> 1308 156<517.061 924.654>
VStem: 943 205<283.668 574.634> 1032 195<965.712 1217.96>
LayerCount: 2
Back
SplineSet
42.1689 148 m 256
 21.8642333333 181.333333333 22.3024 206.333333333 43.4834 223 c 2
 131.413 292 l 2
 162.287666667 316 187.902666667 310 208.258 274 c 256
 212.052 267.333333333 238.472666667 241 287.52 195 c 128
 336.566666667 149 412.756666667 126 516.09 126 c 256
 629.423333333 126 722.399666667 146.833333333 795.019 188.5 c 128
 867.638333333 230.166666667 917.030333333 307.666666667 943.195 421 c 256
 963.973 511 949.941333333 575.833333333 901.1 615.5 c 128
 852.257333333 655.166666667 782.169333333 675 690.836 675 c 2
 510.836 675 l 2
 474.169333333 675 459.145333333 689.333333333 465.764 718 c 2
 481.924 788 l 2
 488.85 818 510.646333333 833 547.313 833 c 2
 681.313 833 l 2
 789.313 833 874.687666667 859.166666667 937.437 911.5 c 128
 1000.18566667 963.833333333 1039.41 1024 1055.11 1092 c 256
 1072.65666667 1168 1059.02 1223 1014.2 1257 c 128
 969.384 1291 895.642666667 1308 792.976 1308 c 256
 724.976 1308 657.474666667 1295 590.472 1269 c 128
 523.469333333 1243 471.607333333 1214 434.886 1182 c 256
 398.985333333 1150.66666667 373.831 1145.66666667 359.423 1167 c 2
 311.046 1239 l 2
 295.099333333 1262.33333333 309.153333333 1290 353.208 1322 c 256
 418.956 1370 494.69 1405.66666667 580.41 1429 c 128
 666.130666667 1452.33333333 750.657666667 1464 833.991 1464 c 256
 1017.32366667 1464 1138.39666667 1427.5 1197.21 1354.5 c 128
 1256.02333333 1281.5 1273.65666667 1194 1250.11 1092 c 256
 1230.71666667 1008 1189.76 938.166666667 1127.24 882.5 c 128
 1064.72 826.833333333 990.332 788.333333333 904.076 767 c 1
 903.152 763 l 1
 986.637333333 755 1054.62 723.166666667 1107.1 667.5 c 128
 1159.58666667 611.833333333 1171.43666667 521.666666667 1142.65 397 c 256
 1110.63666667 258.333333333 1036.038 152.5 918.854 79.5 c 128
 801.667333333 6.5 653.074 -30 473.074 -30 c 256
 349.740666667 -30 252.294 -8.83333333333 180.734 33.5 c 128
 109.174333333 75.8333333333 62.9859666667 114 42.1689 148 c 256
31 0 m 2
 -2.33333333333 0 -14.6666666667 18.3333333333 -6 55 c 2
 299 1379 l 2
 307.666666667 1415.66666667 328.666666667 1434 362 1434 c 2
 732 1434 l 2
 914 1434 1040.33333333 1400.5 1111 1333.5 c 128
 1181.66666667 1266.5 1217 1183.33333333 1217 1084 c 256
 1217 991.333333333 1185.16666667 917.5 1121.5 862.5 c 128
 1057.83333333 807.5 978.666666667 770 884 750 c 1
 884 747 l 1
 952.666666667 733 1013.83333333 699.5 1067.5 646.5 c 128
 1121.16666667 593.5 1148 521.666666667 1148 431 c 256
 1148 319.666666667 1097.66666667 220 997 132 c 128
 896.333333333 44 731 0 501 0 c 2
 31 0 l 2
211 164 m 1
 507 164 l 2
 647 164 754.666666667 187.666666667 830 235 c 128
 905.333333333 282.333333333 943 350.333333333 943 439 c 256
 943 519.666666667 908.833333333 577.333333333 840.5 612 c 128
 772.166666667 646.666666667 679.333333333 664 562 664 c 2
 326 664 l 1
 211 164 l 1
360 808 m 1
 631 808 l 2
 725.666666667 808 814.5 833.333333333 897.5 884 c 128
 980.5 934.666666667 1022 998.666666667 1022 1076 c 256
 1022 1144.66666667 997.666666667 1194.16666667 949 1224.5 c 128
 900.333333333 1254.83333333 816.333333333 1270 697 1270 c 2
 466 1270 l 1
 360 808 l 1
55 191 m 256
 31.6666666667 228.333333333 34.3333333333 256.666666667 63 276 c 258
 138 327 l 258
 166.666666667 346.333333333 190.666666667 340.333333333 210 309 c 256
 232 273 270.5 233.5 325.5 190.5 c 128
 380.5 147.5 462 126 570 126 c 256
 691.333333333 126 804 168 908 252 c 128
 1012 336 1081 474.666666667 1115 668 c 257
 422 668 l 2
 384.666666667 668 369.666666667 683 377 713 c 2
 395 787 l 2
 402.333333333 817 424 832 460 832 c 2
 1130 832 l 257
 1147.33333333 969.333333333 1121.33333333 1083 1052 1173 c 128
 982.666666667 1263 878 1308 738 1308 c 256
 650 1308 575 1293 513 1263 c 128
 451 1233 405 1203 375 1173 c 256
 346.333333333 1144.33333333 322.666666667 1138.66666667 304 1156 c 258
 243 1211 l 258
 218.333333333 1233.66666667 222.333333333 1262 255 1296 c 256
 297 1340 358 1379 438 1413 c 128
 518 1447 620.333333333 1464 745 1464 c 256
 920.333333333 1464 1062.16666667 1415.66666667 1170.5 1319 c 128
 1278.83333333 1222.33333333 1333 1058.66666667 1333 828 c 256
 1333 597.333333333 1265.83333333 396.666666667 1131.5 226 c 128
 997.166666667 55.3333333333 810 -30 570 -30 c 256
 424 -30 311.5 -9 232.5 33 c 128
 153.5 75 94.3333333333 127.666666667 55 191 c 256
EndSplineSet
Fore
SplineSet
49 165 m 256xf0
 19 196.333333333 16 221.666666667 40 241 c 2
 117 303 l 2
 141.666666667 322.333333333 168 314 196 278 c 256
 219.333333333 248.666666667 262 216 324 180 c 0
 386 144 472.666666667 126 584 126 c 256
 696.666666667 126 784.666666667 157.5 848 220.5 c 0
 911.333333333 283.5 943 353.666666667 943 431 c 256xf0
 943 507.666666667 916.833333333 567.5 864.5 610.5 c 0
 812.166666667 653.5 747.666666667 675 671 675 c 2
 511 675 l 2
 474.333333333 675 459.333333333 689.333333333 466 718 c 2
 482 788 l 2
 488.666666667 818 510.333333333 833 547 833 c 2
 701 833 l 2
 809 833 891.166666667 861.166666667 947.5 917.5 c 0
 1003.83333333 973.833333333 1032 1033.33333333 1032 1096 c 256
 1032 1169.33333333 1001 1223 939 1257 c 0
 877 1291 808.666666667 1308 734 1308 c 256
 666.666666667 1308 597.833333333 1294.5 527.5 1267.5 c 0
 457.166666667 1240.5 406 1212.33333333 374 1183 c 256
 342.666666667 1154.33333333 318.333333333 1151.66666667 301 1175 c 2
 243 1252 l 2
 223.666666667 1277.33333333 233.666666667 1304.33333333 273 1333 c 256
 331.666666667 1375.66666667 397.333333333 1408.16666667 470 1430.5 c 0
 542.666666667 1452.83333333 632.333333333 1464 739 1464 c 256
 900.333333333 1464 1022 1429 1104 1359 c 0
 1186 1289 1227 1206 1227 1110 c 256xe8
 1227 1008 1194.5 927.5 1129.5 868.5 c 0
 1064.5 809.5 989 771.333333333 903 754 c 1
 902 750 l 1
 970.666666667 736 1028.83333333 700 1076.5 642 c 0
 1124.16666667 584 1148 512.333333333 1148 427 c 256
 1148 316.333333333 1100.66666667 212.5 1006 115.5 c 0
 911.333333333 18.5 768.333333333 -30 577 -30 c 256
 438.333333333 -30 325 -7.5 237 37.5 c 0
 149 82.5 86.3333333333 125 49 165 c 256xf0
EndSplineSet
Validated: 8912929
EndChar

StartChar: afii10021
Encoding: 1044 1044 114
Width: 1522
Flags: W
HStem: -370 21G<-124.333 -11.6667 1113.67 1226.33> 0 164<100 143.697 314 1006> 1270 164<749 1261>
LayerCount: 2
Fore
SplineSet
-111 -370 m 2
 -137.666666667 -370 -147.333333333 -353.333333333 -140 -320 c 2
 -41 109 l 2
 -32.3333333333 145.666666667 -11.3333333333 164 22 164 c 2
 104 164 l 1
 249.333333333 300.666666667 350 452 406 618 c 0
 462 784 508.666666667 947 546 1107 c 2
 608 1379 l 2
 616.666666667 1415.66666667 637.666666667 1434 671 1434 c 2
 1441 1434 l 2
 1474.33333333 1434 1486.66666667 1415.66666667 1478 1379 c 2
 1198 164 l 1
 1326 164 l 2
 1359.33333333 164 1371.66666667 145.666666667 1363 109 c 2
 1264 -320 l 2
 1256.66666667 -353.333333333 1239.66666667 -370 1213 -370 c 2
 1127 -370 l 2
 1100.33333333 -370 1090.66666667 -353.333333333 1098 -320 c 2
 1172 0 l 1
 100 0 l 1
 26 -320 l 2
 18.6666666667 -353.333333333 1.66666666667 -370 -25 -370 c 2
 -111 -370 l 2
314 164 m 1
 1006 164 l 1
 1261 1270 l 1
 749 1270 l 1
 699 1051 l 2
 630.333333333 751 561.333333333 537.333333333 492 410 c 0
 422.666666667 282.666666667 363.333333333 200.666666667 314 164 c 1
EndSplineSet
Validated: 524321
EndChar

StartChar: afii10047
Encoding: 1069 1069 115
Width: 1352
Flags: HMW
HStem: -30 156<355.816 773.37> 668 164<395.8 1115> 1308 156<514.087 941.406>
VStem: 1130 203<828 832>
LayerCount: 2
Back
SplineSet
1317.72 580 m 0
 1393.22666667 843.333333333 1384.18333333 1056.5 1290.59 1219.5 c 128
 1196.99666667 1382.5 1024.533 1464 773.199 1464 c 256
 650.532333333 1464 545.081666667 1442.66666667 456.847 1400 c 128
 368.612333333 1357.33333333 298.697 1300.66666667 247.101 1230 c 256
 221.635666667 1194.66666667 221.655666667 1168 247.161 1150 c 258
 311.971 1104 l 258
 326.912333333 1093.33333333 346.921666667 1102.66666667 371.999 1132 c 256
 402.321666667 1168 449.647 1206.33333333 513.975 1247 c 128
 578.303 1287.66666667 655.467 1308 745.467 1308 c 256
 912.133666667 1308 1032.308 1247 1105.99 1125 c 128
 1179.67666667 1003 1179.72 813.666666667 1106.12 557 c 0
 1071.32666667 435.666666667 1010.031 333.5 922.233 250.5 c 128
 834.433 167.5 713.866333333 126 560.533 126 c 256
 469.866333333 126 399.867333333 149.833333333 350.536 197.5 c 152
 301.204 245.166666667 266.086666667 293 245.184 341 c 256
 228.271333333 379.666666667 205.616666667 391.333333333 177.22 376 c 258
 70.5889 318 l 258
 44.5745666667 304 39.5947333333 277.333333333 55.6494 238 c 256
 86.3318 161.333333333 139.027666667 97.5 213.737 46.5 c 152
 288.446333333 -4.5 398.134333333 -30 542.801 -30 c 256
 744.134333333 -30 910.954 27.5 1043.26 142.5 c 128
 1175.57333333 257.5 1267.06 403.333333333 1317.72 580 c 0
-30 580 m 0
 -30 846.666666667 41.3333333333 1060.66666667 184 1222 c 128
 326.666666667 1383.33333333 511.333333333 1464 738 1464 c 256
 941.333333333 1464 1095 1409.83333333 1199 1301.5 c 128
 1303 1193.16666667 1355 1044 1355 854 c 0
 1355 587.333333333 1283.66666667 373.333333333 1141 212 c 128
 998.333333333 50.6666666667 813.666666667 -30 587 -30 c 256
 383.666666667 -30 230 24.1666666667 126 132.5 c 128
 22 240.833333333 -30 390 -30 580 c 0
175 556 m 0
 175 419.333333333 210.5 313.5 281.5 238.5 c 128
 352.5 163.5 458 126 598 126 c 256
 744.666666667 126 873.333333333 187.166666667 984 309.5 c 128
 1094.66666667 431.833333333 1150 621.333333333 1150 878 c 0
 1150 1014.66666667 1114.5 1120.5 1043.5 1195.5 c 128
 972.5 1270.5 867 1308 727 1308 c 256
 580.333333333 1308 451.666666667 1246.83333333 341 1124.5 c 128
 230.333333333 1002.16666667 175 812.666666667 175 556 c 0
1192.08 832 m 1
 1154.22 668 l 1
 441.22 668 l 2
 404.554 668 389.683666667 683 396.609 713 c 2
 413.693 787 l 2
 420.619 817 442.415333333 832 479.082 832 c 2
 1192.08 832 l 1
EndSplineSet
Fore
SplineSet
55 191 m 256
 31.6666666667 228.333333333 34.3333333333 256.666666667 63 276 c 258
 138 327 l 258
 166.666666667 346.333333333 190.666666667 340.333333333 210 309 c 256
 232 273 270.5 233.5 325.5 190.5 c 128
 380.5 147.5 462 126 570 126 c 256
 691.333333333 126 804 168 908 252 c 128
 1012 336 1081 474.666666667 1115 668 c 257
 422 668 l 2
 384.666666667 668 369.666666667 683 377 713 c 2
 395 787 l 2
 402.333333333 817 424 832 460 832 c 2
 1130 832 l 257
 1147.33333333 969.333333333 1121.33333333 1083 1052 1173 c 128
 982.666666667 1263 878 1308 738 1308 c 256
 650 1308 575 1293 513 1263 c 128
 451 1233 405 1203 375 1173 c 256
 346.333333333 1144.33333333 322.666666667 1138.66666667 304 1156 c 258
 243 1211 l 258
 218.333333333 1233.66666667 222.333333333 1262 255 1296 c 256
 297 1340 358 1379 438 1413 c 128
 518 1447 620.333333333 1464 745 1464 c 256
 920.333333333 1464 1062.16666667 1415.66666667 1170.5 1319 c 128
 1278.83333333 1222.33333333 1333 1058.66666667 1333 828 c 256
 1333 597.333333333 1265.83333333 396.666666667 1131.5 226 c 128
 997.166666667 55.3333333333 810 -30 570 -30 c 256
 424 -30 311.5 -9 232.5 33 c 128
 153.5 75 94.3333333333 127.666666667 55 191 c 256
EndSplineSet
Validated: 524321
EndChar

StartChar: afii10037
Encoding: 1059 1059 120
Width: 1316
Flags: W
HStem: -30 157<88.3431 441.909> 1414 20G<283.667 405.667 1310.67 1464.33>
LayerCount: 2
Back
SplineSet
111.463 15 m 256
 91.1235333333 28.3887333333 87.3815333333 45.3887333333 100.237 66 c 2
 152.63 150 l 2
 169.325333333 176.767333333 188.736 181.434 210.862 164 c 256
 241.834 139.333333333 278.986666667 127 322.32 127 c 256
 376.32 127 419.526 135.833333333 451.938 153.5 c 0
 483.726666667 170.826666667 512.319 194.326666667 537.715 224 c 2
 578.796 272 l 9
 261.828 1368 l 18
 249.103333333 1412 263.182333333 1434 304.065 1434 c 2
 390.065 1434 l 2
 421.218333333 1434 441.447333333 1417.66666667 450.752 1385 c 10
 641.302 716 l 2
 651.386 680.596666667 662.394333333 636.596666667 674.327 584 c 0
 685.066333333 536.666666667 692.228 489 695.812 441 c 1
 699.812 441 l 1
 722.484 493 747.450666667 542.666666667 774.712 590 c 0
 799.282 632.661333333 828.043 679.994666667 860.995 732 c 2
 1274.75 1385 l 18
 1295.45 1417.66666667 1323.22 1434 1358.06 1434 c 2
 1476.06 1434 l 2
 1512.60666667 1434 1516.53 1412 1487.83 1368 c 10
 811.417 331 l 2
 732.475 209.975333333 658.287 119.642 588.853 60 c 0
 519.000333333 0 425.740666667 -30 309.074 -30 c 256
 222.407333333 -30 156.537 -15 111.463 15 c 256
EndSplineSet
Fore
SplineSet
262 1368 m 18
 249.333333333 1412 263.333333333 1434 304 1434 c 2
 390 1434 l 2
 421.333333333 1434 441.666666667 1417.66666667 451 1385 c 10
 627 746 l 2
 638.333333333 705.333333333 649 659.5 659 608.5 c 0
 669 557.5 677 511.666666667 683 471 c 1
 687 471 l 1
 709.666666667 523 736.5 574.5 767.5 625.5 c 0
 798.5 676.5 826.666666667 722 852 762 c 2
 1245 1385 l 18
 1265.66666667 1417.66666667 1293.33333333 1434 1328 1434 c 2
 1446 1434 l 2
 1482.66666667 1434 1486.66666667 1412 1458 1368 c 10
 781 331 l 2
 702.333333333 209.666666667 628.166666667 119.166666667 558.5 59.5 c 0
 488.833333333 -0.166666666667 395.666666667 -30 279 -30 c 256
 195.666666667 -30 132 -15.3333333333 88 14 c 256
 69.3333333333 26 65.6666666667 43 77 65 c 2
 118 147 l 2
 130 172.333333333 149.333333333 177 176 161 c 256
 213.333333333 138.333333333 252 127 292 127 c 256
 346 127 391.333333333 138.333333333 428 161 c 0
 464.666666667 183.666666667 495 213 519 249 c 2
 561 312 l 9
 262 1368 l 18
EndSplineSet
Validated: 524321
EndChar

StartChar: cyrBreve
Encoding: 63185 63185 122
Width: 1452
Flags: W
HStem: 1548 136<841.175 1166.36>
VStem: 632 186<1708.76 1864.7>
LayerCount: 2
Back
SplineSet
340 1819 m 2
 337.333333333 1851 353.333333333 1867 388 1867 c 2
 469 1867 l 2
 497 1867 513.333333333 1851 518 1819 c 2
 523 1783 l 2
 527 1751.66666667 546.833333333 1727.33333333 582.5 1710 c 128
 618.166666667 1692.66666667 666 1684 726 1684 c 260
 786 1684 833.833333333 1692.66666667 869.5 1710 c 128
 905.166666667 1727.33333333 925 1751.66666667 929 1783 c 2
 934 1819 l 2
 938.666666667 1851 955 1867 983 1867 c 2
 1064 1867 l 2
 1098.66666667 1867 1114.66666667 1851 1112 1819 c 2
 1106 1749 l 2
 1100.66666667 1689.66666667 1060.16666667 1641.33333333 984.5 1604 c 128
 908.833333333 1566.66666667 822.666666667 1548 726 1548 c 260
 629.333333333 1548 543.166666667 1566.66666667 467.5 1604 c 128
 391.833333333 1641.33333333 351.333333333 1689.66666667 346 1749 c 2
 340 1819 l 2
EndSplineSet
Fore
SplineSet
638 1819 m 2
 641.333333333 1851 661 1867 697 1867 c 2
 780 1867 l 2
 808 1867 820.666666667 1851 818 1819 c 2
 815 1787 l 2
 811.666666667 1750.33333333 824 1724 852 1708 c 0
 880 1692 921 1684 975 1684 c 256
 1062.33333333 1684 1133.33333333 1703.5 1188 1742.5 c 0
 1242.66666667 1781.5 1283 1819 1309 1855 c 256
 1325.66666667 1878.33333333 1343.33333333 1883.66666667 1362 1871 c 258
 1401 1844 l 258
 1417.66666667 1832.66666667 1417 1814.33333333 1399 1789 c 256
 1335.66666667 1700.33333333 1272 1638 1208 1602 c 0
 1144 1566 1055.66666667 1548 943 1548 c 256
 839.666666667 1548 760.5 1568.33333333 705.5 1609 c 0
 650.5 1649.66666667 626 1700.33333333 632 1761 c 2
 638 1819 l 2
EndSplineSet
Validated: 524321
EndChar

StartChar: dieresis
Encoding: 168 168 123
Width: 614
Flags: W
HStem: 1240 176<213.186 368.941 619.186 774.941>
VStem: 193 602
LayerCount: 2
Fore
SplineSet
227 1240 m 2
 197 1240 185.666666667 1255 193 1285 c 2
 213 1371 l 2
 219.666666667 1401 238 1416 268 1416 c 2
 354 1416 l 2
 384 1416 395.666666667 1401 389 1371 c 2
 369 1285 l 2
 361.666666667 1255 343 1240 313 1240 c 2
 227 1240 l 2
633 1240 m 2
 603 1240 591.666666667 1255 599 1285 c 2
 619 1371 l 2
 625.666666667 1401 644 1416 674 1416 c 2
 760 1416 l 2
 790 1416 801.666666667 1401 795 1371 c 2
 775 1285 l 2
 767.666666667 1255 749 1240 719 1240 c 2
 633 1240 l 2
EndSplineSet
Validated: 524289
EndChar

StartChar: dieresis.cap
Encoding: 63179 63179 125
Width: 820
Flags: W
HStem: 1550 182<349.156 509.695 827.156 987.695>
LayerCount: 2
Fore
SplineSet
363 1550 m 2
 333 1550 321.333333333 1565 328 1595 c 2
 349 1687 l 2
 356.333333333 1717 375 1732 405 1732 c 2
 497 1732 l 2
 527 1732 538.333333333 1717 531 1687 c 2
 510 1595 l 2
 503.333333333 1565 485 1550 455 1550 c 2
 363 1550 l 2
841 1550 m 2
 811 1550 799.333333333 1565 806 1595 c 2
 827 1687 l 2
 834.333333333 1717 853 1732 883 1732 c 2
 975 1732 l 2
 1005 1732 1016.33333333 1717 1009 1687 c 2
 988 1595 l 2
 981.333333333 1565 963 1550 933 1550 c 2
 841 1550 l 2
EndSplineSet
Validated: 524289
EndChar

StartChar: r
Encoding: 114 114 129
Width: 722
Flags: HMW
HStem: 0 21G<44.5 175.5> 937 130<559.426 795.646> 1030 20G<286.5 415.5 792 813.5>
DStem2: 21.6109 0 198.642 0 0.224951 0.97437<29.7767 793.208 906.437 1087.07>
LayerCount: 2
Back
SplineSet
67 0 m 2
 37 0 25.3333333333 15 32 45 c 2
 254 1005 l 2
 260.666666667 1035 279 1050 309 1050 c 2
 393 1050 l 2
 423 1050 434.666666667 1035 428 1005 c 2
 400 885 l 1
 404 885 l 1
 450 945 497.166666667 990.333333333 545.5 1021 c 128
 593.833333333 1051.66666667 652.333333333 1067 721 1067 c 256
 760.333333333 1067 788 1063.33333333 804 1056 c 256
 816.666666667 1050.66666667 820 1040.66666667 814 1026 c 2
 781 944 l 2
 776.333333333 932 766.666666667 927.333333333 752 930 c 256
 729.333333333 934.666666667 706.333333333 937 683 937 c 256
 610.333333333 937 539.666666667 902.833333333 471 834.5 c 128
 402.333333333 766.166666667 353.333333333 669.333333333 324 544 c 2
 208 45 l 2
 201.333333333 15 183 0 153 0 c 2
 67 0 l 2
EndSplineSet
Fore
SplineSet
67 0 m 2
 37 0 25.3333333333 15 32 45 c 2
 254 1005 l 2
 260.666666667 1035 279 1050 309 1050 c 2
 393 1050 l 2
 423 1050 434.666666667 1035 428 1005 c 2
 391 845 l 1
 395 845 l 1
 443 920.333333333 492.166666667 976.166666667 542.5 1012.5 c 128
 592.833333333 1048.83333333 652.333333333 1067 721 1067 c 256
 760.333333333 1067 788 1063.33333333 804 1056 c 256
 816.666666667 1050.66666667 820 1040.66666667 814 1026 c 2
 781 944 l 2
 776.333333333 932 766.666666667 927.333333333 752 930 c 256
 729.333333333 934.666666667 706.333333333 937 683 937 c 256
 610.333333333 937 536.666666667 889.833333333 462 795.5 c 128
 387.333333333 701.166666667 338.333333333 604 315 504 c 2
 208 45 l 2
 201.333333333 15 183 0 153 0 c 2
 67 0 l 2
EndSplineSet
Validated: 8912897
EndChar

StartChar: F
Encoding: 70 70 130
Width: 1166
Flags: W
HStem: 0 21G<83.3333 208.667> 632 164<426 1039.84> 1270 164<535 1272.93>
LayerCount: 2
Fore
SplineSet
100 0 m 2
 66.6666666667 0 54.3333333333 18.3333333333 63 55 c 2
 368 1379 l 2
 376.666666667 1415.66666667 397.666666667 1434 431 1434 c 2
 1246 1434 l 2
 1282.66666667 1434 1297.66666667 1419 1291 1389 c 2
 1274 1315 l 2
 1266.66666667 1285 1244.66666667 1270 1208 1270 c 2
 535 1270 l 9
 426 796 l 1
 1013 796 l 2
 1049.66666667 796 1064.33333333 781 1057 751 c 2
 1040 677 l 2
 1033.33333333 647 1011.66666667 632 975 632 c 2
 388 632 l 1
 255 55 l 2
 246.333333333 18.3333333333 225.333333333 0 192 0 c 2
 100 0 l 2
EndSplineSet
Validated: 524321
EndChar

StartChar: colon
Encoding: 58 58 132
Width: 600
Flags: W
HStem: 0 212<118.59 290.41> 838 212<311.59 483.41>
VStem: 89 231 282 231
LayerCount: 2
Back
SplineSet
317 838 m 2
 287 838 275.666666667 853 283 883 c 2
 311 1005 l 2
 317.666666667 1035 336 1050 366 1050 c 2
 478 1050 l 2
 508 1050 519.666666667 1035 513 1005 c 2
 485 883 l 2
 477.666666667 853 459 838 429 838 c 2
 317 838 l 2
124 0 m 2
 94 0 82.3333333333 15 89 45 c 2
 118 167 l 2
 124.666666667 197 143 212 173 212 c 2
 285 212 l 2
 315 212 326.666666667 197 320 167 c 2
 291 45 l 2
 284.333333333 15 266 0 236 0 c 2
 124 0 l 2
EndSplineSet
Fore
Refer: 74 46 S 1 0 0 1 193 838 2
Refer: 74 46 N 1 0 0 1 0 0 3
Validated: 1
EndChar

StartChar: w
Encoding: 119 119 133
Width: 1444
Flags: HMW
HStem: 0 21G<208 366 838 996> 1030 20G<174 309 773.5 898.5 1363 1514>
DStem2: 324 351 156 1001 0.0329608 -0.999457<-168.885 181.835> 364 256.5 415 61 0.443169 0.896438<-94.3334 746.376> 800 722 917 1011 0.0257101 -0.999669<-327.172 151> 944 169 1045 61 0.443395 0.896326<0 842.052> 1327 1011 1510 1001 0.443395 0.896326<-823.55 65.163>
LayerCount: 2
Fore
SplineSet
156 1001 m 2
 154.666666667 1033.66666667 167.333333333 1050 194 1050 c 2
 291 1050 l 2
 315 1050 327 1037 327 1011 c 2
 324 351 l 2
 324 321 323.666666667 288.333333333 323 253 c 128
 322.333333333 217.666666667 322 189.666666667 322 169 c 1
 326 169 l 1
 333.333333333 187.666666667 346 216.833333333 364 256.5 c 152
 382 296.166666667 397 327.666666667 409 351 c 2
 737 1011 l 2
 749.666666667 1037 767.666666667 1050 791 1050 c 2
 881 1050 l 2
 904.333333333 1050 916.333333333 1037 917 1011 c 2
 941 351 l 2
 941.666666667 327 941.666666667 298.833333333 941 266.5 c 152
 940.333333333 234.166666667 940 201.666666667 940 169 c 1
 944 169 l 1
 952.666666667 188.333333333 966.5 218.666666667 985.5 260 c 128
 1004.5 301.333333333 1018.66666667 331.666666667 1028 351 c 2
 1327 1011 l 2
 1339 1037 1357 1050 1381 1050 c 2
 1494 1050 l 2
 1520.66666667 1050 1526 1033.66666667 1510 1001 c 2
 1045 61 l 2
 1025 20.3333333333 1002.33333333 0 977 0 c 2
 857 0 l 2
 831.666666667 0 818.333333333 20.3333333333 817 61 c 2
 800 722 l 2
 799.333333333 760.666666667 799.5 791.333333333 800.5 814 c 128
 801.5 836.666666667 803 856.333333333 805 873 c 1
 803 873 l 1
 797 856.333333333 788.333333333 834.333333333 777 807 c 128
 765.666666667 779.666666667 752.666666667 751.333333333 738 722 c 2
 415 61 l 2
 395 20.3333333333 372.333333333 0 347 0 c 2
 227 0 l 2
 201.666666667 0 188.333333333 20.3333333333 187 61 c 2
 156 1001 l 2
EndSplineSet
Validated: 524321
EndChar

StartChar: L
Encoding: 76 76 134
Width: 1136
Flags: W
HStem: 0 164<280 969.839> 1414 20G<414.333 539.667>
LayerCount: 2
Fore
SplineSet
100 0 m 2
 66.6666666667 0 54.3333333333 18.3333333333 63 55 c 2
 368 1379 l 2
 376.666666667 1415.66666667 397.666666667 1434 431 1434 c 2
 523 1434 l 2
 556.333333333 1434 568.666666667 1415.66666667 560 1379 c 2
 280 164 l 17
 943 164 l 2
 979.666666667 164 994.333333333 149 987 119 c 2
 970 45 l 2
 963.333333333 15 941.666666667 0 905 0 c 2
 100 0 l 2
EndSplineSet
Validated: 524321
EndChar

StartChar: D
Encoding: 68 68 135
Width: 1406
Flags: W
HStem: 0 164<280 808.493> 1272 162<536 996.118>
VStem: 1179 205<583.194 1083.06>
LayerCount: 2
Back
SplineSet
100 0 m 2
 66.6666666667 0 54.2324333333 18.3333333333 62.6973 55 c 2
 368.367 1379 l 2
 376.832333333 1415.66666667 397.731666667 1434 431.065 1434 c 2
 800.065 1434 l 2
 1082.72833333 1434 1264.8 1371.5 1346.28 1246.5 c 128
 1427.75333333 1121.5 1442.32333333 945.666666667 1389.99 719 c 256
 1337.66333333 492.333333333 1241.75 315.833333333 1102.25 189.5 c 128
 962.75 63.1666666667 751.666666667 0 469 0 c 10
 100 0 l 2
276.862 164 m 1
 497.862 164 l 2
 717.862 164 876.802666667 210.666666667 974.684 304 c 128
 1072.568 397.333333333 1142.67 535.666666667 1184.99 719 c 256
 1227.31666667 902.333333333 1221.01 1040.33333333 1166.07 1133 c 128
 1111.13 1225.66666667 973.661333333 1272 753.664 1272 c 2
 532.664 1272 l 1
 276.862 164 l 1
EndSplineSet
Fore
SplineSet
100 0 m 2
 66.6666666667 0 54.3333333333 18.3333333333 63 55 c 2
 368 1379 l 2
 376.666666667 1415.66666667 397.666666667 1434 431 1434 c 2
 750 1434 l 2
 988.666666667 1434 1154 1375.66666667 1246 1259 c 0
 1338 1142.33333333 1384 1005.33333333 1384 848 c 256
 1384 621.333333333 1314 423.333333333 1174 254 c 0
 1034 84.6666666667 815.666666667 0 519 0 c 10
 100 0 l 2
280 164 m 1
 548 164 l 2
 769.333333333 164 929.833333333 234.666666667 1029.5 376 c 0
 1129.16666667 517.333333333 1179 678.666666667 1179 860 c 256
 1179 974.666666667 1151.83333333 1072 1097.5 1152 c 0
 1043.16666667 1232 912 1272 704 1272 c 2
 536 1272 l 1
 280 164 l 1
EndSplineSet
Validated: 524321
EndChar

StartChar: exclam
Encoding: 33 33 136
Width: 600
Flags: W
HStem: 0 212<118.59 290.41> 1414 20G<441.667 579.667>
VStem: 89 511
LayerCount: 2
Fore
SplineSet
396 1379 m 2
 403.333333333 1415.66666667 424.333333333 1434 459 1434 c 2
 563 1434 l 2
 596.333333333 1434 608.666666667 1415.66666667 600 1379 c 2
 361 435 l 2
 353.666666667 405 335.333333333 390 306 390 c 2
 234 390 l 2
 204 390 192.333333333 405 199 435 c 2
 396 1379 l 2
124 0 m 2
 94 0 82.3333333333 15 89 45 c 2
 118 167 l 2
 124.666666667 197 143 212 173 212 c 2
 285 212 l 2
 315 212 326.666666667 197 320 167 c 2
 291 45 l 2
 284.333333333 15 266 0 236 0 c 2
 124 0 l 2
EndSplineSet
Validated: 524321
EndChar

StartChar: one
Encoding: 49 49 137
Width: 827
Flags: W
HStem: 0 21G<361 477> 1420 20G<699 808.333>
VStem: 302 527
LayerCount: 2
Back
SplineSet
306.729 1151 m 2
 302.987666667 1172.33333333 314.528 1187.66666667 341.35 1197 c 256
 397.146 1216.33333333 452.969333333 1247.33333333 508.82 1290 c 128
 564.670666667 1332.66666667 609.777 1370.66666667 644.139 1404 c 256
 669.013 1428 690.45 1440 708.45 1440 c 2
 793.45 1440 l 2
 824.116666667 1440 835.987333333 1425 829.062 1395 c 2
 517.389 45 l 2
 510.463 15 492 0 462 0 c 2
 376 0 l 2
 346 0 334.463 15 341.389 45 c 2
 594.421 1141 l 2
 599.038333333 1161 604.322 1181 610.272 1201 c 1
 608.272 1201 l 1
 581.603333333 1175 545.114 1148.33333333 498.804 1121 c 128
 452.493333333 1093.66666667 411.209 1073.66666667 374.951 1061 c 256
 343.001 1049.66666667 324.899333333 1055 320.646 1077 c 258
 306.729 1151 l 2
EndSplineSet
Fore
SplineSet
302 1148 m 2
 294.666666667 1168 306.333333333 1183.33333333 337 1194 c 256
 383.666666667 1210 438 1240.66666667 500 1286 c 0
 562 1331.33333333 610 1370.66666667 644 1404 c 256
 668.666666667 1428 690 1440 708 1440 c 2
 793 1440 l 2
 823.666666667 1440 835.666666667 1425 829 1395 c 2
 517 45 l 2
 510.333333333 15 492 0 462 0 c 2
 376 0 l 2
 346 0 334.333333333 15 341 45 c 2
 589 1119 l 2
 591 1128.33333333 596.333333333 1148.33333333 605 1179 c 1
 601 1179 l 1
 578.333333333 1152.33333333 542.833333333 1126 494.5 1100 c 0
 446.166666667 1074 406.666666667 1056.66666667 376 1048 c 256
 353.333333333 1041.33333333 338.333333333 1048 331 1068 c 258
 302 1148 l 2
EndSplineSet
Validated: 524289
EndChar

StartChar: one.tab
Encoding: 65536 -1 138
Width: 1110
Flags: W
HStem: 0 130<108.895 390 566 814.675> 1420 20G<728 837.333>
LayerCount: 2
Back
SplineSet
184 1151 m 2
 175.333333333 1172.33333333 183.333333333 1187.66666667 208 1197 c 256
 259.333333333 1216.33333333 308 1247.33333333 354 1290 c 128
 400 1332.66666667 436.333333333 1370.66666667 463 1404 c 256
 482.333333333 1428 501 1440 519 1440 c 2
 604 1440 l 2
 634.666666667 1440 650 1425 650 1395 c 2
 650 45 l 2
 650 15 635 0 605 0 c 2
 519 0 l 2
 489 0 474 15 474 45 c 2
 474 1141 l 2
 474 1161 474.666666667 1181 476 1201 c 1
 474 1201 l 1
 453.333333333 1175 423 1148.33333333 383 1121 c 128
 343 1093.66666667 306.333333333 1073.66666667 273 1061 c 256
 243.666666667 1049.66666667 224.333333333 1055 215 1077 c 258
 184 1151 l 2
248 0 m 2
 218.666666667 0 204 11.6666666667 204 35 c 2
 204 95 l 2
 204 118.333333333 219 130 249 130 c 2
 875 130 l 2
 905 130 920 118.333333333 920 95 c 2
 920 35 l 2
 920 11.6666666667 905.333333333 0 876 0 c 2
 248 0 l 2
EndSplineSet
Fore
SplineSet
331 1148 m 258
 323.666666667 1168 335.333333333 1183.33333333 366 1194 c 256
 413.333333333 1210.66666667 467.5 1241.33333333 528.5 1286 c 0
 589.5 1330.66666667 637.666666667 1370 673 1404 c 256
 697.666666667 1428 719 1440 737 1440 c 258
 822 1440 l 2
 852.666666667 1440 864.666666667 1425 858 1395 c 2
 566 130 l 1
 790 130 l 2
 820 130 832.333333333 118.333333333 827 95 c 2
 813 35 l 2
 807.666666667 11.6666666667 790.333333333 0 761 0 c 2
 133 0 l 2
 103.666666667 0 91.6666666667 11.6666666667 97 35 c 2
 111 95 l 2
 116.333333333 118.333333333 134 130 164 130 c 2
 390 130 l 1
 618 1119 l 2
 620 1128.33333333 625.333333333 1148.33333333 634 1179 c 1
 630 1179 l 1
 607.333333333 1152.33333333 571.833333333 1126 523.5 1100 c 0
 475.166666667 1074 435.666666667 1056.66666667 405 1048 c 256
 382.333333333 1041.33333333 367.333333333 1048 360 1068 c 258
 331 1148 l 258
EndSplineSet
Validated: 524289
EndChar

